<svg width="77" height="78" viewBox="0 0 77 78" fill="none" xmlns="http://www.w3.org/2000/svg">
<path d="M32.0402 77.3422C43.9036 77.3422 52.1899 73.275 52.1899 67.4518C52.1899 64.6243 49.5221 62.6349 46.9439 60.7112C45.0387 59.2904 42.8792 57.6803 42.8598 56.3335C42.8486 55.443 43.7979 54.4626 44.6661 53.7506C44.9322 53.8627 45.2251 53.8951 45.5092 53.8437C45.7933 53.7924 46.0564 53.6596 46.2665 53.4615C46.3838 53.5198 46.4975 53.5849 46.6072 53.6564C54.6594 61.7369 70.7108 77.3422 74.5723 77.3422C74.8432 77.347 75.1124 77.2977 75.364 77.1971C75.6157 77.0965 75.8447 76.9467 76.0378 76.7564C76.9841 75.7996 78.5892 74.144 63.4522 57.7821C65.6193 55.3042 67.4225 50.7392 67.4225 42.3773C67.4225 15.1294 55.1883 0.726562 32.0402 0.726562C8.73064 0.726562 0.0435791 25.2488 0.0435791 40.7059C0.0435791 72.5828 20.0901 77.3422 32.0402 77.3422ZM32.0402 3.79119C53.4864 3.79119 64.3598 16.7732 64.3598 42.3773C64.3598 48.6187 63.2975 53.1251 61.359 55.5392C58.9326 52.9614 56.1282 50.0529 52.9029 46.7797L52.9391 46.7431C53.2229 46.4561 53.3821 46.0687 53.3821 45.6649C53.3821 45.2612 53.2229 44.8737 52.9391 44.5868L49.6387 41.2521C49.3452 40.9722 48.9553 40.816 48.5499 40.816C48.1445 40.816 47.7547 40.9722 47.4612 41.2521L47.4496 41.2639L43.0056 36.7728L43.0392 36.7389C43.323 36.4519 43.4822 36.0645 43.4822 35.6607C43.4822 35.257 43.323 34.8695 43.0392 34.5826L39.7387 31.2478C39.4913 31.0159 39.1752 30.8708 38.8381 30.8346C38.5011 30.7983 38.1614 30.8729 37.8704 31.0469C37.4147 29.4335 36.5416 27.9689 35.3391 26.8013C33.7801 25.1338 31.8525 23.8547 29.7108 23.0664C27.5691 22.2782 25.2727 22.0027 23.0055 22.262C23.0059 22.2338 23.0136 22.2072 23.0136 22.1789C23.0292 20.7609 22.5584 19.3804 21.6798 18.2678C20.8011 17.1551 19.5677 16.3777 18.1854 16.0651C16.8031 15.7526 15.3555 15.9239 14.0842 16.5504C12.8129 17.1768 11.7947 18.2207 11.1995 19.5077C10.6043 20.7947 10.4682 22.247 10.8138 23.6223C11.1595 24.9976 11.966 26.2127 13.0987 27.0648C14.2315 27.9169 15.622 28.3546 17.0383 28.3047C18.4545 28.2548 19.8108 27.7204 20.8809 26.7907C24.1631 28.7175 24.3585 29.9636 24.5794 31.3773C24.717 32.9841 25.4197 34.4899 26.5623 35.6271C27.7149 36.8429 29.1707 37.7291 30.7797 38.1942C30.5923 38.4816 30.5083 38.8243 30.5414 39.1659C30.5745 39.5075 30.7228 39.8276 30.9619 40.0736L34.2624 43.4083C34.4049 43.5522 34.5744 43.6665 34.7613 43.7444C34.9482 43.8224 35.1486 43.8625 35.3511 43.8625C35.5535 43.8625 35.754 43.8224 35.9409 43.7444C36.1277 43.6665 36.2973 43.5522 36.4398 43.4083L36.4504 43.3976L40.8943 47.8887L40.8618 47.9215C40.578 48.2085 40.4188 48.5959 40.4188 48.9997C40.4188 49.4034 40.578 49.7909 40.8618 50.0778L42.4145 51.6478C41.653 52.1902 41.0227 52.8965 40.57 53.7147C40.1173 54.533 39.8536 55.4425 39.7985 56.3762C39.8374 59.2343 42.5187 61.2342 45.1134 63.1683C46.9946 64.5719 49.1271 66.1626 49.1271 67.4518C49.1272 71.2152 41.4615 74.2776 32.0402 74.2776C18.8414 74.2776 3.10626 68.4529 3.10626 40.7059C3.10626 26.434 10.9619 3.79119 32.0402 3.79119ZM38.6052 41.2191L40.8499 38.9506L45.2944 43.442L43.0497 45.7106L38.6052 41.2191ZM39.7612 35.6944L35.3616 40.141L35.3603 40.1429L35.3511 40.1521L34.2056 38.9954L38.6501 34.504L39.7956 35.6607L39.7642 35.6924L39.7612 35.6944ZM28.7398 33.4708C28.0511 32.7895 27.6456 31.8726 27.6047 30.9045C27.4901 29.7597 27.1165 28.6561 26.5122 27.6774C25.908 26.6986 25.089 25.8704 24.1173 25.2555C25.802 25.1875 27.4816 25.483 29.0421 26.1217C30.6027 26.7605 32.0077 27.7276 33.1618 28.9576C33.8384 29.5529 34.3631 30.3014 34.6922 31.1407C35.0212 31.98 35.1451 32.8858 35.0535 33.7827L33.4758 35.3779C32.5914 35.4643 31.6991 35.3361 30.8746 35.0041C30.0502 34.6721 29.3179 34.1462 28.7398 33.4708ZM44.1375 48.9674L44.1384 48.9667L48.5499 44.5082L49.6954 45.6649L45.2495 50.1571L44.1054 48.9997L44.1375 48.9674ZM19.3424 23.1382C19.0754 23.2541 18.8469 23.4436 18.6835 23.6846C18.5202 23.9256 18.4286 24.2081 18.4197 24.4991C18.4213 24.5976 18.4326 24.6956 18.4533 24.7918C17.8665 25.1294 17.1863 25.2684 16.5142 25.188C15.842 25.1076 15.2138 24.8122 14.7229 24.3457C14.3328 23.9667 14.0498 23.4913 13.9027 22.9675C13.7555 22.4437 13.7495 21.8903 13.8851 21.3635C14.0207 20.8366 14.2932 20.355 14.675 19.9676C15.0567 19.5801 15.534 19.3007 16.0586 19.1575C16.5831 19.0143 17.1361 19.0126 17.6616 19.1524C18.187 19.2922 18.6661 19.5687 19.0503 19.9537C19.4345 20.3387 19.71 20.8185 19.849 21.3445C19.988 21.8705 19.9854 22.4239 19.8416 22.9486C19.5603 23.0461 19.387 23.1189 19.3424 23.1382ZM48.5072 51.2217L50.7486 48.9567C59.7301 58.0958 68.8522 68.1357 72.2125 72.9151C67.472 69.5072 57.5395 60.2881 48.5072 51.2216V51.2217Z" fill="white"/>
<path d="M30.6704 71.2128C32.4417 71.2128 34.1582 70.5982 35.5275 69.4737C36.8968 68.3492 37.834 66.7844 38.1796 65.0459C38.5252 63.3074 38.2577 61.5028 37.4227 59.9396C36.5877 58.3763 35.2368 57.1511 33.6003 56.4728C31.9638 55.7945 30.1429 55.705 28.4479 56.2196C26.7528 56.7342 25.2885 57.821 24.3044 59.2948C23.3204 60.7687 22.8774 62.5384 23.0511 64.3024C23.2248 66.0664 24.0043 67.7156 25.2568 68.9689C25.9661 69.6826 26.8097 70.2484 27.739 70.6336C28.6682 71.0187 29.6646 71.2156 30.6704 71.2128ZM30.6704 58.9543C31.579 58.9542 32.4672 59.2238 33.2227 59.729C33.9782 60.2341 34.5671 60.9521 34.9147 61.7922C35.2624 62.6323 35.3534 63.5566 35.176 64.4484C34.9987 65.3402 34.5611 66.1593 33.9185 66.8021C33.0433 67.6378 31.8801 68.104 30.6704 68.104C29.4607 68.104 28.2975 67.6378 27.4222 66.8021C26.7797 66.1593 26.342 65.3402 26.1647 64.4484C25.9874 63.5566 26.0783 62.6323 26.426 61.7922C26.7737 60.9521 27.3625 60.2341 28.118 59.729C28.8735 59.2238 29.7617 58.9542 30.6704 58.9543Z" fill="white"/>
<path d="M44.4524 20.6467C45.8699 20.6471 47.2437 20.1555 48.3396 19.2558C49.4356 18.3562 50.1859 17.104 50.4626 15.7128C50.7394 14.3217 50.5255 12.8775 49.8575 11.6264C49.1895 10.3753 48.1086 9.39469 46.799 8.85171C45.4895 8.30873 44.0323 8.23696 42.6758 8.64863C41.3193 9.06029 40.1474 9.92992 39.3598 11.1093C38.5722 12.2887 38.2177 13.7049 38.3566 15.1166C38.4955 16.5283 39.1193 17.848 40.1216 18.8511C40.689 19.4221 41.3639 19.8748 42.1073 20.1831C42.8507 20.4913 43.6478 20.6489 44.4524 20.6467ZM42.287 12.3507C42.5712 12.0653 42.9088 11.8387 43.2805 11.684C43.6523 11.5292 44.0509 11.4494 44.4535 11.449C44.8562 11.4486 45.2549 11.5277 45.627 11.6817C45.999 11.8357 46.3371 12.0616 46.6218 12.3465C46.9065 12.6314 47.1323 12.9697 47.2862 13.342C47.4401 13.7143 47.5191 14.1133 47.5188 14.5162C47.5184 14.9191 47.4386 15.318 47.2841 15.69C47.1295 16.062 46.9031 16.3999 46.6179 16.6843C46.0346 17.2418 45.259 17.5529 44.4524 17.5529C43.6458 17.5529 42.8703 17.2418 42.287 16.6843C42.0026 16.3998 41.7769 16.062 41.6229 15.6902C41.469 15.3184 41.3898 14.9199 41.3898 14.5175C41.3898 14.115 41.469 13.7165 41.6229 13.3448C41.7769 12.973 42.0026 12.6352 42.287 12.3507Z" fill="white"/>
<path d="M47.515 26.7757C47.5146 28.1943 48.0057 29.569 48.9047 30.6658C49.8037 31.7625 51.0549 32.5134 52.4452 32.7905C53.8354 33.0675 55.2786 32.8536 56.5289 32.1851C57.7792 31.5167 58.7591 30.435 59.3018 29.1246C59.8444 27.8141 59.9162 26.3559 59.5049 24.9984C59.0936 23.641 58.2246 22.4682 57.046 21.68C55.8674 20.8919 54.4522 20.537 53.0415 20.676C51.6308 20.815 50.3119 21.4392 49.3095 22.4422C48.7388 23.0098 48.2863 23.6851 47.9782 24.429C47.6702 25.1729 47.5127 25.9705 47.515 26.7757ZM51.4749 24.609C51.7593 24.3244 52.0969 24.0987 52.4684 23.9447C52.8399 23.7906 53.2381 23.7114 53.6403 23.7114C54.0424 23.7113 54.4406 23.7906 54.8121 23.9446C55.1837 24.0986 55.5213 24.3243 55.8056 24.6088C56.09 24.8934 56.3156 25.2312 56.4695 25.603C56.6234 25.9748 56.7026 26.3732 56.7026 26.7757C56.7026 27.1781 56.6234 27.5766 56.4695 27.9483C56.3157 28.3201 56.0901 28.658 55.8058 28.9425C55.2225 29.5001 54.4469 29.8112 53.6403 29.8112C52.8337 29.8112 52.0582 29.5001 51.4749 28.9425C51.1905 28.658 50.9648 28.3203 50.8108 27.9485C50.6569 27.5767 50.5776 27.1782 50.5776 26.7757C50.5776 26.3733 50.6569 25.9748 50.8108 25.603C50.9648 25.2312 51.1905 24.8934 51.4749 24.609Z" fill="white"/>
<path d="M29.1392 19.1145C30.5567 19.1148 31.9304 18.6233 33.0264 17.7236C34.1223 16.8239 34.8726 15.5718 35.1493 14.1806C35.4261 12.7894 35.2123 11.3452 34.5442 10.0941C33.8762 8.84304 32.7953 7.86246 31.4857 7.31948C30.1762 6.77651 28.719 6.70474 27.3625 7.1164C26.006 7.52807 24.8341 8.39769 24.0465 9.57709C23.2589 10.7565 22.9044 12.1727 23.0433 13.5844C23.1822 14.996 23.806 16.3158 24.8083 17.3188C25.3757 17.8899 26.0506 18.3426 26.794 18.6508C27.5374 18.9591 28.3345 19.1167 29.1392 19.1145ZM26.9738 10.8185C27.2582 10.5339 27.5957 10.3082 27.9673 10.1542C28.3388 10.0002 28.737 9.92088 29.1391 9.92087C29.5413 9.92086 29.9395 10.0001 30.311 10.1541C30.6825 10.3081 31.0201 10.5338 31.3045 10.8183C31.5889 11.1029 31.8144 11.4407 31.9683 11.8125C32.1222 12.1843 32.2015 12.5827 32.2015 12.9852C32.2015 13.3876 32.1223 13.7861 31.9684 14.1579C31.8145 14.5297 31.589 14.8675 31.3046 15.152C30.7214 15.7096 29.9458 16.0207 29.1392 16.0207C28.3326 16.0207 27.5571 15.7096 26.9738 15.152C26.6893 14.8676 26.4637 14.5298 26.3097 14.158C26.1558 13.7862 26.0765 13.3877 26.0765 12.9853C26.0765 12.5828 26.1558 12.1843 26.3097 11.8125C26.4637 11.4407 26.6893 11.103 26.9738 10.8185Z" fill="white"/>
<path d="M7.96351 41.8353C8.96536 42.8373 10.2834 43.4606 11.693 43.5991C13.1026 43.7377 14.5166 43.3829 15.6941 42.5952C16.8716 41.8075 17.7397 40.6356 18.1506 39.2791C18.5615 37.9227 18.4898 36.4657 17.9475 35.1563C17.4053 33.8469 16.4262 32.7661 15.177 32.0981C13.9277 31.4301 12.4857 31.2162 11.0966 31.4928C9.70741 31.7694 8.45707 32.5195 7.55856 33.6152C6.66006 34.7108 6.16897 36.0844 6.16897 37.5017C6.16687 38.3069 6.3244 39.1046 6.63243 39.8484C6.94047 40.5923 7.39289 41.2676 7.96351 41.8353ZM10.1289 35.335C10.4133 35.0504 10.7508 34.8247 11.1224 34.6707C11.4939 34.5166 11.8921 34.4374 12.2942 34.4374C12.6964 34.4373 13.0946 34.5166 13.4661 34.6706C13.8377 34.8246 14.1752 35.0503 14.4596 35.3348C14.744 35.6194 14.9695 35.9572 15.1235 36.329C15.2774 36.7008 15.3566 37.0992 15.3566 37.5016C15.3566 37.9041 15.2774 38.3026 15.1235 38.6743C14.9696 39.0461 14.7441 39.384 14.4597 39.6685C13.8765 40.2261 13.1009 40.5372 12.2943 40.5372C11.4877 40.5372 10.7122 40.2261 10.1289 39.6685C9.84446 39.384 9.61881 39.0463 9.46485 38.6745C9.31089 38.3027 9.23165 37.9042 9.23165 37.5017C9.23165 37.0993 9.31089 36.7008 9.46485 36.329C9.61881 35.9572 9.84446 35.6194 10.1289 35.335Z" fill="white"/>
</svg>
