<svg width="181" height="115" viewBox="0 0 181 115" fill="none" xmlns="http://www.w3.org/2000/svg">
<path d="M178.17 97.7967C171.369 102.864 164.568 107.932 157.766 113C108.889 111.266 60.0122 109.533 11.1352 107.799C8.06793 81.3266 5.06729 54.8544 1.99998 28.3821C7.46779 24.0479 13.0023 19.7136 18.4701 15.3794C36.0738 14.5792 85.1508 14.5792 131.294 47.4528C154.966 64.323 169.635 83.9938 178.17 97.7967Z" fill="#009051" stroke="#161616" stroke-width="2" stroke-miterlimit="10"/>
<path d="M26.7387 92.1291C77.6161 93.8628 128.56 95.5965 179.438 97.3302C176.704 72.4583 173.97 47.5864 171.169 22.7145C119.958 19.9805 68.7476 17.2466 17.6035 14.446C20.6708 40.3848 23.6714 66.257 26.7387 92.1291Z" fill="white" stroke="#161616" stroke-width="2" stroke-miterlimit="10"/>
<path d="M110.023 18.9134C110.023 18.18 109.756 13.0456 105.489 9.84488C101.888 7.17765 96.4868 6.64421 92.5526 9.51148C88.6184 12.4454 88.3517 17.2464 88.3517 17.9132C95.6199 18.2466 102.821 18.58 110.023 18.9134Z" fill="#009051" stroke="#161616" stroke-width="2" stroke-miterlimit="10"/>
<path d="M100.621 7.11146C101.221 5.2444 101.888 1.24356 98.5536 2.24377C98.1535 2.37713 96.3531 2.64386 96.2197 2.97726C95.753 3.71075 96.4198 5.71117 96.5531 6.44466C96.3531 6.24461 96.0864 5.97789 95.8863 5.77785C96.8865 6.11125 98.1535 6.37798 99.1537 5.84453C99.8872 5.44445 100.421 4.51092 100.021 3.71075C100.621 3.71075 101.154 3.71075 101.754 3.71075C101.421 4.11084 101.354 4.44424 101.488 4.97768C100.821 4.97768 100.221 4.97768 99.5538 4.97768C99.6871 4.5776 99.7538 4.17752 99.7538 3.71075C99.6204 3.17731 99.6871 3.04394 100.087 3.31067C99.8872 3.64407 99.7538 3.97747 99.6871 4.31088C99.6871 4.64428 99.6872 4.97768 99.8205 5.2444C99.1537 5.2444 98.5536 5.2444 97.8868 5.2444C98.1535 4.64428 98.3535 3.1773 98.7536 4.44424C98.9536 4.97768 98.7536 5.77785 98.6203 6.3113C97.9535 6.11126 97.3533 5.97789 96.6865 5.77785C97.0199 4.911 97.8201 3.11063 96.8865 2.37714C97.2866 2.31046 97.6867 2.24377 98.0868 2.24377C97.4867 2.97726 97.2866 3.84411 97.4867 4.77764C96.9532 4.64428 96.3531 4.51092 95.8197 4.31088C96.2864 3.77743 96.0864 3.1773 95.6863 2.77722C96.1531 2.77722 96.6198 2.77722 97.0866 2.77722C96.7532 3.1773 96.6865 3.64407 96.9532 4.11083C97.5534 5.2444 95.8197 6.24461 95.2195 5.11104C94.5527 3.77743 94.6861 2.5105 95.6196 1.37693C95.953 0.976845 96.6865 1.04353 97.0199 1.37693C98.2868 2.57718 98.2869 4.44424 97.1533 5.77785C96.6865 6.3113 95.6196 6.04457 95.4863 5.31109C95.1529 3.64407 95.553 2.1771 96.6198 0.843481C96.8866 0.510078 97.4867 0.443399 97.8201 0.710122C99.6872 2.11042 99.3537 4.44424 98.5536 6.37798C98.0868 7.51155 96.2864 7.11147 96.6198 5.84453C96.9532 4.77764 96.3531 3.71075 97.0866 2.71054C97.4867 2.1771 98.1535 1.71033 98.8203 1.77701C101.021 1.77701 100.221 4.5776 99.7538 5.84453C99.4204 6.71138 98.0868 6.91143 97.8201 5.84453C97.42 4.2442 97.8201 1.57697 99.7538 1.17688C102.154 0.71012 101.688 4.17752 101.421 5.51113C101.154 6.51134 99.7538 6.44466 99.4871 5.51113C99.2204 4.51092 99.3538 3.57739 99.9539 2.71054C100.354 2.1771 101.287 1.97706 101.688 2.71054C102.821 5.04437 101.287 7.57823 98.8203 8.045C97.7534 8.24504 95.753 8.24504 94.8861 7.44487C94.0193 6.57802 94.0193 3.91079 94.1527 2.77722C94.286 1.51028 95.0862 1.04352 96.2197 0.776797C97.62 0.510074 99.0203 -0.290095 100.487 0.109989C103.755 1.1102 103.288 5.11104 102.488 7.57823C102.154 8.84516 100.221 8.31172 100.621 7.11146Z" fill="#161616"/>
<path d="M43.5426 79.5263C83.8844 80.7933 124.293 82.0602 164.635 83.3271C163.368 66.7903 162.101 50.1868 160.834 33.65C120.492 31.983 80.0836 30.2493 39.7418 28.5823C41.0087 45.5192 42.2757 62.5228 43.5426 79.5263Z" fill="white" stroke="#161616" stroke-width="2" stroke-miterlimit="10"/>
<path d="M139.096 45.7859C139.096 46.7861 139.096 47.7863 139.629 48.3864C140.496 49.3199 141.963 48.4531 145.164 48.3864C148.631 48.3864 150.231 49.3866 151.165 48.3864C151.698 47.7863 151.698 46.7861 151.698 45.7859C151.698 42.2518 148.898 39.3845 145.364 39.3845C141.963 39.3845 139.096 42.2518 139.096 45.7859Z" fill="#161616" stroke="#161616" stroke-width="2" stroke-miterlimit="10"/>
<path d="M61.0126 43.8523C61.0126 44.8525 61.0126 45.8527 61.546 46.4528C62.4129 47.3864 63.8798 46.5195 67.0805 46.4528C70.5479 46.4528 72.1482 47.453 73.0818 46.4528C73.6152 45.8527 73.6152 44.8525 73.6152 43.8523C73.6152 40.3182 70.8146 37.4509 67.2806 37.4509C63.8132 37.4509 61.0126 40.3182 61.0126 43.8523Z" fill="#161616" stroke="#161616" stroke-width="2" stroke-miterlimit="10"/>
<path d="M115.624 55.2546C114.757 59.3888 112.357 64.1898 107.289 63.523C102.888 62.9229 100.821 58.7887 100.421 54.7878C100.288 53.5209 102.288 53.5209 102.421 54.7878C102.688 57.9218 104.422 61.5226 108.089 61.5893C111.757 61.6559 113.09 57.5884 113.69 54.7212C113.957 53.4542 115.891 53.9877 115.624 55.2546Z" fill="#161616"/>
<path d="M153.565 55.0544C149.031 53.6541 144.497 53.3874 139.829 54.3209C138.895 54.521 138.495 53.054 139.429 52.854C144.363 51.8538 149.164 52.1205 153.965 53.5875C154.899 53.8542 154.499 55.3212 153.565 55.0544Z" fill="#161616"/>
<path d="M152.698 58.3219C149.231 57.3884 145.697 57.1883 142.096 57.6551C141.163 57.7885 141.163 56.2548 142.096 56.1215C145.83 55.6547 149.431 55.8547 153.099 56.8549C154.032 57.1216 153.632 58.5886 152.698 58.3219Z" fill="#161616"/>
<path d="M74.4817 52.3871C69.4806 50.9868 64.5462 51.6536 59.5452 52.7205C58.6117 52.9205 58.2116 51.4535 59.1451 51.2535C64.4129 50.1866 69.614 49.4531 74.8817 50.9201C75.8153 51.1868 75.4152 52.6538 74.4817 52.3871Z" fill="#161616"/>
<path d="M72.6151 55.588C68.3475 55.1879 64.0799 55.2546 59.879 55.788C58.9455 55.9214 58.9455 54.3877 59.879 54.2544C64.1466 53.7209 68.3475 53.6542 72.6151 54.0543C73.6153 54.1877 73.6153 55.7213 72.6151 55.588Z" fill="#161616"/>
<path d="M51.0107 75.9921C51.6108 75.392 51.3441 74.4585 50.6106 74.1251C49.8104 73.725 48.8102 74.0584 48.3434 74.7252C47.8767 75.392 48.0767 76.1255 48.8769 76.3255C49.6104 76.5256 50.3439 76.3256 51.0773 76.1255C52.0109 75.8588 52.411 77.3257 51.4775 77.5925C50.2105 77.9926 48.4768 78.1926 47.4099 77.1924C46.143 76.1255 46.4764 74.3251 47.61 73.3249C48.7435 72.3247 50.6106 72.1247 51.8775 73.1249C53.0778 74.1251 53.2111 75.9921 52.1443 77.059C51.3441 77.7925 50.2772 76.7256 51.0107 75.9921Z" fill="#161616"/>
<path d="M160.834 79.7931C160.834 79.0596 160.767 78.2595 159.967 77.9927C159.367 77.7927 158.767 78.0594 158.567 78.5929C158.033 79.9265 159.834 80.86 160.634 79.7264C161.167 78.9263 162.501 79.6598 161.901 80.4599C161.167 81.5268 159.767 81.9936 158.5 81.5268C157.233 80.9934 156.633 79.5264 157.033 78.1928C157.433 76.8591 158.833 76.1924 160.167 76.4591C161.767 76.7925 162.367 78.2595 162.301 79.7264C162.301 80.7266 160.767 80.7266 160.834 79.7931Z" fill="#161616"/>
<path opacity="0.31" d="M155.633 22.1809C117.224 24.7814 78.8164 27.3153 40.4083 29.9158C41.8753 46.0525 43.3423 62.256 44.8092 78.3927C84.4842 80.3264 124.159 82.2602 163.901 84.1939C165.301 88.3281 166.635 92.4623 168.035 96.5965C121.025 95.1295 73.9487 93.6626 26.9388 92.1956C24.0049 66.5902 21.0709 40.9181 18.1369 15.3127C63.9466 17.5799 109.756 19.9137 155.633 22.1809Z" fill="#666666"/>
<path opacity="0.28" d="M39.6084 27.4487C40.8086 44.719 42.0088 61.9893 43.2091 79.2596C106.756 80.9933 138.562 82.6603 138.562 84.194C138.562 85.861 103.822 87.3947 34.4072 88.8617C36.0742 68.3907 37.808 47.9197 39.6084 27.4487Z" fill="#666666"/>
<path opacity="0.11" d="M153.699 82.527C115.824 64.7232 78.0161 46.8528 40.1415 29.0491C41.5418 45.5859 42.8754 62.1227 44.2757 78.6595C80.7501 79.9931 117.224 81.2601 153.699 82.527Z" fill="#666666"/>
</svg>
