<svg width="28" height="36" viewBox="0 0 28 36" fill="none" xmlns="http://www.w3.org/2000/svg">
<path fill-rule="evenodd" clip-rule="evenodd" d="M23.068 32.2915C23.0504 32.7163 22.6763 33.0779 22.2528 33.0779H6.61858C6.19528 33.0779 5.82092 32.7153 5.80344 32.2915L4.90751 10.572C4.87942 9.8912 4.31028 9.3623 3.63629 9.39067C2.9623 9.41904 2.43869 9.99393 2.46677 10.6747L3.3627 32.3942C3.43471 34.1399 4.88591 35.5454 6.61858 35.5454H22.2528C23.9845 35.5454 25.4366 34.1422 25.5087 32.3942L26.4046 10.6747C26.4327 9.99393 25.9091 9.41904 25.2351 9.39067C24.5611 9.3623 23.992 9.8912 23.9639 10.572L23.068 32.2915ZM13.4586 29.3766C13.4586 29.9217 13.896 30.3636 14.4357 30.3636C14.9754 30.3636 15.4128 29.9217 15.4128 29.3766V12.5974C15.4128 12.0523 14.9754 11.6104 14.4357 11.6104C13.896 11.6104 13.4586 12.0523 13.4586 12.5974V29.3766ZM8.57327 29.4056C8.58914 29.9505 9.03929 30.3792 9.57872 30.3632C10.1181 30.3471 10.5426 29.8924 10.5267 29.3476L10.0381 12.5684C10.0223 12.0235 9.57212 11.5948 9.03269 11.6108C8.49326 11.6268 8.06883 12.0815 8.0847 12.6264L8.57327 29.4056ZM18.3447 29.3476C18.3288 29.8924 18.7532 30.3471 19.2927 30.3632C19.8321 30.3792 20.2823 29.9505 20.2981 29.4056L20.7867 12.6264C20.8026 12.0815 20.3781 11.6268 19.8387 11.6108C19.2993 11.5948 18.8491 12.0235 18.8333 12.5684L18.3447 29.3476ZM20.4521 5.1948L19.9872 3.55127C19.5785 2.10636 18.126 1 16.6384 1H12.233C10.7456 1 9.29275 2.10675 8.88416 3.55127L8.41928 5.1948H2.22143C1.54685 5.1948 1 5.74718 1 6.42856C1 7.10995 1.54685 7.66233 2.22143 7.66233H26.65C27.3245 7.66233 27.8714 7.10995 27.8714 6.42856C27.8714 5.74718 27.3245 5.1948 26.65 5.1948H20.4521ZM16.6384 3.46753H12.233C11.8362 3.46753 11.342 3.84403 11.233 4.22915L10.9599 5.1948H17.9115L17.6384 4.22915C17.5293 3.84371 17.0355 3.46753 16.6384 3.46753Z" fill="#009051" stroke="#009051" stroke-width="0.2"/>
</svg>
