<svg width="40" height="10" viewBox="0 0 40 10" fill="none" xmlns="http://www.w3.org/2000/svg">
<path fill-rule="evenodd" clip-rule="evenodd" d="M10 5C10 7.76142 7.76142 10 5 10C2.23858 10 0 7.76142 0 5C0 2.23858 2.23858 0 5 0C7.76142 0 10 2.23858 10 5ZM25 5C25 7.76142 22.7614 10 20 10C17.2386 10 15 7.76142 15 5C15 2.23858 17.2386 0 20 0C22.7614 0 25 2.23858 25 5ZM35 10C37.7614 10 40 7.76142 40 5C40 2.23858 37.7614 0 35 0C32.2386 0 30 2.23858 30 5C30 7.76142 32.2386 10 35 10Z" fill="#009051"/>
</svg>
