<svg width="24" height="33" fill="none" xmlns="http://www.w3.org/2000/svg"><path fill-rule="evenodd" clip-rule="evenodd" d="M12.9.904c-.508-.45-1.33-.448-1.833 0L2.963 8.115c-.979.861.489 2.152 1.468 1.29l6.161-5.417c.205-.18.37-.123.37.128v16.51c0 .504.465.912 1.038.912s1.038-.408 1.038-.912V4.116c0-.25.162-.311.37-.128l6.162 5.418c.978.86 2.446-.43 1.467-1.29L12.9.903zm-6.1 11.26H3.16c-1.437 0-2.6 1.023-2.6 2.285v15.509c0 1.262 1.164 2.285 2.603 2.285h17.674c1.438 0 2.603-1.022 2.603-2.285V14.449c0-1.26-1.166-2.284-2.6-2.284H17.2c-.574 0-1.04.408-1.04.912 0 .505.466.913 1.04.913h3.64c.285 0 .52.206.52.46v15.508c0 .255-.233.46-.523.46H3.163c-.29 0-.523-.206-.523-.46V14.449c0-.255.233-.459.52-.459H6.8c.574 0 1.04-.409 1.04-.913s-.466-.912-1.04-.912z" fill="#009051"/></svg>