<svg width="27" height="38" viewBox="0 0 27 38" fill="none" xmlns="http://www.w3.org/2000/svg">
<path d="M26.5355 27.0841C26.5355 24.93 25.1478 23.136 23.2302 22.514V2.29643C23.2302 1.48817 22.5956 0.85 21.7891 0.85C20.9827 0.85 20.348 1.48817 20.348 2.29643V22.514C18.4304 23.136 17.0427 24.93 17.0427 27.0841C17.0427 29.1845 18.4276 31.0296 20.348 31.6052V35.6406C20.348 36.4488 20.9827 37.087 21.7891 37.087C22.5956 37.087 23.2302 36.4488 23.2302 35.6406V31.6024C25.1469 30.9808 26.5355 29.1884 26.5355 27.0841ZM21.7891 28.9566C20.7388 28.9566 19.925 28.0934 19.925 27.0841C19.925 26.028 20.7855 25.2117 21.7891 25.2117C22.7902 25.2117 23.6532 26.0774 23.6532 27.0841C23.6532 28.0934 22.8394 28.9566 21.7891 28.9566Z" fill="#009051" stroke="#009051" stroke-width="0.3"/>
<path d="M10.3427 11.527C10.3427 9.37283 8.95509 7.57882 7.03747 6.9569V2.29643C7.03747 1.48817 6.4028 0.85 5.59636 0.85C4.78991 0.85 4.15525 1.48817 4.15525 2.29643V6.9569C2.23763 7.57882 0.85 9.37283 0.85 11.527C0.85 13.6273 2.23485 15.4725 4.15525 16.048V35.6406C4.15525 36.4488 4.78991 37.087 5.59636 37.087C6.4028 37.087 7.03747 36.4488 7.03747 35.6406V16.0452C8.95417 15.4236 10.3427 13.6312 10.3427 11.527ZM5.59636 13.3994C4.54609 13.3994 3.73222 12.5363 3.73222 11.527C3.73222 10.4709 4.59274 9.65457 5.59636 9.65457C6.59747 9.65457 7.46049 10.5203 7.46049 11.527C7.46049 12.5363 6.64663 13.3994 5.59636 13.3994Z" fill="#009051" stroke="#009051" stroke-width="0.3"/>
</svg>
