<svg width="42" height="42" viewBox="0 0 42 42" fill="none" xmlns="http://www.w3.org/2000/svg">
<path d="M35.7097 33.2153C35.4469 33.2153 35.1841 33.2153 34.9175 33.2153C34.2053 33.2153 33.4931 33.2153 32.7809 33.2153C31.7297 33.2153 30.6785 33.2153 29.6236 33.2153C28.3363 33.2153 27.049 33.2153 25.7578 33.2153C24.3487 33.2153 22.9395 33.2153 21.5303 33.2153C20.1173 33.2153 18.7043 33.2153 17.2913 33.2153C15.9774 33.2153 14.6634 33.2153 13.3494 33.2153C12.2411 33.2153 11.129 33.2153 10.0207 33.2153C9.23617 33.2153 8.44779 33.2153 7.66322 33.2153C7.30521 33.2153 6.9472 33.2153 6.58919 33.2153C6.47494 33.2153 6.35687 33.208 6.24261 33.197C6.34544 33.2116 6.44447 33.2226 6.5473 33.2372C6.34163 33.208 6.1474 33.1568 5.95316 33.0836C6.04456 33.1202 6.13597 33.1568 6.22738 33.1933C6.08646 33.1348 5.95316 33.069 5.82747 32.9922C5.80081 32.9739 5.77415 32.9556 5.74369 32.9373C5.59515 32.8422 5.93412 33.0909 5.83509 33.0068C5.78177 32.9593 5.72083 32.9117 5.66751 32.8605C5.62181 32.8166 5.57611 32.7654 5.53421 32.7179C5.40472 32.5826 5.66371 32.9008 5.60658 32.8093C5.58753 32.7837 5.56849 32.7581 5.54945 32.7289C5.46185 32.6009 5.38568 32.4655 5.32474 32.3266C5.36283 32.4143 5.40091 32.5021 5.439 32.5899C5.36283 32.407 5.30951 32.2169 5.27904 32.0194C5.29427 32.1181 5.3057 32.2132 5.32093 32.3119C5.28665 32.0413 5.30189 31.7633 5.30189 31.4891C5.30189 30.9697 5.30189 30.4504 5.30189 29.9311C5.30189 28.2012 5.30189 26.4713 5.30189 24.7451C5.30189 22.6312 5.30189 20.5173 5.30189 18.3997C5.30189 16.5894 5.30189 14.7827 5.30189 12.9723C5.30189 12.1202 5.29427 11.2681 5.30189 10.4159C5.30189 10.3062 5.30951 10.2001 5.32093 10.0941C5.3057 10.1928 5.29427 10.2879 5.27904 10.3867C5.30951 10.1892 5.36283 10.0026 5.439 9.81612C5.40091 9.90389 5.36283 9.99167 5.32474 10.0794C5.38568 9.94412 5.45423 9.81612 5.53421 9.69543C5.55326 9.66983 5.5723 9.64423 5.59134 9.61497C5.69037 9.47234 5.43138 9.79783 5.51898 9.70274C5.56849 9.65154 5.618 9.59303 5.67132 9.54183C5.71703 9.49794 5.77035 9.45405 5.81986 9.41382C5.96078 9.28947 5.62943 9.53817 5.72464 9.48331C5.7513 9.46502 5.77796 9.44674 5.80843 9.42845C5.94173 9.34433 6.08265 9.27119 6.22738 9.21267C6.13597 9.24924 6.04456 9.28582 5.95316 9.32239C6.14359 9.24924 6.34163 9.19804 6.5473 9.16878C6.44447 9.18341 6.34544 9.19438 6.24261 9.20901C6.63109 9.16513 7.03861 9.19073 7.42708 9.19073C8.20023 9.19073 8.97337 9.19073 9.74652 9.19073C11.5404 9.19073 13.338 9.19073 15.1319 9.19073C15.5432 9.19073 15.9583 9.19073 16.3697 9.19073C16.0993 9.08467 15.8327 8.97495 15.5622 8.86889C16.6782 9.89658 17.7979 10.9243 18.9138 11.9483C19.108 12.1275 19.2985 12.3067 19.4927 12.4823C19.7479 12.7127 20.064 12.8443 20.4144 12.848C20.7991 12.8516 21.1875 12.848 21.5722 12.848C23.2746 12.848 24.9771 12.848 26.6795 12.848C28.6409 12.848 30.5986 12.848 32.56 12.848C33.5997 12.848 34.6395 12.8443 35.6792 12.848C35.7935 12.848 35.9077 12.8553 36.0182 12.8663C35.9154 12.8516 35.8163 12.8407 35.7135 12.826C35.9192 12.8553 36.1134 12.9065 36.3076 12.9797C36.2162 12.9431 36.1248 12.9065 36.0334 12.8699C36.1743 12.9284 36.3076 12.9943 36.4333 13.0711C36.46 13.0894 36.4867 13.1077 36.5171 13.1259C36.6657 13.221 36.3267 12.9723 36.4257 13.0565C36.479 13.104 36.54 13.1515 36.5933 13.2027C36.639 13.2466 36.6847 13.2978 36.7266 13.3454C36.8561 13.4807 36.5971 13.1625 36.6542 13.2539C36.6733 13.2795 36.6923 13.3051 36.7114 13.3344C36.799 13.4624 36.8751 13.5977 36.9361 13.7367C36.898 13.6489 36.8599 13.5612 36.8218 13.4734C36.898 13.6562 36.9513 13.8464 36.9818 14.0439C36.9665 13.9452 36.9551 13.8501 36.9399 13.7513C36.9703 13.9891 36.9589 14.2341 36.9589 14.4718C36.9589 14.9034 36.9589 15.3313 36.9589 15.7628C36.9589 17.2038 36.9589 18.6447 36.9589 20.0857C36.9589 21.8449 36.9589 23.604 36.9589 25.3668C36.9589 26.8736 36.9589 28.3804 36.9589 29.8908C36.9589 30.593 36.9627 31.2952 36.9589 31.9974C36.9589 32.1035 36.9513 32.2095 36.9399 32.3156C36.9551 32.2168 36.9665 32.1218 36.9818 32.023C36.9513 32.2205 36.898 32.407 36.8218 32.5935C36.8599 32.5058 36.898 32.418 36.9361 32.3302C36.8751 32.4655 36.8066 32.5935 36.7266 32.7142C36.7076 32.7398 36.6885 32.7654 36.6695 32.7947C36.5704 32.9373 36.8294 32.6118 36.7418 32.7069C36.6923 32.7581 36.6428 32.8166 36.5895 32.8678C36.5438 32.9117 36.4905 32.9556 36.4409 32.9958C36.3 33.1202 36.6314 32.8715 36.5362 32.9264C36.5095 32.9446 36.4828 32.9629 36.4524 32.9812C36.3191 33.0653 36.1782 33.1385 36.0334 33.197C36.1248 33.1604 36.2162 33.1239 36.3076 33.0873C36.1172 33.1604 35.9192 33.2116 35.7135 33.2409C35.8163 33.2263 35.9154 33.2153 36.0182 33.2007C35.9192 33.208 35.8163 33.2153 35.7097 33.2153C35.1118 33.2226 34.5405 33.7163 34.5671 34.3125C34.5938 34.9013 35.0699 35.417 35.7097 35.4096C37.4693 35.3914 38.9775 34.1333 39.2098 32.4582C39.2517 32.1656 39.2517 31.884 39.2517 31.5915C39.2517 30.5162 39.2517 29.4373 39.2517 28.3621C39.2517 26.6907 39.2517 25.0157 39.2517 23.3443C39.2517 21.6327 39.2517 19.9211 39.2517 18.2095C39.2517 17.0392 39.2517 15.8725 39.2517 14.7022C39.2517 14.4901 39.2517 14.278 39.2517 14.0659C39.2403 12.5847 38.2615 11.3302 36.8256 10.8292C36.3457 10.6609 35.8392 10.6536 35.3365 10.6536C34.8566 10.6536 34.3767 10.6536 33.8968 10.6536C32.2743 10.6536 30.6557 10.6536 29.0332 10.6536C27.2508 10.6536 25.4646 10.6536 23.6822 10.6536C22.6234 10.6536 21.5646 10.6536 20.5058 10.6536C20.4525 10.6536 20.403 10.6536 20.3496 10.6536C20.6201 10.7597 20.8867 10.8694 21.1571 10.9755C20.2392 10.1306 19.3213 9.28582 18.3996 8.44465C18.0035 8.07892 17.6113 7.70954 17.2076 7.35112C16.9524 7.12072 16.6439 7.00368 16.2935 7.00003C16.145 7.00003 15.9964 7.00003 15.8441 7.00003C14.412 7.00003 12.9838 7.00003 11.5518 7.00003C10.0931 7.00003 8.63441 7.00003 7.17572 7.00003C6.71869 7.00003 6.28451 6.99637 5.82747 7.07317C4.23548 7.34381 3.09671 8.76649 3.01292 10.2733C2.98626 10.756 3.00912 11.2461 3.00912 11.7325C3.00912 12.8955 3.00912 14.0585 3.00912 15.2216C3.00912 16.7869 3.00912 18.3485 3.00912 19.9138C3.00912 21.5596 3.00912 23.2054 3.00912 24.8548C3.00912 26.2592 3.00912 27.6672 3.00912 29.0716C3.00912 29.9274 3.00912 30.7869 3.00912 31.6427C3.00912 31.767 3.00912 31.8914 3.00912 32.0157C3.02435 33.5371 4.12122 34.9452 5.67894 35.3109C6.27689 35.4499 6.9015 35.417 7.51087 35.417C8.47445 35.417 9.44183 35.417 10.4054 35.417C11.8222 35.417 13.239 35.417 14.652 35.417C16.3163 35.417 17.9769 35.417 19.6412 35.417C21.3589 35.417 23.0804 35.417 24.7981 35.417C26.3825 35.417 27.9668 35.417 29.5512 35.417C30.7966 35.417 32.042 35.417 33.2912 35.417C33.9996 35.417 34.7118 35.417 35.4202 35.417C35.5117 35.417 35.6069 35.417 35.6983 35.417C36.2962 35.417 36.8675 34.9123 36.8409 34.3198C36.8256 33.72 36.3495 33.2153 35.7097 33.2153Z" fill="#009051"/>
<path d="M35.7097 33.2153C35.4469 33.2153 35.1841 33.2153 34.9175 33.2153C34.2053 33.2153 33.4931 33.2153 32.7809 33.2153C31.7297 33.2153 30.6785 33.2153 29.6236 33.2153C28.3363 33.2153 27.049 33.2153 25.7578 33.2153C24.3487 33.2153 22.9395 33.2153 21.5303 33.2153C20.1173 33.2153 18.7043 33.2153 17.2913 33.2153C15.9774 33.2153 14.6634 33.2153 13.3494 33.2153C12.2411 33.2153 11.129 33.2153 10.0207 33.2153C9.23617 33.2153 8.44779 33.2153 7.66322 33.2153C7.30521 33.2153 6.9472 33.2153 6.58919 33.2153C6.47494 33.2153 6.35687 33.208 6.24261 33.197C6.34544 33.2116 6.44447 33.2226 6.5473 33.2372C6.34163 33.208 6.1474 33.1568 5.95316 33.0836C6.04456 33.1202 6.13597 33.1568 6.22738 33.1933C6.08646 33.1348 5.95316 33.069 5.82747 32.9922C5.80081 32.9739 5.77415 32.9556 5.74369 32.9373C5.59515 32.8422 5.93412 33.0909 5.83509 33.0068C5.78177 32.9593 5.72083 32.9117 5.66751 32.8605C5.62181 32.8166 5.57611 32.7654 5.53421 32.7179C5.40472 32.5826 5.66371 32.9008 5.60658 32.8093C5.58753 32.7837 5.56849 32.7581 5.54945 32.7289C5.46185 32.6009 5.38568 32.4655 5.32474 32.3266C5.36283 32.4143 5.40091 32.5021 5.439 32.5899C5.36283 32.407 5.30951 32.2168 5.27904 32.0194C5.29427 32.1181 5.3057 32.2132 5.32093 32.3119C5.28665 32.0413 5.30189 31.7633 5.30189 31.4891C5.30189 30.9697 5.30189 30.4504 5.30189 29.9311C5.30189 28.2012 5.30189 26.4713 5.30189 24.7451C5.30189 22.6312 5.30189 20.5173 5.30189 18.3997C5.30189 16.5894 5.30189 14.7827 5.30189 12.9723C5.30189 12.1202 5.29427 11.2681 5.30189 10.4159C5.30189 10.3062 5.30951 10.2001 5.32093 10.0941C5.3057 10.1928 5.29427 10.2879 5.27904 10.3867C5.30951 10.1892 5.36283 10.0026 5.439 9.81612C5.40091 9.90389 5.36283 9.99167 5.32474 10.0794C5.38568 9.94412 5.45423 9.81612 5.53421 9.69543C5.55326 9.66983 5.5723 9.64423 5.59134 9.61497C5.69037 9.47234 5.43138 9.79783 5.51898 9.70274C5.56849 9.65154 5.618 9.59303 5.67132 9.54183C5.71703 9.49794 5.77035 9.45405 5.81986 9.41382C5.96078 9.28947 5.62943 9.53817 5.72464 9.48331C5.7513 9.46502 5.77796 9.44674 5.80843 9.42845C5.94173 9.34433 6.08265 9.27119 6.22738 9.21267C6.13597 9.24924 6.04456 9.28582 5.95316 9.32239C6.14359 9.24924 6.34163 9.19804 6.5473 9.16878C6.44447 9.18341 6.34544 9.19438 6.24261 9.20901C6.63109 9.16513 7.03861 9.19073 7.42708 9.19073C8.20023 9.19073 8.97337 9.19073 9.74652 9.19073C11.5404 9.19073 13.338 9.19073 15.1319 9.19073C15.5432 9.19073 15.9583 9.19073 16.3697 9.19073C16.0993 9.08467 15.8326 8.97495 15.5622 8.86889C16.6782 9.89658 17.7979 10.9243 18.9138 11.9483C19.108 12.1275 19.2985 12.3067 19.4927 12.4823C19.7479 12.7127 20.064 12.8443 20.4144 12.848C20.7991 12.8516 21.1875 12.848 21.5722 12.848C23.2746 12.848 24.9771 12.848 26.6795 12.848C28.6409 12.848 30.5986 12.848 32.56 12.848C33.5997 12.848 34.6395 12.8443 35.6792 12.848C35.7935 12.848 35.9077 12.8553 36.0182 12.8663C35.9154 12.8516 35.8163 12.8407 35.7135 12.826C35.9192 12.8553 36.1134 12.9065 36.3076 12.9797C36.2162 12.9431 36.1248 12.9065 36.0334 12.8699C36.1743 12.9284 36.3076 12.9943 36.4333 13.0711C36.46 13.0894 36.4867 13.1077 36.5171 13.1259C36.6657 13.221 36.3267 12.9723 36.4257 13.0565C36.479 13.104 36.54 13.1515 36.5933 13.2027C36.639 13.2466 36.6847 13.2978 36.7266 13.3454C36.8561 13.4807 36.5971 13.1625 36.6542 13.2539C36.6733 13.2795 36.6923 13.3051 36.7114 13.3344C36.799 13.4624 36.8751 13.5977 36.9361 13.7367C36.898 13.6489 36.8599 13.5612 36.8218 13.4734C36.898 13.6562 36.9513 13.8464 36.9818 14.0439C36.9665 13.9452 36.9551 13.8501 36.9399 13.7513C36.9703 13.9891 36.9589 14.2341 36.9589 14.4718C36.9589 14.9034 36.9589 15.3313 36.9589 15.7628C36.9589 17.2038 36.9589 18.6447 36.9589 20.0857C36.9589 21.8449 36.9589 23.604 36.9589 25.3668C36.9589 26.8736 36.9589 28.3804 36.9589 29.8908C36.9589 30.593 36.9627 31.2952 36.9589 31.9974C36.9589 32.1035 36.9513 32.2095 36.9399 32.3156C36.9551 32.2168 36.9665 32.1218 36.9818 32.023C36.9513 32.2205 36.898 32.407 36.8218 32.5935C36.8599 32.5058 36.898 32.418 36.9361 32.3302C36.8751 32.4655 36.8066 32.5935 36.7266 32.7142C36.7076 32.7398 36.6885 32.7654 36.6695 32.7947C36.5704 32.9373 36.8294 32.6118 36.7418 32.7069C36.6923 32.7581 36.6428 32.8166 36.5895 32.8678C36.5438 32.9117 36.4905 32.9556 36.4409 32.9958C36.3 33.1202 36.6314 32.8715 36.5362 32.9264C36.5095 32.9446 36.4828 32.9629 36.4524 32.9812C36.3191 33.0653 36.1782 33.1385 36.0334 33.197C36.1248 33.1604 36.2162 33.1239 36.3076 33.0873C36.1172 33.1604 35.9192 33.2116 35.7135 33.2409C35.8163 33.2263 35.9154 33.2153 36.0182 33.2007C35.9192 33.208 35.8163 33.2153 35.7097 33.2153ZM35.7097 33.2153C35.1117 33.2226 34.5405 33.7163 34.5671 34.3125C34.5938 34.9013 35.0699 35.417 35.7097 35.4096C37.4693 35.3914 38.9775 34.1333 39.2098 32.4582C39.2517 32.1656 39.2517 31.884 39.2517 31.5915C39.2517 30.5162 39.2517 29.4373 39.2517 28.3621C39.2517 26.6907 39.2517 25.0157 39.2517 23.3443C39.2517 21.6327 39.2517 19.9211 39.2517 18.2095C39.2517 17.0392 39.2517 15.8725 39.2517 14.7022C39.2517 14.4901 39.2517 14.278 39.2517 14.0659C39.2403 12.5847 38.2615 11.3302 36.8256 10.8292C36.3457 10.6609 35.8392 10.6536 35.3365 10.6536C34.8566 10.6536 34.3767 10.6536 33.8968 10.6536C32.2743 10.6536 30.6557 10.6536 29.0332 10.6536C27.2508 10.6536 25.4646 10.6536 23.6822 10.6536C22.6234 10.6536 21.5646 10.6536 20.5058 10.6536C20.4525 10.6536 20.403 10.6536 20.3496 10.6536C20.6201 10.7597 20.8867 10.8694 21.1571 10.9755C20.2392 10.1306 19.3213 9.28582 18.3996 8.44465C18.0035 8.07892 17.6113 7.70954 17.2076 7.35112C16.9524 7.12072 16.6439 7.00368 16.2935 7.00003C16.145 7.00003 15.9964 7.00003 15.8441 7.00003C14.412 7.00003 12.9838 7.00003 11.5518 7.00003C10.0931 7.00003 8.63441 7.00003 7.17572 7.00003C6.71869 7.00003 6.28451 6.99637 5.82747 7.07317C4.23548 7.34381 3.09671 8.76649 3.01292 10.2733C2.98626 10.756 3.00912 11.2461 3.00912 11.7325C3.00912 12.8955 3.00912 14.0585 3.00912 15.2216C3.00912 16.7869 3.00912 18.3485 3.00912 19.9138C3.00912 21.5596 3.00912 23.2054 3.00912 24.8548C3.00912 26.2592 3.00912 27.6672 3.00912 29.0716C3.00912 29.9274 3.00912 30.7869 3.00912 31.6427C3.00912 31.767 3.00912 31.8914 3.00912 32.0157C3.02435 33.5371 4.12122 34.9452 5.67894 35.3109C6.27689 35.4499 6.9015 35.417 7.51087 35.417C8.47445 35.417 9.44183 35.417 10.4054 35.417C11.8222 35.417 13.239 35.417 14.652 35.417C16.3163 35.417 17.9769 35.417 19.6412 35.417C21.3589 35.417 23.0804 35.417 24.7981 35.417C26.3825 35.417 27.9668 35.417 29.5512 35.417C30.7966 35.417 32.042 35.417 33.2912 35.417C33.9996 35.417 34.7118 35.417 35.4202 35.417C35.5117 35.417 35.6069 35.417 35.6983 35.417C36.2962 35.417 36.8675 34.9123 36.8409 34.3198C36.8256 33.72 36.3495 33.2153 35.7097 33.2153Z" stroke="#009051" stroke-width="0.8"/>
<path d="M22.2767 27.5099C22.2767 26.5517 22.2767 25.5934 22.2767 24.6352C22.2767 23.1065 22.2767 21.5778 22.2767 20.049C22.2767 19.6979 22.2767 19.3468 22.2767 18.9957C22.2767 18.4216 21.7511 17.873 21.1342 17.8986C20.5134 17.9242 19.9916 18.3813 19.9916 18.9957C19.9916 19.9539 19.9916 20.9122 19.9916 21.8704C19.9916 23.3991 19.9916 24.9278 19.9916 26.4566C19.9916 26.8077 19.9916 27.1588 19.9916 27.5099C19.9916 28.084 20.5172 28.6326 21.1342 28.607C21.755 28.5814 22.2767 28.1243 22.2767 27.5099Z" fill="#009051" stroke="#009051" stroke-width="0.8"/>
<path d="M25.5674 22.1555C24.5695 22.1555 23.5717 22.1555 22.5738 22.1555C20.9818 22.1555 19.3898 22.1555 17.7978 22.1555C17.4322 22.1555 17.0666 22.1555 16.701 22.1555C16.103 22.1555 15.5317 22.6602 15.5584 23.2527C15.5851 23.8488 16.0611 24.3499 16.701 24.3499C17.6988 24.3499 18.6967 24.3499 19.6945 24.3499C21.2865 24.3499 22.8785 24.3499 24.4705 24.3499C24.8361 24.3499 25.2018 24.3499 25.5674 24.3499C26.1653 24.3499 26.7366 23.8452 26.71 23.2527C26.6833 22.6566 26.2072 22.1555 25.5674 22.1555Z" fill="#009051" stroke="#009051" stroke-width="0.8"/>
</svg>
