<svg width="24" height="24" viewBox="0 0 24 24" fill="none" xmlns="http://www.w3.org/2000/svg">
<path d="M23.3662 3.23185L20.7638 0.638516C19.874 -0.241484 18.429 -0.241484 17.5459 0.638516L2.72104 15.4052C2.69428 15.4318 2.67421 15.4518 2.65414 15.4785C2.64745 15.4852 2.64745 15.4918 2.64076 15.4985C2.62738 15.5185 2.60731 15.5385 2.59393 15.5652C2.58724 15.5718 2.58724 15.5785 2.58055 15.5852C2.56717 15.6052 2.55379 15.6252 2.5471 15.6518C2.54041 15.6585 2.54041 15.6718 2.53372 15.6785C2.52703 15.6985 2.51365 15.7185 2.50696 15.7452C2.50696 15.7518 2.50027 15.7518 2.50027 15.7585L0.0183103 22.7052C-0.102108 23.0452 -0.0151396 23.4252 0.239078 23.6785C0.419706 23.8585 0.660543 23.9518 0.901381 23.9518C1.00842 23.9518 1.11546 23.9318 1.21581 23.8985L8.1934 21.4318C8.20009 21.4318 8.20009 21.4252 8.20678 21.4252C8.22685 21.4185 8.24692 21.4052 8.27368 21.3985C8.28037 21.3918 8.29375 21.3918 8.30044 21.3852C8.32051 21.3718 8.34058 21.3652 8.36734 21.3518C8.37403 21.3452 8.38072 21.3452 8.38741 21.3385C8.40748 21.3252 8.42755 21.3118 8.44762 21.2918C8.45431 21.2852 8.461 21.2852 8.46769 21.2785C8.49445 21.2585 8.52121 21.2385 8.54128 21.2118L20.8909 8.90518L23.3662 6.43852C24.2559 5.55185 24.2559 4.11852 23.3662 3.23185ZM2.44675 21.4852L3.77136 17.7785L6.16635 20.1652L2.44675 21.4852ZM7.87898 19.2252L4.70795 16.0718L15.733 5.09852L18.904 8.25852L7.87898 19.2252ZM22.0416 5.10518L20.2286 6.91852L17.0576 3.75852L18.8705 1.95852C19.0244 1.80518 19.2786 1.80518 19.4392 1.95852L22.0416 4.55185C22.1419 4.65185 22.162 4.77185 22.162 4.83185C22.162 4.89185 22.1486 5.00518 22.0416 5.10518Z" fill="#009051"/>
</svg>
