<svg width="82" height="82" viewBox="0 0 82 82" fill="none" xmlns="http://www.w3.org/2000/svg">
<path d="M41.3247 0.32129C33.9834 0.32678 26.7806 2.31048 20.4807 6.06186C14.1809 9.81324 9.01899 15.1923 5.54299 21.6282L5.53207 21.6495C1.3336 29.4453 -0.180212 38.3965 1.2227 47.1308C2.62562 55.865 6.86783 63.9003 13.299 70.0048C19.7302 76.1093 27.9953 79.9461 36.8274 80.9269C45.6595 81.9078 54.5711 79.9785 62.1959 75.435C69.8208 70.8915 75.7381 63.9845 79.0407 55.7728C82.3434 47.5611 82.849 38.4979 80.4802 29.9728C78.1114 21.4476 72.9988 13.9309 65.9263 8.57508C58.8538 3.21923 50.2116 0.319801 41.3247 0.32129ZM3.94973 40.7556C3.94782 36.0294 4.85598 31.3467 6.62506 26.9608C7.7413 28.9243 9.20286 30.6723 10.9401 32.1214C12.6508 33.708 13.6997 34.7402 13.6997 35.9034C13.6997 39.4809 16.3102 41.0722 18.2177 42.2339C19.4507 42.9858 20.1997 43.4793 20.1997 43.9903C20.1997 46.4013 17.4084 48.8424 12.0747 48.8424C9.71274 48.8947 7.37953 49.3701 5.18692 50.2459C4.36483 47.1488 3.94898 43.9589 3.94973 40.7556ZM12.0747 52.0772C19.8903 52.0772 23.4497 47.8853 23.4497 43.9903C23.4497 41.6306 21.4899 40.4357 19.9141 39.4754C18.0764 38.3548 16.9497 37.5832 16.9497 35.9034C16.9497 33.2744 15.0216 31.4849 13.157 29.7554C11.1111 27.8575 9.019 25.8828 8.72463 22.5935C11.8365 17.065 16.3147 12.4186 21.7352 9.09428C27.1557 5.76998 33.3391 3.87782 39.6997 3.597V34.1091C39.245 36.2024 37.4906 41.4011 34.3106 42.4559C27.6884 44.6529 26.6997 49.4268 26.6997 52.0772C26.7698 55.5031 28.0949 58.7856 30.4259 61.3075C31.5182 63.1272 32.373 65.078 32.9697 67.1128C33.5514 68.847 34.2279 70.5483 34.9962 72.209C36.0938 74.2713 37.7156 76.0111 39.6997 77.2548V77.9142C32.292 77.5841 25.1495 75.0724 19.1777 70.6975C13.2059 66.3225 8.67362 60.2812 6.15544 53.3396C8.03432 52.5619 10.0407 52.134 12.0747 52.0772ZM42.9497 36.1806C43.9002 36.5152 44.7231 37.1348 45.3052 37.9541C45.8872 38.7734 46.1997 39.7521 46.1997 40.7556C46.1997 41.759 45.8872 42.7377 45.3052 43.557C44.7231 44.3764 43.9002 44.9959 42.9497 45.3305V36.1806ZM39.6997 73.1464C38.9708 72.4576 38.3636 71.6516 37.9033 70.7622C37.1955 69.2171 36.5704 67.6357 36.0308 66.0246C34.7406 62.4305 33.8741 60.1656 32.7236 59.0205C30.9918 57.1123 30.0073 54.6479 29.9497 52.0772C29.9497 48.9159 31.7636 46.7109 35.3389 45.5247C37.1161 44.8667 38.6413 43.6704 39.6997 42.1044V73.1464ZM42.9497 77.9141V69.7863C48.383 69.4898 53.6251 67.6894 58.0859 64.5879C62.5467 61.4864 66.049 57.207 68.1983 52.2315C70.3476 47.2561 71.0587 41.7822 70.2514 36.4262C69.444 31.0703 67.1504 26.0451 63.6288 21.9164C63.3498 21.5893 62.9516 21.3858 62.5218 21.3509C62.0921 21.316 61.666 21.4524 61.3373 21.7301C61.0085 22.0079 60.8042 22.4042 60.7691 22.8319C60.734 23.2597 60.871 23.6838 61.1501 24.0109C64.2705 27.6716 66.3064 32.124 67.0302 36.8703C67.7541 41.6166 67.1373 46.4697 65.2488 50.8871C63.3603 55.3045 60.2746 59.1121 56.3366 61.8841C52.3986 64.6561 47.7636 66.2833 42.9497 66.5837V58.4686C46.2514 58.1794 49.4049 56.9726 52.0507 54.9857C52.2219 54.8584 52.3662 54.6987 52.4753 54.5158C52.5844 54.3329 52.6562 54.1303 52.6865 53.9198C52.7168 53.7092 52.7051 53.4947 52.652 53.2887C52.5989 53.0826 52.5055 52.889 52.3771 52.719C52.2487 52.5489 52.0879 52.4057 51.9038 52.2976C51.7197 52.1895 51.516 52.1186 51.3044 52.089C51.0928 52.0594 50.8773 52.0716 50.6704 52.125C50.4636 52.1784 50.2693 52.2719 50.0988 52.4002C48.0154 53.9662 45.5451 54.9417 42.9497 55.2234V48.6789C44.7847 48.3062 46.4339 47.3139 47.6183 45.8701C48.8028 44.4263 49.4497 42.6195 49.4497 40.7556C49.4497 38.8916 48.8028 37.0848 47.6183 35.641C46.4339 34.1972 44.7847 33.205 42.9497 32.8322V26.2885C45.3637 26.5576 47.6723 27.4208 49.6673 28.8002C51.6622 30.1795 53.2806 32.0316 54.3765 34.1893C55.4723 36.3469 56.0111 38.7422 55.9442 41.159C55.8772 43.5757 55.2067 45.9378 53.9931 48.0321C53.7771 48.4033 53.7182 48.8446 53.8292 49.259C53.9402 49.6734 54.2121 50.0269 54.5849 50.2418C54.9578 50.4567 55.4012 50.5154 55.8176 50.4049C56.234 50.2944 56.5892 50.0239 56.8051 49.6527C58.305 47.0674 59.1269 44.1479 59.1951 41.1633C59.2633 38.1786 58.5756 35.2249 57.1953 32.5744C55.8151 29.9239 53.7867 27.6618 51.2971 25.9967C48.8075 24.3316 45.9369 23.317 42.9497 23.0464V14.9274C47.2564 15.1909 51.4287 16.5208 55.088 18.7963C55.4536 19.0227 55.8944 19.0956 56.3138 18.9989C56.7333 18.9022 57.097 18.6438 57.3253 18.2805C57.5535 17.9171 57.6276 17.4785 57.5313 17.0608C57.4349 16.6432 57.176 16.2806 56.8114 16.0527C52.6343 13.4599 47.8655 11.9621 42.9497 11.6993V3.597C52.5713 4.01226 61.6603 8.10866 68.3209 15.0318C74.9817 21.9549 78.6998 31.1702 78.6998 40.7556C78.6998 50.3409 74.9817 59.5562 68.3209 66.4793C61.6603 73.4025 52.5713 77.4989 42.9497 77.9141Z" fill="white"/>
<path d="M30.6512 27.1948C30.6681 26.6742 30.8225 26.1673 31.0987 25.725C31.5709 25.3327 32.098 25.0111 32.6634 24.7702C33.7422 24.4253 34.6864 23.7546 35.3649 22.8513C36.0434 21.948 36.4226 20.8569 36.4498 19.7294C36.4498 15.8202 34.3154 11.6426 28.3248 11.6426C22.4056 11.6426 20.1998 18.5867 20.1998 22.9642C20.1998 26.9831 22.4326 31.051 26.6998 31.051C27.2186 31.0752 27.7369 30.9926 28.2222 30.8083C28.7074 30.6241 29.1493 30.3422 29.5202 29.9803C29.891 29.6183 30.1829 29.1842 30.3775 28.7049C30.5721 28.2256 30.6653 27.7115 30.6512 27.1948ZM28.3248 14.8773C28.9846 14.7957 29.6544 14.865 30.2832 15.08C30.912 15.295 31.4833 15.65 31.9534 16.1179C32.4235 16.5858 32.7802 17.1544 32.9962 17.7802C33.2122 18.4061 33.2818 19.0727 33.1998 19.7294C33.1998 20.7726 32.7968 21.087 31.2098 21.8767C30.3268 22.2631 29.5131 22.7905 28.801 23.4381C27.9949 24.3484 27.5159 25.4997 27.4394 26.7107C27.4036 27.0629 27.3291 27.4101 27.2172 27.746C27.0522 27.8078 26.8754 27.8318 26.6998 27.8163C24.1291 27.8163 23.4498 24.6424 23.4498 22.9642C23.4498 20.4307 24.6781 14.8773 28.3248 14.8773Z" fill="white"/>
</svg>
