<svg width="64" height="91" fill="none" xmlns="http://www.w3.org/2000/svg"><path d="M6.95 53.715c.019.018.032.04.051.056a27.13 27.13 0 005.475 4.894l-2.702 4.652a31.958 31.958 0 01-2.701-1.949A1.8 1.8 0 004.15 62.94a1.789 1.789 0 00.652 1.207 35.564 35.564 0 003.172 2.27l-1.794 3.09a1.787 1.787 0 00.654 2.448A1.8 1.8 0 009.29 71.3l1.8-3.098a36.101 36.101 0 0014.614 3.915v4.053L15.41 78.736a5.384 5.384 0 00-2.942 1.905 5.355 5.355 0 00-1.14 3.308v.785a5.372 5.372 0 001.58 3.799 5.405 5.405 0 003.81 1.575h21.563a5.405 5.405 0 003.81-1.575 5.372 5.372 0 001.58-3.799v-.785a5.355 5.355 0 00-1.14-3.309 5.383 5.383 0 00-2.942-1.904L29.297 76.17v-4.067a35.967 35.967 0 0020.776-7.888 35.783 35.783 0 0012.134-18.571 35.689 35.689 0 00-1.16-22.133 35.815 35.815 0 00-14.01-17.21L48.82 3.23A1.788 1.788 0 0047.502.558a1.802 1.802 0 00-1.791.878l-1.786 3.076a36.644 36.644 0 00-3.185-1.46 1.801 1.801 0 00-2.334 1.005 1.788 1.788 0 001.01 2.326c.931.368 1.828.786 2.708 1.23l-2.72 4.684A26.816 26.816 0 0027.5 9.498h-.002a27.011 27.011 0 00-18.362 7.237A26.85 26.85 0 00.642 34.504l-.002.007v.006c-.041.614-.093 1.227-.093 1.851A26.686 26.686 0 006.95 53.715zm38.542-32.18a6.945 6.945 0 01-1.82 2.294c-2.01 0-2.883 1.74-3.404 2.781a8.39 8.39 0 01-.437.802c-1.448-.007-2.304-.137-3.536-2.593a6.871 6.871 0 00-3.5-3.488 3.368 3.368 0 01-1.89-1.886 18.637 18.637 0 01-1.506-6.268 23.38 23.38 0 018.895 2.555 23.314 23.314 0 017.198 5.803zm-19.7-8.368a22.635 22.635 0 001.897 7.88 6.871 6.871 0 003.5 3.489 3.368 3.368 0 011.891 1.886c2.118 4.223 4.519 4.572 6.998 4.572 2.01 0 2.883-1.74 3.404-2.781.133-.279.28-.55.444-.812a5.774 5.774 0 003.783-2.658 23.195 23.195 0 012.715 16.088A23.245 23.245 0 0141.87 54.74a23.376 23.376 0 01-15.615 4.882 23.361 23.361 0 01-14.99-6.545c.46-.34.895-.714 1.301-1.116.897-.874 1.336-1.261 2.357-1.261a8.758 8.758 0 004.397-1.085 5.215 5.215 0 012.79-.706c4.719 0 7.188-2.703 7.188-5.374 0-2.672-2.469-5.374-7.188-5.374-.998.02-1.995.092-2.986.215-3.043.322-6.184.649-8.321-1.482A14.136 14.136 0 004.398 33.1a23.273 23.273 0 017.177-13.721 23.402 23.402 0 0114.217-6.212zm-.089 30.367c0 .867-1.26 1.791-3.594 1.791a8.758 8.758 0 00-4.397 1.085 5.215 5.215 0 01-2.79.706 6.503 6.503 0 00-4.871 2.285c-.349.37-.743.695-1.175.965a23.085 23.085 0 01-4.715-13.597 10.895 10.895 0 014.1 2.657c3.353 3.341 7.91 2.859 11.24 2.512.954-.101 1.854-.196 2.608-.196 2.334 0 3.594.924 3.594 1.792zm14.375 40.415v.785c0 .475-.19.93-.527 1.267a1.8 1.8 0 01-1.27.525H16.72a1.8 1.8 0 01-1.27-.525 1.79 1.79 0 01-.527-1.267v-.785a1.787 1.787 0 011.36-1.739L27.5 79.416l11.216 2.794a1.797 1.797 0 011.362 1.739zm5.157-74.544a32.227 32.227 0 0113.772 19.517 32.14 32.14 0 01-3.47 23.611A32.308 32.308 0 0136.724 67.29 32.413 32.413 0 0112.89 65.1l2.707-4.66a26.974 26.974 0 0017.533 2.213 26.913 26.913 0 0015.126-9.112 26.768 26.768 0 006.19-16.503 26.762 26.762 0 00-5.419-16.771c-.01-.019-.027-.033-.038-.052a27.11 27.11 0 00-6.465-6.143l2.71-4.667z" fill="#fff"/><path d="M20.313 30.994a5.687 5.687 0 003.734-1.65 5.653 5.653 0 001.656-3.724c0-6.612-1.41-8.956-5.39-8.956-5.391 0-5.391 3.806-5.391 7.165 0 5.921 2.932 7.165 5.39 7.165zm1.796-5.374a2.095 2.095 0 01-1.797 1.792c-.758 0-1.796 0-1.796-3.583s0-3.583 1.797-3.583c.963 0 1.796 0 1.796 5.374zm9.792 22.052c-.912 1.626-2.292 4.08-.28 6.085a4.01 4.01 0 002.942 1.22 13.278 13.278 0 006.508-2.786l-.993-1.492-1-1.489c-1.028.684-4.152 2.775-4.894 2.096a6.609 6.609 0 01.853-1.882 8.61 8.61 0 001.448-4.1 2.472 2.472 0 011.384-2.389c.151-.064.313-.1.477-.105a.638.638 0 01.462.179c.633.631 2.316 2.31 2.169 3.81a3.625 3.625 0 01-1.895 2.39l.996 1.49.997 1.49a6.948 6.948 0 002.322-2.106 6.921 6.921 0 001.156-2.91c.316-3.188-2.24-5.737-3.204-6.697a4.382 4.382 0 00-4.856-.85 6.069 6.069 0 00-2.67 2.304 6.042 6.042 0 00-.932 3.395 6.457 6.457 0 01-.99 2.347z" fill="#fff"/></svg>