<svg width="180" height="115" viewBox="0 0 180 115" fill="none" xmlns="http://www.w3.org/2000/svg">
<path d="M2.70459 97.7967C9.50602 102.864 16.3075 107.932 23.1089 113C71.9859 111.266 120.863 109.533 169.74 107.799C172.807 81.3266 175.808 54.8544 178.875 28.3821C173.407 24.0479 167.873 19.7136 162.405 15.3794C144.801 14.5792 95.7242 14.5792 49.5811 47.4528C25.9095 64.323 11.2397 83.9938 2.70459 97.7967Z" fill="#EC615B" stroke="#161616" stroke-width="2" stroke-miterlimit="10"/>
<path d="M154.136 92.1291C103.259 93.8628 52.3149 95.5965 1.4375 97.3302C4.17141 72.4583 6.90529 47.5864 9.70588 22.7145C60.9167 19.9805 112.127 17.2466 163.272 14.446C160.204 40.3848 157.204 66.257 154.136 92.1291Z" fill="white" stroke="#161616" stroke-width="2" stroke-miterlimit="10"/>
<path d="M70.8521 18.9134C70.8521 18.18 71.1188 13.0456 75.3863 9.84488C78.9871 7.17765 84.3882 6.64421 88.3224 9.51148C92.2566 12.4454 92.5233 17.2464 92.5233 17.9132C85.2551 18.2466 78.0536 18.58 70.8521 18.9134Z" fill="#EC615B" stroke="#161616" stroke-width="2" stroke-miterlimit="10"/>
<path d="M80.2543 7.11146C79.6542 5.2444 78.9874 1.24356 82.3214 2.24377C82.7215 2.37713 84.5219 2.64386 84.6553 2.97726C85.122 3.71075 84.4552 5.71117 84.3219 6.44466C84.5219 6.24461 84.7886 5.97789 84.9887 5.77785C83.9885 6.11125 82.7215 6.37798 81.7213 5.84453C80.9878 5.44445 80.4544 4.51092 80.8545 3.71075C80.2543 3.71075 79.7209 3.71075 79.1208 3.71075C79.4542 4.11084 79.5208 4.44424 79.3875 4.97768C80.0543 4.97768 80.6544 4.97768 81.3212 4.97768C81.1879 4.5776 81.1212 4.17752 81.1212 3.71075C81.2546 3.17731 81.1879 3.04394 80.7878 3.31067C80.9878 3.64407 81.1212 3.97747 81.1879 4.31088C81.1879 4.64428 81.1878 4.97768 81.0545 5.2444C81.7213 5.2444 82.3214 5.2444 82.9882 5.2444C82.7215 4.64428 82.5215 3.1773 82.1214 4.44424C81.9214 4.97768 82.1214 5.77785 82.2547 6.3113C82.9215 6.11126 83.5217 5.97789 84.1885 5.77785C83.8551 4.911 83.0549 3.11063 83.9885 2.37714C83.5884 2.31046 83.1883 2.24377 82.7882 2.24377C83.3883 2.97726 83.5884 3.84411 83.3883 4.77764C83.9218 4.64428 84.5219 4.51092 85.0553 4.31088C84.5886 3.77743 84.7886 3.1773 85.1887 2.77722C84.7219 2.77722 84.2552 2.77722 83.7884 2.77722C84.1218 3.1773 84.1885 3.64407 83.9218 4.11083C83.3216 5.2444 85.0553 6.24461 85.6555 5.11104C86.3223 3.77743 86.1889 2.5105 85.2554 1.37693C84.922 0.976845 84.1885 1.04353 83.8551 1.37693C82.5882 2.57718 82.5881 4.44424 83.7217 5.77785C84.1885 6.3113 85.2554 6.04457 85.3887 5.31109C85.7221 3.64407 85.322 2.1771 84.2552 0.843481C83.9884 0.510078 83.3883 0.443399 83.0549 0.710122C81.1878 2.11042 81.5213 4.44424 82.3214 6.37798C82.7882 7.51155 84.5886 7.11147 84.2552 5.84453C83.9218 4.77764 84.5219 3.71075 83.7884 2.71054C83.3883 2.1771 82.7215 1.71033 82.0547 1.77701C79.8542 1.77701 80.6544 4.5776 81.1212 5.84453C81.4546 6.71138 82.7882 6.91143 83.0549 5.84453C83.455 4.2442 83.0549 1.57697 81.1212 1.17688C78.7207 0.71012 79.1875 4.17752 79.4542 5.51113C79.7209 6.51134 81.1212 6.44466 81.3879 5.51113C81.6546 4.51092 81.5212 3.57739 80.9211 2.71054C80.521 2.1771 79.5875 1.97706 79.1874 2.71054C78.0539 5.04437 79.5875 7.57823 82.0547 8.045C83.1216 8.24504 85.122 8.24504 85.9889 7.44487C86.8557 6.57802 86.8557 3.91079 86.7223 2.77722C86.589 1.51028 85.7888 1.04352 84.6553 0.776797C83.255 0.510074 81.8547 -0.290095 80.3877 0.109989C77.1203 1.1102 77.5871 5.11104 78.3873 7.57823C78.7207 8.84516 80.6544 8.31172 80.2543 7.11146Z" fill="#161616"/>
<path d="M137.332 79.5263C96.9906 80.7933 56.5821 82.0602 16.2402 83.3271C17.5072 66.7903 18.7741 50.1868 20.041 33.65C60.3829 31.983 100.791 30.2493 141.133 28.5823C139.866 45.5192 138.599 62.5228 137.332 79.5263Z" fill="white" stroke="#161616" stroke-width="2" stroke-miterlimit="10"/>
<path d="M41.7794 45.7859C41.7794 46.7861 41.7794 47.7863 41.2459 48.3864C40.3791 49.3199 38.9121 48.4531 35.7115 48.3864C32.2441 48.3864 30.6437 49.3866 29.7102 48.3864C29.1767 47.7863 29.1768 46.7861 29.1768 45.7859C29.1768 42.2518 31.9773 39.3845 35.5114 39.3845C38.9121 39.3845 41.7794 42.2518 41.7794 45.7859Z" fill="#161616" stroke="#161616" stroke-width="2" stroke-miterlimit="10"/>
<path d="M119.862 43.8523C119.862 44.8525 119.862 45.8527 119.329 46.4528C118.462 47.3864 116.995 46.5195 113.795 46.4528C110.327 46.4528 108.727 47.453 107.793 46.4528C107.26 45.8527 107.26 44.8525 107.26 43.8523C107.26 40.3182 110.06 37.4509 113.594 37.4509C117.062 37.4509 119.862 40.3182 119.862 43.8523Z" fill="#161616" stroke="#161616" stroke-width="2" stroke-miterlimit="10"/>
<path d="M65.2508 62.1685C66.1176 58.0343 68.5181 53.2333 73.5859 53.9001C77.9868 54.5002 80.0539 58.6344 80.454 62.6352C80.5874 63.9022 78.5869 63.9022 78.4536 62.6352C78.1869 59.5013 76.4532 55.9005 72.7857 55.8338C69.1183 55.7671 67.7847 59.8347 67.1845 62.7019C66.9178 63.9689 64.984 63.4354 65.2508 62.1685Z" fill="#161616"/>
<path d="M27.3099 55.0544C31.8441 53.6541 36.3784 53.3874 41.0461 54.3209C41.9796 54.521 42.3797 53.054 41.4462 52.854C36.5118 51.8538 31.7108 52.1205 26.9097 53.5875C25.9762 53.8542 26.3763 55.3212 27.3099 55.0544Z" fill="#161616"/>
<path d="M28.1765 58.3219C31.6439 57.3884 35.178 57.1883 38.7788 57.6551C39.7123 57.7885 39.7123 56.2548 38.7788 56.1215C35.0447 55.6547 31.4439 55.8547 27.7765 56.8549C26.8429 57.1216 27.243 58.5886 28.1765 58.3219Z" fill="#161616"/>
<path d="M106.393 52.3871C111.394 50.9868 116.329 51.6536 121.33 52.7205C122.263 52.9205 122.663 51.4535 121.73 51.2535C116.462 50.1866 111.261 49.4531 105.993 50.9201C105.06 51.1868 105.46 52.6538 106.393 52.3871Z" fill="#161616"/>
<path d="M108.26 55.588C112.527 55.1879 116.795 55.2546 120.996 55.788C121.929 55.9214 121.929 54.3877 120.996 54.2544C116.728 53.7209 112.527 53.6542 108.26 54.0543C107.26 54.1877 107.26 55.7213 108.26 55.588Z" fill="#161616"/>
<path d="M129.864 75.9921C129.264 75.392 129.531 74.4585 130.264 74.1251C131.065 73.725 132.065 74.0584 132.532 74.7252C132.998 75.392 132.798 76.1255 131.998 76.3255C131.265 76.5256 130.531 76.3256 129.798 76.1255C128.864 75.8588 128.464 77.3257 129.398 77.5925C130.664 77.9926 132.398 78.1926 133.465 77.1924C134.732 76.1255 134.399 74.3251 133.265 73.3249C132.131 72.3247 130.264 72.1247 128.997 73.1249C127.797 74.1251 127.664 75.9921 128.731 77.059C129.531 77.7925 130.598 76.7256 129.864 75.9921Z" fill="#161616"/>
<path d="M20.0413 79.7931C20.0413 79.0596 20.108 78.2595 20.9081 77.9927C21.5082 77.7927 22.1084 78.0594 22.3084 78.5929C22.8419 79.9265 21.0415 80.86 20.2413 79.7264C19.7079 78.9263 18.3743 79.6598 18.9744 80.4599C19.7079 81.5268 21.1082 81.9936 22.3751 81.5268C23.642 80.9934 24.2422 79.5264 23.8421 78.1928C23.442 76.8591 22.0417 76.1924 20.7081 76.4591C19.1077 76.7925 18.5076 78.2595 18.5743 79.7264C18.5743 80.7266 20.108 80.7266 20.0413 79.7931Z" fill="#161616"/>
<path opacity="0.31" d="M25.2424 22.1809C63.6505 24.7814 102.059 27.3153 140.467 29.9158C139 46.0525 137.533 62.256 136.066 78.3927C96.3908 80.3264 56.7158 82.2602 16.9741 84.1939C15.5738 88.3281 14.2401 92.4623 12.8398 96.5965C59.8497 95.1295 106.926 93.6626 153.936 92.1956C156.87 66.5902 159.804 40.9181 162.738 15.3127C116.928 17.5799 71.1188 19.9137 25.2424 22.1809Z" fill="#666666"/>
<path opacity="0.28" d="M141.267 27.4487C140.066 44.719 138.866 61.9893 137.666 79.2596C74.1192 80.9933 42.3125 82.6603 42.3125 84.194C42.3125 85.861 77.0532 87.3947 146.468 88.8617C144.801 68.3907 143.067 47.9197 141.267 27.4487Z" fill="#666666"/>
<path opacity="0.11" d="M27.1763 82.527C65.0509 64.7232 102.859 46.8528 140.733 29.0491C139.333 45.5859 138 62.1227 136.599 78.6595C100.125 79.9931 63.6506 81.2601 27.1763 82.527Z" fill="#666666"/>
</svg>
