<svg xmlns="http://www.w3.org/2000/svg" viewBox="0 0 1317 144"><path d="M212.6 89.6c-54.2 36-106.4 38.7-217.2 45.7 0 0 55.3 8.3 90.8 7.8 30.2-.5 47.5 2.1 77.2-7.8 26.5-8.8 39.4-34.7 66.2-36 28-1.4 42 25.3 69.7 32.1l1.2.3c31.9 7.8 51.3 12.6 83.1-.3 36.2-14.7 48.9-72.9 85.8-77.8 38-5 54.7 55.9 92.8 58.3 21.1 1.4 32.6-9.7 53.7-12.6 32-4.5 50.1-1.5 82.2 0 56.5 2.6 88.3 30.6 144.4 18.5 38.8-8.4 58.3-42.5 97.3-44.7 39.8-2.3 60.6 40.7 100.3 35 21.6-3.1 32.6-19.1 54.2-22.4 28.6-4.4 44.5 12.5 73.2 13.6 58.7 2.2 149-39.9 149-39.9S1193.1-33 1116.9 12.7c-76.2 45.7-73.2 88.5-100.3 86.5-27.1-1.9-62.2-63.2-87.3-60.3-25.1 2.9-42.4 35.2-71.2 39.9-34 5.5-52.2-26.9-86.3-25.3-29.3 1.5-44.6 20.6-73.8 25.4-26.7 4.4-41.9-3.3-68.7 0-30.2 3.8-46.7 27-76.7 20.4-38.7-8.5-57.7-85.6-90.3-81.7-32.6 3.9-53.7 91-119.9 101.1-66.1 10.1-75.7-65.1-129.8-29.1z" fill="#5222d0"/></svg>