<svg width="35" height="34" viewBox="0 0 35 34" fill="none" xmlns="http://www.w3.org/2000/svg">
<path fill-rule="evenodd" clip-rule="evenodd" d="M33.737 9.68114C33.149 10.3049 32.183 10.3049 31.595 9.68114L27.689 5.64748V32.4693C27.689 33.3009 27.017 33.9663 26.177 33.9663C25.337 33.9663 24.665 33.3009 24.665 32.4693V5.64748L20.759 9.68114C20.171 10.3049 19.205 10.3049 18.617 9.68114C18.029 9.05738 18.029 8.05936 18.617 7.43559L24.959 0.823714C24.959 0.823714 24.959 0.823714 25.001 0.78213L25.085 0.698961C25.337 0.407872 25.715 0.241535 26.135 0.241535C26.555 0.241535 26.933 0.407872 27.227 0.698961L33.695 7.43559C34.325 8.05936 34.325 9.05738 33.737 9.68114ZM9.377 33.3425L9.25099 33.4673C8.99899 33.7584 8.621 33.9247 8.201 33.9247C7.781 33.9247 7.403 33.7584 7.109 33.4673L0.640997 26.7306C0.052997 26.1069 0.052997 25.1089 0.640997 24.4851C1.229 23.8613 2.195 23.8613 2.783 24.4851L6.689 28.5188V1.69698C6.689 0.865298 7.361 0.199951 8.201 0.199951C9.041 0.199951 9.713 0.865298 9.713 1.69698V28.5188L13.619 24.4851C14.207 23.8613 15.173 23.8613 15.761 24.4851C16.349 25.1089 16.349 26.1069 15.761 26.7306L9.377 33.3425Z" fill="#009051"/>
</svg>
