<svg width="50" height="60" fill="none" xmlns="http://www.w3.org/2000/svg"><path d="M25 4.2a10.12 10.12 0 110 20.24A10.12 10.12 0 0125 4.2zM25 0a14.32 14.32 0 1014.32 14.32A14.342 14.342 0 0025 0zm7.117 36.997a13.189 13.189 0 0113.188 13.21v2.328a3.33 3.33 0 01-3.308 3.33H8.003a3.33 3.33 0 01-3.308-3.33v-2.372a13.188 13.188 0 0113.21-13.166h14.233-.021zm.021-4.179H17.905a17.41 17.41 0 00-12.317 5.05A17.41 17.41 0 00.495 50.162v2.329A7.486 7.486 0 008.003 60h33.994a7.508 7.508 0 007.508-7.508v-2.329a17.41 17.41 0 00-5.093-12.296 17.41 17.41 0 00-12.295-5.092l.021.043z" fill="#009051"/></svg>