<svg width="621" height="436" fill="none" xmlns="http://www.w3.org/2000/svg"><path d="M421.038 80.442c.078 1.204.116 2.408.194 3.573 0 .233.155.543.427.543 32.68 4.505 65.632.7 98.429.777 9.276 0 18.513.35 27.75 1.243.233.039.505-.194.544-.427.31-1.593.66-3.185.97-4.777.155-.738-.97-1.048-1.125-.31-.311 1.592-.66 3.184-.971 4.776.194-.155.388-.272.544-.427-32.486-3.184-65.089.815-97.653.116-9.431-.194-18.862-.815-28.216-2.097.155.194.271.389.427.544-.078-1.204-.117-2.408-.194-3.573 0-.699-1.165-.699-1.126.04z" fill="#E8E8E8"/><path d="M422.008 81.024h126.49c.738 0 .738-1.165 0-1.165h-126.49c-.737 0-.737 1.165 0 1.165z" fill="#E8E8E8"/><path d="M429.072 80.093c.971-13.942 1.786-27.922 2.989-41.824.155-1.825.349-3.611.66-5.398.116-.66.155-2.02.543-2.563.505-.699 1.591-.699 2.368-.815 1.785-.31 4.774-1.398 6.016.427.349.544.426 1.67.543 2.33.233 1.165.388 2.33.504 3.495.621 6.835-.271 13.786-.776 20.62l-1.746 23.766c-.039.738 1.125.738 1.164 0 .854-11.339 1.785-22.64 2.484-33.979.311-5.203.466-10.524-.815-15.65-.349-1.436-.893-2.64-2.523-2.796-2.484-.194-5.356.66-7.762 1.165-.194.04-.35.233-.388.389-2.058 8.038-1.98 16.698-2.562 24.93-.621 8.622-1.203 17.282-1.824 25.903-.078.737 1.086.737 1.125 0z" fill="#E8E8E8"/><path d="M443.51 45.026a888.382 888.382 0 0014.982 35.416c.311.699 1.32.078 1.009-.582a897.722 897.722 0 01-14.865-35.145c-.272-.699-1.397-.388-1.126.311zm1.01-6.252c.97-2.757 3.959-4.272 6.753-3.495.737.194 1.048-.932.311-1.126-3.416-.971-7.026.97-8.19 4.31-.233.738.893 1.01 1.126.31z" fill="#E8E8E8"/><path d="M451.273 35.512c7.685 14.912 15.331 29.863 23.016 44.775.349.66 1.358.077 1.009-.583-7.685-14.912-15.331-29.863-23.016-44.775-.349-.699-1.358-.116-1.009.583z" fill="#E8E8E8"/><path d="M471.494 25.493c1.242 18.057 2.484 36.115 3.688 54.172.038.738 1.203.738 1.164 0a25257.053 25257.053 0 01-3.687-54.172c-.039-.738-1.203-.738-1.165 0z" fill="#E8E8E8"/><path d="M472.503 26.114c1.98-1.786 4.658-1.786 7.142-1.36 1.009.156 2.096.35 3.066.7 1.785.66 1.514 2.291 1.591 3.883.233 5.553.427 11.107.66 16.66.427 11.223.893 22.484 1.32 33.707.039.738 1.203.738 1.164 0-.543-13.436-1.048-26.873-1.591-40.27-.117-3.34-.272-6.718-.388-10.058-.078-1.709.155-3.806-1.63-4.738-1.863-.97-4.736-1.32-6.831-1.281-2.019.039-3.804.582-5.279 1.942-.582.466.233 1.32.776.815zm-20.298 8.737c3.687.233 7.296 1.32 10.828 2.33 3.26.932 6.443 2.097 9.199 4.117.621.427 1.203-.583.582-1.01-2.872-2.058-6.132-3.262-9.509-4.233-3.648-1.048-7.336-2.097-11.139-2.369-.738-.077-.738 1.088.039 1.165z" fill="#E8E8E8"/><path d="M485.661 32.794c1.708-.427 3.609-.855 5.395-.505 2.639.544 3.182 2.873 3.299 5.242.194 4.777.271 9.514.388 14.291.233 9.398.349 18.795.388 28.193 0 .738 1.164.738 1.164 0a1380.335 1380.335 0 00-.504-33.59l-.233-8.117c-.078-1.786-.039-3.767-1.126-5.281-2.018-2.835-6.171-2.136-9.043-1.398-.776.233-.466 1.359.272 1.165z" fill="#E8E8E8"/><path d="M494.161 26.658v10.446c0 .738 1.164.738 1.164 0V26.658c0-.738-1.164-.738-1.164 0z" fill="#E8E8E8"/><path d="M495.868 27.085c.311.116.66.233.971.35.039.271.077.543.116.854.078.62.078 1.281.155 1.941.078 1.01.156 2.058.233 3.068.156 2.175.272 4.388.388 6.563a522 522 0 01.621 13.514c.35 8.893.466 17.786.466 26.678 0 .738 1.165.738 1.165 0a729.94 729.94 0 00-.738-33.24 757.614 757.614 0 00-.97-16.194c-.078-1.32.155-3.728-1.048-4.66-.815-.622-1.941-.389-2.368.543-.271.7.699 1.282 1.009.583zM438.659 86.15c1.203 2.02 2.367 5.049 4.308 6.486 1.902 1.437 4.231.155 6.326.893.699.233 1.01-.893.311-1.126-1.863-.66-4.037.388-5.705-.66-1.902-1.165-3.105-4.31-4.231-6.214-.388-.621-1.397-.039-1.009.622z" fill="#E8E8E8"/><path d="M450.846 86.655c-.155 2.02-.776 3.845-1.785 5.554-.389.66.621 1.242 1.009.582 1.164-1.903 1.785-3.96 1.94-6.136.078-.737-1.086-.737-1.164 0z" fill="#E8E8E8"/><path d="M447.547 87.626a260.77 260.77 0 001.087 5.36c.155.737 1.281.426 1.125-.312a260.878 260.878 0 00-1.086-5.359c-.156-.737-1.281-.427-1.126.311z" fill="#E8E8E8"/><path d="M448.944 87.588c.078 0 .156.038.233.077.117.233.117.466.078.7-.039.271-.155.543-.233.815-.155.543-.194 1.048-.039 1.592.233.738 1.242.427 1.126-.31-.194-1.05-.039-2.098.388-3.069-.388-.038-.776-.116-1.126-.155-.116 1.204-.194 2.447-.31 3.65-.078.738 1.086.738 1.164 0 .117-1.204.194-2.446.311-3.65.077-.699-.932-.699-1.126-.155-.505 1.204-.582 2.446-.388 3.689.388-.117.737-.194 1.126-.31-.35-1.166 1.009-2.603-.156-3.651-.698-.622-1.824-.389-2.096.505-.31.699.815 1.01 1.048.272zm60.819-8.506c-.349-1.436-.504-2.834-.388-4.31l-.582.583c6.87-.35 13.74-.777 20.609-.932 3.455-.078 6.909-.078 10.363 0 .777 0 1.553.038 2.29.038.776.04 2.368-.233 3.066.117 1.553.738.893 3.728.893 5.087 0 .738 1.165.738 1.165 0 0-1.825.931-5.708-1.553-6.213-1.708-.35-3.726-.156-5.473-.194-2.173-.04-4.347-.078-6.52-.04-8.267.04-16.534.544-24.84.972a.597.597 0 00-.582.582c-.078 1.592.039 3.107.466 4.621.116.738 1.242.427 1.086-.31z" fill="#E8E8E8"/><path d="M514.072 67.394c.465 2.136.815 4.272.97 6.447.039.737 1.203.737 1.164 0a43.57 43.57 0 00-1.009-6.757c-.155-.7-1.281-.389-1.125.31z" fill="#E8E8E8"/><path d="M514.848 68.132c4.696-.389 9.392-.816 14.089-.622 4.424.194 8.888 1.631 13.312 1.165l-.582-.582c-.155 2.058.078 4 .738 5.98.232.7 1.358.388 1.125-.31a13.996 13.996 0 01-.698-5.67c.038-.31-.272-.622-.583-.583-4.424.427-8.888-1.01-13.312-1.165-4.697-.194-9.432.233-14.089.622-.738.038-.738 1.203 0 1.165zm-39.511 120.499v4.855c0 .737 1.164.737 1.164 0v-4.855c0-.737-1.164-.737-1.164 0z" fill="#E8E8E8"/><path d="M475.919 188.243h90.588c.738 0 .738-1.165 0-1.165h-90.588c-.777 0-.777 1.165 0 1.165zm.931 5.359h89.153c.737 0 .737-1.165 0-1.165H476.85c-.737 0-.737 1.165 0 1.165z" fill="#E8E8E8"/><path d="M565.925 188.631v3.379c0 .738 1.165.738 1.165 0v-3.379c0-.737-1.165-.737-1.165 0zm-81.623-13.086c1.009 3.999 1.941 8.038 2.717 12.077.155.738 1.281.427 1.126-.311a187.185 187.185 0 00-2.717-12.077c-.194-.738-1.32-.427-1.126.311zm20.183-.35c-.932 4-1.708 8-2.29 12.039-.116.737 1.009 1.048 1.126.31a140.171 140.171 0 012.289-12.038c.156-.738-.97-1.049-1.125-.311z" fill="#E8E8E8"/><path d="M481.12 173.37c.077 2.019 3.105 1.864 4.58 1.942 3.338.155 6.714-.35 10.052-.544 1.669-.117 3.338-.155 5.007 0 1.358.116 2.833.582 4.153.311 1.475-.311 2.406-1.709 1.552-3.068-.388-.622-1.397-.039-1.009.582 1.087 1.825-2.6 1.243-2.95 1.204a27.046 27.046 0 00-2.484-.233c-1.901-.116-3.842 0-5.744.155-1.242.078-11.954 1.36-11.993-.349 0-.777-1.164-.777-1.164 0z" fill="#E8E8E8"/><path d="M482.478 173.215c-.698-2.175 5.318-1.942 6.327-1.981l5.395-.233c.97-.039 11.061-.31 10.79.427-.233.699.892 1.01 1.125.311 1.164-3.456-11.45-1.942-13.08-1.864-3.027.117-6.404-.155-9.354.427-1.552.311-2.872 1.476-2.328 3.185.233.737 1.358.427 1.125-.272z" fill="#E8E8E8"/><path d="M487.64 169.991c-1.785-.815-3.376-1.98-4.618-3.456-.505-.621-4.076-5.786-1.98-6.097.349-.038.543-.582.349-.854-1.125-1.631-1.591-3.728-2.173-5.592-.66-2.019-1.281-4.039-1.941-6.019-.116-.427-.31-.816-.388-1.243-.194-.815-.31-.815.66-.893 1.048-.078 1.591.738 2.29 1.437a30.737 30.737 0 013.532 4.272c3.92 5.669 6.093 12.349 7.724 18.989.194.738 1.319.427 1.125-.311-2.096-8.465-5.162-17.164-11.372-23.571-.854-.894-2.484-2.952-3.92-2.719-1.087.194-1.397 1.359-1.32 2.33.156 2.175 1.32 4.544 2.019 6.641.776 2.407 1.28 5.203 2.755 7.3.117-.271.233-.582.35-.854-2.562.388-1.087 3.961-.389 5.359 1.475 2.835 3.843 5.01 6.715 6.369.66.233 1.242-.777.582-1.088z" fill="#E8E8E8"/><path d="M488.96 159.352c-.117-4.932-.233-10.058 1.436-14.757.815-2.291 2.057-4.349 3.493-6.291.349-.505.738-1.32 1.281-1.631.388-.621.97-.699 1.708-.194.931-.233 1.397 0 1.397.699.466 1.048.31 2.835.31 3.922 0 2.602-.621 5.009-1.242 7.495-.232.854-.427 1.747-.349 2.602.078 1.009.621 1.786.893 2.718.776 2.641-.582 5.359-1.514 7.767-.931 2.524-1.902 5.048-2.833 7.611-.272.699.854 1.01 1.125.311 1.242-3.34 2.562-6.641 3.726-10.019.815-2.369 1.204-4.427.272-6.757-1.242-3.146.737-6.68 1.009-9.903.155-2.097.505-5.67-.854-7.534-2.949-4.077-7.646 4.621-8.577 6.563-2.64 5.437-2.601 11.534-2.445 17.436.038.738 1.203.738 1.164-.038zm-9.781-9.554c3.843 5.398 6.132 11.883 8.811 17.902.31.699 1.319.078 1.009-.582-2.64-6.058-4.968-12.504-8.811-17.902-.427-.622-1.436-.039-1.009.582z" fill="#E8E8E8"/><path d="M489.891 147.041c.156 2.058.854 3.883 2.135 5.476.466.582 1.281-.233.815-.816a8.525 8.525 0 01-1.785-4.66c-.039-.738-1.203-.738-1.165 0zm5.279-.272c.931-1.398 1.902-2.796 2.833-4.194.427-.621-.582-1.204-1.009-.582-.932 1.398-1.902 2.796-2.833 4.194-.388.621.621 1.203 1.009.582zm11.566-.776c-.97 1.553-2.368 2.757-3.649 4-1.397 1.32-2.794 2.679-4.191 3.999-.544.505.271 1.359.815.816 2.678-2.563 6.055-5.048 8.034-8.233.388-.621-.621-1.204-1.009-.582z" fill="#E8E8E8"/><path d="M506.232 147.546c.077 2.058 3.493 5.864.853 7.106-.349.195-.349.661-.116.932.893 1.088.31 2.719.194 4-.116 1.437 0 2.874-.388 4.272-.699 2.679-3.183 4.272-5.395 5.67-.621.388-.039 1.398.582 1.009 2.678-1.708 5.434-3.65 6.055-6.99.31-1.786.31-3.65.466-5.436.155-1.282.116-2.292-.738-3.301l-.116.932c3.687-1.748-.194-5.709-.272-8.116 0-.816-1.164-.816-1.125-.078z" fill="#E8E8E8"/><path d="M504.368 153.254a87.013 87.013 0 00-6.869 13.553c-.272.699.853 1.01 1.125.311a85.453 85.453 0 016.753-13.281c.389-.66-.621-1.243-1.009-.583zm-18.008 30.251c1.552 2.097 3.687 3.534 6.248 4.078.738.155 1.048-.971.311-1.126-2.251-.466-4.192-1.67-5.55-3.534-.427-.583-1.436 0-1.009.582zm-.66-4.776c3.997 3.068 8.228 7.456 13.351 8.505.738.155 1.048-.971.311-1.126-4.968-1.01-9.16-5.398-13.08-8.388-.582-.466-1.165.543-.582 1.009zm3.066-2.951c2.406 1.98 4.735 4 7.18 5.903 1.048.815 2.135 1.592 3.416 2.097 1.203.504 2.484.737 3.57 1.514.621.427 1.204-.582.583-1.01-.854-.582-1.708-.854-2.64-1.203-1.591-.544-2.872-1.282-4.192-2.33-2.406-1.864-4.735-3.845-7.063-5.787-.621-.466-1.436.35-.854.816zm6.365-.544a19.508 19.508 0 008.073 5.048c.699.233 1.009-.893.31-1.126a18.51 18.51 0 01-7.568-4.776c-.504-.505-1.358.31-.815.854zm28.566 11.3c-.233-.621-.582-1.436-.543-2.097.155-1.708 1.319-1.864 2.445-2.058 1.63-.31 3.338-.349 5.007-.349 2.833-.039 5.705.194 8.538.31 2.834.078 5.628-.077 8.462-.31 1.164-.117 3.221-.583 4.346-.194 1.165.427 1.475 1.009 1.514 2.097.039.854.039 1.708.078 2.601.039.738 1.203.738 1.164 0-.039-1.32.35-3.65-.31-4.893-.621-1.087-2.057-.97-3.144-.97-4.425 0-8.733.66-13.196.466-4.114-.156-8.267-.505-12.343.116-3.338.505-4.191 2.563-3.066 5.67.155.621 1.281.31 1.048-.389z" fill="#E8E8E8"/><path d="M531.925 180.282c.311-.699.583-1.398.893-2.097a9.462 9.462 0 001.048-.155c.466-.039.893 0 1.358-.039 1.009 0 1.98-.039 2.989-.039 2.135-.038 4.23-.038 6.365-.077 1.98-.039 3.998-.039 5.977-.078.505 0 1.009 0 1.514-.039.621 0 .815-.155 1.009.311.233.582-.194 2.213-.272 2.835-.077.737 1.087.737 1.165 0 .077-.932.66-2.874.194-3.728-.388-.699-.97-.583-1.747-.583-3.726 0-7.49.117-11.216.156-1.747.038-3.494.038-5.24.077-1.32 0-2.95-.155-4.153.466-1.397.738-2.057 2.641-.699 3.767.582.505 1.397-.311.815-.777z" fill="#E8E8E8"/><path d="M539.921 175.545c-1.01-1.36 3.221-1.204 3.493-1.243.931-.078 4.114-.66 3.493 1.437-.233.738.892 1.009 1.125.31.272-.932-.038-1.786-.776-2.407-1.281-1.049-2.872-.544-4.386-.466-1.203.039-2.639-.35-3.609.582-.699.622-.893 1.592-.35 2.369.466.583 1.475 0 1.01-.582zm-59.383 18.911a21.172 21.172 0 005.278 5.087c.621.428 1.203-.582.582-1.009-1.863-1.282-3.532-2.835-4.851-4.699-.466-.582-1.475 0-1.009.621z" fill="#E8E8E8"/><path d="M485.661 199.155h3.842c.737 0 1.941.195 2.601-.155.504-.272.659-.893.892-1.359a22.375 22.375 0 012.213-3.534c.465-.582-.35-1.398-.816-.815a24.666 24.666 0 00-1.203 1.592c-.465.738-.776 1.786-1.319 2.446-1.087 1.282-4.619.699-6.21.66-.738 0-.738 1.165 0 1.165z" fill="#E8E8E8"/><path d="M489.969 194.379c.31 1.165.621 2.369.97 3.534.194.738 1.32.427 1.126-.311-.311-1.165-.621-2.369-.971-3.534-.194-.737-1.319-.427-1.125.311zm47.313-.195c.621 1.282 1.28 2.525 2.095 3.69.427.621.971 1.592 1.708 1.941.776.389 1.863.078 2.639 0 1.398-.155 2.795-.272 4.192-.427.738-.078.738-1.243 0-1.165-.931.078-1.863.194-2.794.272-.815.078-2.019.427-2.795.272-2.018-.389-3.26-3.573-4.036-5.204-.35-.66-1.359-.078-1.009.621z" fill="#E8E8E8"/><path d="M547.955 193.214a17.435 17.435 0 00-.66 5.087c.039.738 1.203.738 1.164 0a16.482 16.482 0 01.583-4.777c.233-.699-.893-1.009-1.087-.31z" fill="#E8E8E8"/><path d="M548.459 198.883c1.553-1.475 3.028-3.029 4.464-4.621.504-.543-.311-1.398-.815-.815-1.436 1.592-2.911 3.145-4.464 4.621-.543.505.272 1.32.815.815zM299.206 80.442v32.814c0 .738 1.164.738 1.164 0V80.442c0-.738-1.164-.738-1.164 0z" fill="#E8E8E8"/><path d="M300.137 114.149h41.607c.738 0 .738-1.165 0-1.165h-41.607c-.776 0-.776 1.165 0 1.165zm0-33.125h40.365c.738 0 .738-1.165 0-1.165h-40.365c-.776 0-.776 1.165 0 1.165z" fill="#E8E8E8"/><path d="M340.502 80.442v32.814c0 .738 1.164.738 1.164 0V80.442c0-.738-1.164-.738-1.164 0zm-19.639-.971a2.65 2.65 0 01.272-1.437c.116-.271.582-.97.853-.776.311.194.427 1.087.466 1.398a5.26 5.26 0 01.039 1.747c-.078.738 1.087.738 1.164 0 .078-1.01 0-2.02-.349-2.99-.233-.621-.543-1.36-1.281-1.437-1.591-.194-2.406 2.253-2.328 3.456.038.816 1.203.816 1.164.04zm-19.445 4.738v26.173c0 .738 1.164.738 1.164 0V84.209c0-.738-1.164-.738-1.164 0z" fill="#E8E8E8"/><path d="M302 110.965h36.561c.738 0 .738-1.165 0-1.165H302c-.737 0-.737 1.165 0 1.165z" fill="#E8E8E8"/><path d="M339.493 110.072V83.898c0-.738-1.164-.738-1.164 0v26.174c0 .776 1.164.776 1.164 0z" fill="#E8E8E8"/><path d="M302.311 85.102h35.319c.737 0 .737-1.165 0-1.165h-35.319c-.738 0-.738 1.165 0 1.165zm.194 19.689c4.541-1.36 9.159-2.563 13.662-.466 3.221 1.514 6.016 3.805 9.625 4.465.738.117 1.048-.97.311-1.126-4.114-.776-7.219-3.767-11.139-5.087-4.231-1.398-8.656-.155-12.77 1.087-.698.233-.388 1.36.311 1.127z" fill="#E8E8E8"/><path d="M317.642 104.13c5.55-1.941 11.333-2.64 17.155-2.058.737.078.737-1.087 0-1.165a40.453 40.453 0 00-17.466 2.097c-.699.272-.388 1.398.311 1.126zm1.203-9.01c-.427-.737-.311-1.824.427-2.33.659-.465 1.707-.27 2.173.35.466.66.194 1.71-.543 2.097-.854.428-1.825-.388-1.825-1.242 0-.738-1.164-.738-1.164 0-.039 1.553 1.553 2.873 3.105 2.446 1.436-.388 2.212-2.213 1.591-3.534-.621-1.398-2.484-1.902-3.803-1.203-1.436.776-1.786 2.68-1.009 4.038.427.622 1.397.04 1.048-.621zM507.9 86.073c1.398 1.864 1.669 4.388 3.377 6.019 1.591 1.553 3.493 1.32 5.434.621.698-.233.388-1.36-.311-1.126-1.048.35-2.251.738-3.338.31-.931-.388-1.552-1.242-2.018-2.135-.737-1.437-1.164-2.99-2.135-4.31-.465-.583-1.474 0-1.009.62z" fill="#E8E8E8"/><path d="M516.556 92.247a28.313 28.313 0 004.89-5.436c.427-.622-.582-1.204-1.009-.583a26.03 26.03 0 01-4.697 5.204c-.582.466.233 1.32.816.815zm-2.834-6.601a9.353 9.353 0 01.738 3.96c-.039.738 1.125.738 1.164 0a10.675 10.675 0 00-.893-4.543c-.271-.699-1.281-.116-1.009.583zm-31.089 151.916v15.533c0 .738 1.165.738 1.165 0v-15.533c0-.738-1.165-.738-1.165 0zm-14.166 17.669h41.141c.738 0 .738-1.165 0-1.165h-41.141c-.738 0-.738 1.165 0 1.165zm22.317.971v9.708c0 .738 1.164.738 1.164 0v-9.708c0-.738-1.164-.738-1.164 0z" fill="#E8E8E8"/><path d="M468.079 267.657h36.483c.738 0 .738-1.165 0-1.165h-36.483c-.738 0-.738 1.165 0 1.165zm9.121.971v7.378c0 .738 1.164.738 1.164 0v-7.378c0-.738-1.164-.738-1.164 0zm3.881-188.031c0-1.63-.311-3.689 0-5.28.427-2.253 3.571-1.826 5.395-1.943.737-.038.737-1.203 0-1.165-1.475.078-3.027.078-4.502.311-.66.117-1.242.31-1.63.893-.466.7-.389 1.67-.389 2.486v4.698c-.038.777 1.126.777 1.126 0zM474.25 37.22c3.532-.97 7.064-.737 10.44.622.699.272 1.009-.855.311-1.127-3.571-1.436-7.336-1.63-11.062-.62-.737.232-.427 1.358.311 1.125zm-1.436-3.495c3.105-2.135 6.831-2.524 10.324-1.126.699.272 1.009-.854.31-1.126a11.802 11.802 0 00-11.216 1.243c-.621.427-.039 1.437.582 1.01zM460.2 54.074c-1.242.854-3.61 1.98-3.959 3.611-.155.855.233 1.631.543 2.408.544 1.36 1.087 2.718 1.669 4.078a164.444 164.444 0 007.569 15.572c.349.66 1.358.077 1.009-.583a169.705 169.705 0 01-5.939-11.883 135.74 135.74 0 01-2.755-6.485c-.505-1.281-1.203-2.408-.272-3.728.543-.777 1.941-1.437 2.756-1.98.582-.428 0-1.437-.621-1.01z" fill="#E8E8E8"/><path d="M296.993 244.396c-3.182 2.369-7.025 6.175-8.422 11.612-1.009 4.038-.039 6.407-.388 11.611-.233 3.611-1.165 8.698-4.153 14.756-6.792-1.397-18.203-2.757-31.671.35a73.499 73.499 0 00-19.212 7.417c.737.466 1.746 1.01 3.027 1.359 7.258 1.981 14.904-4.116 15.137-3.689.233.388-8.539 4.505-8.073 8.077.31 2.408 4.619 3.69 9.082 5.049 3.765 1.126 7.336 2.213 12.11 1.67 6.559-.738 11.1-4.039 13.118-5.748a56.57 56.57 0 008.423 3.379c6.636 2.019 15.796 4.815 21.89 1.009 3.959-2.485 5.162-8.31 7.413-19.882 2.717-14.097 3.998-21.164.349-26.95-4.774-7.728-14.593-9.515-18.63-10.02z" fill="#fff" stroke="#161616" stroke-width="3" stroke-miterlimit="10"/><path d="M282.788 282.803c4.696 1.747 8.578 4.932 11.256 9.165.388.621 1.397.038 1.009-.583-2.834-4.505-6.987-7.844-11.955-9.708-.737-.272-1.009.854-.31 1.126zm-24.995 7.65c-4.619.776-8.345 3.883-10.014 8.232-.272.699.854 1.01 1.126.311 1.513-3.961 5.006-6.718 9.198-7.417.738-.117.427-1.243-.31-1.126zm5.433 3.883c-1.668 1.01-3.221 2.175-4.696 3.418-.97.854-2.057 1.864-1.824 3.262.582 3.689 5.007 2.873 7.413 1.941.699-.272.388-1.398-.31-1.126-1.048.388-2.213.893-3.338.854-1.824-.077-3.455-1.825-1.902-3.417 1.475-1.553 3.415-2.796 5.24-3.961.621-.388.038-1.398-.583-.971z" fill="#161616"/><path d="M333.205 196.593c-1.979.66-4.502 1.67-7.335 3.068a47.948 47.948 0 00-5.085 2.873c-3.415 2.175-5.899 4.466-8.732 7.34-3.61 3.689-7.258 7.378-11.605 13.281-3.649 4.97-9.315 12.776-13.391 24.232a76.936 76.936 0 00-3.105 11.261 19.89 19.89 0 015.589-2.213c8.733-1.981 17.117 2.446 25.073 6.602 2.989 1.553 5.356 3.067 6.986 4.116.854-4.194 1.708-8.427 2.562-12.621.738-3.534 1.436-7.106 2.174-10.64 1.125-.971 2.639-2.408 4.308-4.272 3.144-3.573 9.392-10.679 10.246-20.543 1.048-11.378-5.705-20.077-7.685-22.484z" fill="#EC615B"/><path d="M330.915 197.059c-4.153.621-7.723 2.835-10.945 5.398-3.726 2.912-7.219 6.135-10.479 9.553a112.33 112.33 0 00-16.495 21.94c-.389.661.621 1.243 1.009.583 4.424-7.689 9.703-14.834 15.835-21.242a118.954 118.954 0 019.432-8.815c3.532-2.913 7.296-5.631 11.954-6.33.737-.078.427-1.204-.311-1.087zm-1.63 42.406a260.225 260.225 0 01-8.81 8.504c-.544.505.272 1.321.815.816a259.285 259.285 0 008.81-8.505c.505-.543-.31-1.359-.815-.815z" fill="#161616"/><path d="M325.249 244.785c-1.359 7.456-2.678 14.951-4.037 22.407.272-.117.583-.233.854-.35a66.422 66.422 0 00-20.337-9.553c-5.706-1.553-12.964-3.068-17.854 1.243-.544.505.271 1.32.815.815 4.968-4.427 13.002-2.097 18.63-.388 6.482 1.98 12.575 5.009 18.125 8.854.311.194.777 0 .854-.35 1.359-7.456 2.678-14.95 4.037-22.406.155-.699-.971-1.01-1.087-.272z" fill="#161616"/><path d="M293.267 233.407c-4.036 7.883-9.082 15.999-9.431 25.125-.039.738 1.125.738 1.164 0 .35-8.893 5.318-16.815 9.277-24.543.31-.66-.699-1.243-1.01-.582z" fill="#161616"/><path opacity=".4" d="M327.772 218.728c-6.948 13.824-10.713 25.474-12.925 33.629-3.221 11.961-4.347 21.397-12.692 29.242-1.358 1.281-5.356 4.97-11.643 7.262-13.197 4.776-22.977-1.67-31.283 5.164-.932.777-3.687 2.719-3.377 4.932.311 2.097 3.183 3.185 3.61 3.379 3.415 1.32 6.947-.039 11.372-1.825 5.006-2.02 4.463-2.719 6.714-3.107 4.735-.816 6.909 2.175 13.196 4.155 2.678.816 10.596 3.301 16.302 0 4.191-2.446 5.472-7.029 7.491-14.757 1.397-5.242 2.833-12.892 2.6-22.523l4.657 3.612c2.019-16.388 3.998-32.776 5.978-49.163z" fill="#3D3D3D"/><path opacity=".38" d="M325.443 235.542c-5.317 10.058-7.918 18.563-9.315 24.31-2.795 11.534-1.902 16.97-5.706 25.087-4.075 8.815-10.673 14.407-15.253 17.591 2.562.583 8.733 1.67 13.196-1.825 3.144-2.447 3.959-5.942 5.162-11.65a658.084 658.084 0 004.658-23.805l3.609 2.33c1.242-10.64 2.446-21.358 3.649-32.038z" fill="#3D3D3D"/><path d="M332.39 195.816a2775.98 2775.98 0 00-4.075 27.572c-5.123 35.843-9.548 71.065-13.274 105.704.078 1.165.388 3.029 1.553 4.893 1.164 1.903 2.717 2.874 3.454 3.379 7.064 5.048 10.596 7.611 14.167 9.32 17.116 8.271 36.056 7.3 36.056 7.3 3.998-.194 11.955-.699 20.493-4.116.466-.194 3.726-1.709 10.247-4.777 5.899-2.757 6.947-3.3 8.383-4.621 3.416-3.145 4.736-7.029 5.628-9.786 1.902-5.864 1.708-10.834 1.63-12.038 0 0-.388-9.67-.659-66.133-.039-11.495 1.086-28.387 7.141-49.241-6.288-3.068-12.187-5.903-19.29-9.32-4.89-2.369-9.431-4.543-15.952-5.32-1.863-.233-3.532-.311-6.016-.272-10.091.078-18.397 1.631-21.968 2.252-6.947 1.127-16.34 2.835-27.518 5.204z" fill="#EC615B"/><path d="M332.08 197.175a427.866 427.866 0 0136.367-6.135c.544-.078.854-.777.311-1.088-.156-.077-.311-.194-.505-.271-.66-.389-1.242.621-.582 1.009.155.078.31.194.504.272.117-.349.195-.738.311-1.087a417.48 417.48 0 00-36.678 6.174c-.776.156-.466 1.282.272 1.126zm-3.61 20.349a3614.123 3614.123 0 00-11.643 91.491c-.427 3.845-.854 7.65-1.281 11.495-.35 3.34-1.32 7.106-.893 10.446.388 2.951 2.717 4.815 4.852 6.602a77.836 77.836 0 007.335 5.436c10.518 6.796 22.822 10.874 35.32 11.612 14.865.854 29.808-2.952 42.499-10.718.621-.389.039-1.398-.582-1.01-22.201 13.553-50.456 14.096-73.084 1.243a73.57 73.57 0 01-7.529-4.893c-2.446-1.826-6.405-4.311-7.414-7.301-.465-1.437-.233-3.029-.077-4.544.194-1.902.427-3.844.621-5.747.388-3.573.776-7.145 1.203-10.718 1.669-14.562 3.377-29.086 5.24-43.61 2.095-16.504 4.269-33.008 6.598-49.473.077-.738-1.048-1.049-1.165-.311zm57.171-29.242c6.831 1.36 13.235 4.505 19.6 7.185 6.249 2.64 13.197 4.776 18.708 8.815.621.427 1.203-.583.582-1.01-5.395-3.961-12.187-6.058-18.28-8.621-6.599-2.757-13.235-6.058-20.299-7.495-.738-.155-1.048.971-.311 1.126z" fill="#161616"/><path d="M416.07 254.144c-.621 16.348-1.242 32.697-.66 49.007.272 7.922 1.514 16.155.039 24.038-1.242 6.485-4.89 12.97-11.372 15.378-.698.272-.388 1.398.311 1.126 10.324-3.844 13.002-15.611 12.847-25.474-.078-6.68-.66-13.359-.815-20.077-.156-6.835-.078-13.631.038-20.465.156-7.845.466-15.689.738-23.533.077-.777-1.087-.777-1.126 0z" fill="#161616"/><path opacity=".38" d="M410.481 244.94a85.308 85.308 0 01-10.246 22.485c-22.24 34.212-62.954 41.047-73.356 42.483 13.973 1.476 28.1 3.068 42.383 4.777 15.758 1.864 31.322 3.844 46.653 5.864-.97-17.359-.97-31.649-.738-41.862.427-21.126 1.941-38.213-.815-38.756-.659-.156-1.824.582-3.881 5.009z" fill="#3D3D3D"/><path opacity=".42" d="M415.255 257.639a161.666 161.666 0 01-6.676 16.659c-4.424 9.514-8.655 18.679-14.127 24.31-15.292 15.727-45.178 8.931-45.256 10.019-.039.621 10.907 2.369 66.176 7.456 0-19.495-.039-38.95-.117-58.444z" fill="#3D3D3D"/><path d="M484.885 417.748A1645121.867 1645121.867 0 0057.52 360.702c42.034-24.387 84.107-48.775 126.141-73.162 128.508 12.66 257.055 25.358 385.563 38.018-28.139 30.717-56.239 61.473-84.339 92.19z" fill="#fff" stroke="#161616" stroke-width="3" stroke-miterlimit="10"/><path d="M56.123 364.003c142.791 18.951 285.582 37.901 428.335 56.852m-1.717.854c29.924-31.649 59.849-63.337 89.734-94.986" stroke="#161616" stroke-width="8" stroke-miterlimit="10"/><path d="M434.079 338.528c-14.555 11.378-28.799 23.106-42.81 35.144-.583.505.271 1.321.815.816a1231.385 1231.385 0 0142.81-35.144c.582-.427-.233-1.282-.815-.816z" fill="#161616"/><path d="M391.812 374.294c4.58.971 9.237.971 13.934 1.009 5.278.078 10.246.622 15.292 2.097 9.47 2.758 18.746 4.583 28.644 4.35.737 0 .737-1.165 0-1.165-5.085.116-10.169-.194-15.215-1.01-4.735-.777-9.237-2.175-13.856-3.456-4.425-1.243-8.849-1.825-13.468-1.903-5.046-.116-10.091.039-15.059-1.009-.699-.195-1.009.931-.272 1.087zm43.121-34.911a292.056 292.056 0 0145.605 7.339c.737.194 1.048-.932.31-1.126-15.059-3.689-30.429-6.136-45.915-7.378-.737-.078-.737 1.087 0 1.165z" fill="#161616"/><path d="M450.574 381.051c10.829-10.718 21.231-21.902 31.089-33.552.466-.583-.349-1.398-.815-.816-9.858 11.611-20.26 22.795-31.089 33.552-.543.544.272 1.359.815.816zm-45.216-11.379c13.351-1.631 26.858.039 39.394 4.932.699.272 1.009-.854.311-1.126a82.412 82.412 0 00-39.705-4.971c-.738.078-.738 1.243 0 1.165zm20.221-4.271c8.228.621 16.34 1.903 24.374 3.805.738.195 1.048-.932.311-1.126a155.491 155.491 0 00-24.685-3.844c-.776-.039-.737 1.126 0 1.165zm-6.171-8.582a149.677 149.677 0 0136.6 5.359c.737.194 1.048-.932.311-1.126a151.943 151.943 0 00-36.911-5.398c-.738 0-.738 1.165 0 1.165zm15.369-3.573a287.313 287.313 0 0119.872 3.495c.738.155 1.048-.971.311-1.126a287.313 287.313 0 00-19.872-3.495c-.738-.117-1.048 1.009-.311 1.126zm-8.499 26.057a1055.737 1055.737 0 01-7.142 10.912c-.233.35.078.932.505.894a163.281 163.281 0 0157.248 3.65c.738.194 1.048-.932.311-1.126a165.066 165.066 0 00-57.559-3.728c.155.31.349.582.504.893 2.368-3.65 4.735-7.301 7.142-10.912.427-.622-.582-1.204-1.009-.583z" fill="#161616"/><path d="M473.202 357.246l22.434-.466a9.163 9.163 0 01-.544-.738c-5.162 12.31-10.363 24.581-15.525 36.892-.271.699.854 1.009 1.126.31 5.162-12.31 10.363-24.581 15.525-36.891.155-.35-.233-.738-.543-.738l-22.434.466c-.776.039-.776 1.204-.039 1.165zm-28.372 28.931c1.979-.388 3.959-.466 5.977-.311.737.039.737-1.126 0-1.165a24.39 24.39 0 00-6.288.35c-.737.116-.427 1.242.311 1.126zm11.023.116c6.093.233 12.187.816 18.242 1.748.737.116 1.048-1.01.31-1.126a156.174 156.174 0 00-18.552-1.787c-.738-.038-.738 1.127 0 1.165zm.349-7.3h4.347c.737 0 .737-1.165 0-1.165h-4.347c-.737 0-.737 1.165 0 1.165z" fill="#161616"/><path d="M465.245 378.876c4.774.116 9.51.582 14.245 1.359.737.117 1.048-1.01.31-1.126a113.853 113.853 0 00-14.555-1.398c-.737 0-.737 1.165 0 1.165zm-.737-6.64c5.434.077 10.829.388 16.224 1.009.737.078.737-1.087 0-1.165a151.11 151.11 0 00-16.224-1.009c-.738-.039-.738 1.126 0 1.165zm-36.445 12.892c2.6.078 5.162-.233 7.724-.854.737-.194.427-1.32-.311-1.126a26.49 26.49 0 01-7.413.815c-.737 0-.737 1.165 0 1.165zm18.436-60.852c-1.009 1.243-2.174 3.767-.97 5.282.737.932 2.134.737 3.182.776 1.902.078 3.804.194 5.706.272 7.723.35 15.408.738 23.132 1.087.737.039.737-1.126 0-1.165-5.706-.271-11.372-.543-17.078-.815-2.794-.117-5.55-.272-8.344-.388-1.359-.078-2.795 0-4.153-.195-1.009-.155-1.747-.194-1.708-1.436.039-.971.466-1.864 1.048-2.602.466-.583-.349-1.437-.815-.816z" fill="#161616"/><path d="M447.547 325.752c6.52.233 13.041.427 19.562.66 3.182.117 6.404.194 9.586.311 2.872.116 5.9.311 7.957 2.524.504.544 1.319-.272.815-.815-1.553-1.709-3.649-2.369-5.9-2.68-3.338-.427-6.792-.349-10.169-.466-7.296-.233-14.593-.505-21.851-.738-.737.039-.737 1.204 0 1.204z" fill="#161616"/><path d="M477.161 331.732c2.988.039 5.822-.893 8.228-2.679.582-.427 0-1.437-.582-1.01-2.251 1.67-4.813 2.563-7.646 2.524-.776 0-.776 1.165 0 1.165z" fill="#161616"/><path d="M478.092 325.752a4.483 4.483 0 00-1.824 4.971c.194.699 1.32.427 1.126-.311-.388-1.359.077-2.874 1.281-3.689.621-.389.038-1.398-.583-.971z" fill="#161616"/><path d="M194.878 186.146c-.971-2.019-3.726-2.174-5.201-.66-1.592 1.631-2.329 4.777-2.174 6.99.349 4.466 4.696 6.563 5.861 10.563.543 1.825 3.338 2.408 4.269.544 1.553-3.068 3.726-5.709 5.667-8.505 1.708-2.485 4.308-6.33 3.377-9.514-.389-1.359-1.592-2.524-3.067-2.68-1.785-.194-3.027.894-4.075 2.214-1.048 1.359-1.979 2.757-2.756 4.272-.698 1.32-1.242 2.873-2.6 3.611 1.125.466 2.29.932 3.415 1.398-.504-1.67-1.009-3.34-1.474-4.971-1.281.738-2.601 1.515-3.882 2.253a4.96 4.96 0 006.831.582c.971-.776 1.514-1.825 2.174-2.835.31-.466.582-.893 1.048-1.203.31-.233.698-.389 1.086-.505.777-.039.738-.117-.077-.233-.388-.66-.776-1.359-1.165-2.02v.272c.583-.738 1.126-1.514 1.708-2.252-.077.039-.155.039-.233.078-2.833.893-1.63 5.397 1.242 4.504.078-.039.156-.039.233-.077 1.048-.311 1.63-1.204 1.708-2.253v-.272c.039-.815-.505-1.592-1.164-2.019-1.941-1.243-4.813-.039-6.404 1.243-.893.738-1.514 1.592-2.135 2.563-.388.621-.815 1.941-1.553 1.087-1.552-1.747-4.541.117-3.881 2.252.505 1.67 1.009 3.34 1.475 4.971a2.35 2.35 0 003.415 1.398c1.98-1.048 3.067-2.874 4.037-4.815.582-1.126 1.164-2.214 1.902-3.223.116-.195 1.164-1.282 1.125-1.476-1.009-.854-1.513-.816-1.591.116-.078.311-.194.583-.31.855-1.941 4.699-5.822 8.271-8.112 12.776 1.436.194 2.833.388 4.269.544-.737-2.525-2.406-4.35-3.998-6.369-.659-.854-1.397-1.786-1.63-2.835-.155-.738-.077-1.398.117-2.097.116-.466.271-.893.465-1.32.66-.932 0-1.165-1.94-.66 1.281 2.757 5.278.388 3.998-2.292z" fill="#FFD600"/><path d="M197.4 198.884c3.416-4.117 6.404-8.505 8.888-13.204 1.398-2.64-2.639-5.009-4.036-2.369-2.29 4.389-4.968 8.505-8.151 12.272-1.902 2.291 1.359 5.592 3.299 3.301z" fill="#FFD600"/><path d="M206.599 132.983c-.621 4.078-.466 8.078.621 12.078.582 2.174 3.959 1.242 3.377-.932-.893-3.34-1.165-6.796-.621-10.214.31-2.213-3.067-3.145-3.377-.932z" fill="#5222D0"/><path d="M207.919 134.77c4.269 1.825 7.684-1.748 7.84-5.942 0-.388-.233-1.437-.078-1.786h-.194c.349.116.621.31.776.66.621.777.932 1.786 1.592 2.563 1.358 1.592 3.221 1.825 5.2 1.942.971.038 2.135-.078 2.717.854.583.893.272 2.408.194 3.417a154.389 154.389 0 01-.31 4.233c-.039.35-.388 1.67.116 1.165-.31.35-1.591.427-2.018.544a27.837 27.837 0 01-7.801.66c-1.359-.078-3.416.078-4.192-1.126-.699-1.126-.737-2.835-.543-4.117-1.048.156-2.135.272-3.183.428.932 2.058 1.824 4.116 2.756 6.213.621 1.359 2.872.971 3.182-.427.932-4.194-.349-8.582.971-12.699-.971.272-1.941.505-2.911.777 1.125 1.359.854 4.272 1.125 5.941.311 1.942.854 3.728 1.747 5.437.815 1.476 3.377.854 3.26-.893-.31-4.66-.621-9.359-.893-14.019-1.125.155-2.29.311-3.415.466 1.63 4.388 1.863 8.971.582 13.475l2.562-1.048c-2.174-1.67-3.804-3.845-4.929-6.33-.738-1.592-3.338-.777-3.261.893.078 1.553.117 3.107.194 4.66h3.493c-.077-1.942 0-3.844.389-5.747.155-.66.31-1.359.504-2.02.117-.427.272-.893.427-1.32.505-.621.427-.854-.233-.699 1.863 2.641 2.096 6.602 1.786 9.67 1.086-.311 2.173-.583 3.26-.894a17.757 17.757 0 01-1.708-5.786 17.135 17.135 0 01-.078-3.145c0-.156.195-1.243.117-1.321-.272.039-.543.039-.815.078.155.311.31.583.466.893 1.785 3.651 2.328 7.767 1.901 11.806 1.087-.311 2.174-.583 3.261-.894-.699-1.514-1.242-3.106-1.553-4.737-.116-.699-.194-1.398-.116-2.097a6.15 6.15 0 01.233-1.165c.427-.466.465-.66.116-.544-.466-.078-.893-.116-1.358-.194.621.311 1.009 3.378 1.125 4.077.233 1.67.194 3.418-.039 5.088h3.377a21.787 21.787 0 01-.931-3.806c-.195-1.243-.078-2.524-.466-3.728.854 2.679.698 5.514-.078 8.155 1.048-.155 2.135-.272 3.183-.427-.466-1.01-.854-2.097-1.048-3.223-.117-.544-.155-1.088-.194-1.631 0-.233-.039-.466 0-.699.116-.544-.155-.583-.776-.156l-1.048-.815c2.212 3.805-2.213 8.038-5.978 7.495.427.543.854 1.126 1.281 1.669-.039-.699-.271-1.708-.039-2.368l-.815 1.048c-.659.427 2.873-.078 1.398-.233-2.019-.194-2.329 2.913-.466 3.417 1.863.505 3.571 1.515 5.55 1.282 1.708-.194 2.989-1.204 3.687-2.718.738-1.593.893-3.457.66-5.204a9.072 9.072 0 00-.737-2.718c-.156-.389-.35-.777-.544-1.165a6.556 6.556 0 00-.427-.699c-.155-.35-.233-.272-.155.233 1.087.31 2.174.582 3.26.893.039-.738.117-1.437.156-2.175-1.126.155-2.29.311-3.416.466.66 1.942.543 3.728-.233 5.631-.854 2.097 2.523 2.99 3.377.932.97-2.447 1.048-5.01.233-7.495-.621-1.903-3.299-1.514-3.416.466-.039.738-.116 1.437-.155 2.175-.116 1.708 2.523 2.446 3.26.893.854-1.864.621-4.272-1.358-5.32-1.708-.893-3.998-.117-4.813 1.631-1.125 2.407 1.397 4.543 1.63 6.873.117 1.088.117 3.262-1.087 3.806-1.164.505-3.376-.854-4.463-1.165-.155 1.126-.31 2.291-.466 3.417 3.532.311 3.61-4.349 1.165-5.864-1.204-.737-2.834-1.32-4.114-.543-1.592.971-1.126 2.912-1.087 4.466.039.699.504 1.592 1.281 1.669 6.21.894 11.876-4.077 10.673-10.562-.233-1.282-.737-2.719-2.173-2.99-1.204-.233-2.407.466-2.911 1.553-1.281 2.757.232 6.835 1.397 9.359.66 1.437 2.794.932 3.182-.427.777-2.602 1.01-5.282.544-7.961-.349-2.02-.97-4.66-3.493-4.738-5.628-.116-3.299 9.126-2.329 12.038.505 1.476 3.066 1.826 3.377 0 .465-2.99.427-5.98-.35-8.931-.465-1.748-1.397-5.165-3.92-4.272-2.018.738-2.639 3.65-2.639 5.553 0 2.796 1.009 5.553 2.174 8 .815 1.747 3.105.66 3.26-.893.349-3.262.077-6.563-.854-9.709-.66-2.213-1.863-6.679-4.813-6.562-2.872.077-3.027 3.766-3.027 5.863 0 3.379.854 6.641 2.329 9.709.815 1.708 3.105.66 3.26-.893.31-2.758.039-5.554-.815-8.194-.621-1.942-1.63-4.738-3.959-5.01-2.562-.272-3.454 2.68-4.037 4.583-.854 2.796-1.125 5.747-1.009 8.698.117 2.253 3.571 2.253 3.493 0-.077-1.553-.116-3.106-.194-4.66-1.086.311-2.173.583-3.26.893 1.397 3.068 3.532 5.554 6.171 7.573.932.699 2.29-.078 2.562-1.049a24.142 24.142 0 00-.582-15.339c-.66-1.708-3.571-1.631-3.416.466.311 4.66.621 9.359.893 14.019 1.087-.311 2.173-.582 3.26-.893-2.018-3.767-.66-8.776-3.415-12.116-.893-1.087-2.562-.388-2.911.777-1.359 4.155-.039 8.504-.971 12.698 1.048-.155 2.135-.272 3.183-.427-.932-2.058-1.824-4.116-2.756-6.213-.582-1.321-2.949-1.01-3.182.427-.427 2.718-.233 6.524 2.134 8.388 1.087.854 2.523.932 3.882 1.087 1.824.194 3.687.272 5.55.155a34.575 34.575 0 005.278-.776c1.165-.272 2.717-.466 3.532-1.398 1.048-1.126.854-2.952.971-4.388.116-1.709.31-3.379.349-5.088.039-2.796-1.087-5.242-3.959-5.941-1.164-.272-2.368-.117-3.571-.311-1.863-.272-2.057-1.864-3.066-3.184-1.281-1.709-4.036-2.796-5.783-1.126-1.126 1.087-.893 2.485-.854 3.883.039 1.243-.582 4.388-2.562 3.534-2.367-.544-4.152 2.485-2.095 3.34zm-102.854 19.339c2.717 2.485 5.279 5.165 7.491 8.116 1.475 1.942 2.989 5.825 5.628 6.369 1.553.31 2.795-.505 3.959-1.437 1.591-1.282 3.144-2.602 4.735-3.922 1.591-1.321 3.144-2.602 4.735-3.923 1.126-.932 2.407-1.786 2.484-3.378.078-1.515-.893-2.641-1.785-3.767-1.242-1.592-2.523-3.184-3.765-4.776-1.242-1.593-2.523-3.185-3.765-4.777-.931-1.165-1.785-2.718-3.338-3.068-1.397-.31-2.678.505-3.842 1.126a47.768 47.768 0 00-4.502 2.719 51.286 51.286 0 00-7.879 6.64c-.738.777-.66 2.214.349 2.757 2.523 1.282 4.929 2.796 7.103 4.66.97.816 1.901 1.709 2.794 2.641a47.6 47.6 0 011.281 1.437c.272.311.543.66.815.971.349.932.854.893 1.475-.194.155 1.048.272 2.135.427 3.184a49.424 49.424 0 0010.906-8.971c1.32-1.475-.349-3.728-2.135-2.757a48.636 48.636 0 01-8.422 3.612l1.98 2.563c1.63-2.602 3.648-4.854 6.016-6.835a128.912 128.912 0 01-2.756-2.136 33.945 33.945 0 01-7.879 8.272l2.562 1.98c1.009-3.65 3.066-6.873 6.132-9.164l-2.406-2.408c-1.747 3.456-4.192 6.407-7.336 8.66h1.747c.116.116.194.272.31.388.078-.311.155-.621.233-.893.116-.388.233-.777.388-1.204.349-1.048.815-2.019 1.32-2.99.97-1.825 2.173-3.417 3.609-4.893a131.432 131.432 0 01-2.755-2.136 34.511 34.511 0 01-8.462 11.029c1.01.427 1.98.815 2.989 1.242.427-4.582 2.406-8.776 5.628-12.077a131.473 131.473 0 01-2.756-2.136c-1.591 3.107-3.92 5.554-6.947 7.301.892.505 1.746 1.01 2.639 1.515-.039-1.398.155-2.758.815-4a6.615 6.615 0 011.009-1.476c.621-.738 1.785-.932.699-1.631-.505-.621-.777-.582-.815.194-.194.389-.35.777-.544 1.165-.31.583-.621 1.126-.931 1.67-.35.544-.699 1.087-1.087 1.592-.31.389-.582.777-.931 1.165-.544.311-.583.544-.117.66l.815 1.049c-.388-1.243.893-3.573 1.475-4.621.349-.583 2.368-3.922 3.26-3.728.427.077 1.009 2.252 1.165 2.64.31.855.582 1.748.776 2.641.194.893.427 1.825.427 2.718 0 1.049 0 1.088-.854.35-2.445-2.097-2.717-7.417.893-8.621 1.824-.621 2.367 1.709 2.794 3.029.621 1.903 1.203 3.844 1.824 5.786.971-.582 1.941-1.126 2.911-1.709-2.173-2.135-3.338-4.854-3.415-7.922-.738.544-1.475 1.127-2.213 1.67 4.076 1.554 4.736 6.68 5.279 10.408.31 2.213 3.687 1.281 3.377-.932-.777-5.282-2.213-10.796-7.724-12.854-1.048-.389-2.251.621-2.212 1.67.077 3.961 1.63 7.572 4.424 10.368 1.203 1.204 3.455 0 2.911-1.709-.698-2.213-1.319-4.427-2.096-6.601-.543-1.554-1.242-3.185-2.678-4.117-3.105-2.058-6.753.272-8.344 3.107-1.825 3.301-1.359 7.417 1.125 10.213 2.057 2.291 6.055 3.534 7.18-.31 1.01-3.418-.737-8.466-2.445-11.417-2.328-3.961-6.171-.971-8.15 1.592a16.505 16.505 0 00-2.446 4.427c-.543 1.475-1.436 3.883-.349 5.32 2.562 3.34 6.249-2.33 7.375-4.194.97-1.553 2.367-3.689 2.134-5.631-.233-1.825-1.94-2.679-3.571-1.98-3.57 1.553-5.394 6.329-5.239 9.941.039 1.32 1.436 2.175 2.639 1.514a21.15 21.15 0 008.189-8.543c.893-1.709-1.319-3.573-2.755-2.136-3.881 3.961-6.133 9.01-6.637 14.524-.155 1.631 1.94 2.136 2.988 1.243a36.902 36.902 0 009.005-11.728c.815-1.709-1.281-3.612-2.756-2.136-2.251 2.33-4.036 5.01-5.278 8-.815 1.98-2.523 5.747.116 7.106.544.272 1.242.35 1.747 0 3.648-2.602 6.598-5.902 8.616-9.902.699-1.398-.854-3.534-2.406-2.408-3.804 2.874-6.482 6.679-7.724 11.262-.388 1.359 1.281 2.912 2.562 1.98a38.095 38.095 0 009.159-9.514c1.165-1.747-1.319-3.301-2.755-2.136-2.601 2.136-4.774 4.66-6.56 7.534-.815 1.281.544 3.029 1.98 2.563a50.178 50.178 0 009.276-3.961 131.446 131.446 0 00-2.135-2.757 45.27 45.27 0 01-10.207 8.427c-1.398.854-.932 2.64.427 3.184 1.63.66 3.376-.66 3.454-2.33.116-2.019-1.98-3.922-3.222-5.243-3.143-3.417-6.908-6.213-11.022-8.271.116.932.233 1.825.349 2.757a51.847 51.847 0 015.822-5.126c1.863-1.398 4.192-3.262 6.404-4 .66-.233.621-.349 1.164.194.544.544.971 1.204 1.398 1.787.853 1.087 1.746 2.213 2.6 3.301.932 1.203 1.902 2.407 2.833 3.611.505.66 2.562 2.641 2.407 3.379-.156.854-2.29 2.097-2.989 2.679l-3.26 2.68-3.26 2.679c-.466.388-1.475 1.515-2.29 1.087-.311-.155-.854-1.32-1.048-1.592-2.834-4.271-6.21-8.116-9.975-11.572-1.553-1.359-4.037 1.087-2.368 2.602z" fill="#5222D0"/><path d="M106.928 151.002c1.398 2.718 10.169 17.863 13.895 12.699 1.32-1.826-1.707-3.573-3.027-1.748-.078.078-.116.194-.194.272.504-.272 1.009-.583 1.514-.854-.66.077-2.252-2.136-2.678-2.641-.854-.971-1.708-1.942-2.484-2.99a48.472 48.472 0 01-3.998-6.485c-1.009-2.02-4.037-.233-3.028 1.747z" fill="#5222D0"/><path d="M176.364 103.043c-4.153-3.029-5.744-9.242-3.144-13.786 1.281-2.252 3.61-4.077 6.327-3.767 2.794.311 4.152 2.33 4.347 4.971.116 1.476-.039 2.99-.078 4.466-.078 1.398.078 3.029-.311 4.388-.388 1.359-1.785 2.097-2.328 3.456-.466 1.165.038 2.175-1.32 2.563-.388.117-.931.078-1.281.194-.621-.077-.621.039 0 .311-.155-.505-.271-.971-.427-1.476-.504-1.708-1.009-3.456-1.513-5.164-.854-2.874-2.64-7.107-.389-9.786-.931.116-1.863.233-2.833.35 1.359 1.009.854 5.125.932 6.523l.349 8.738c.116 3.067 4.347 2.951 4.657 0 .311-3.068-.116-6.097-.232-9.204-.078-1.32-.078-2.68.116-4 .078-.66.233-1.281.427-1.902.116-.428.31-.855.505-1.243.426-.66.426-.738.038-.233-.582.078-1.203.155-1.785.233-.116-.039.427 1.398.505 1.709.155.582.232 1.203.31 1.786.155 1.63.155 3.3.078 4.932a23.551 23.551 0 01-.233 2.252l-.233 1.398c-.388.932.272 1.165 1.979.582.156-.31-.271-1.553-.31-1.902a17.655 17.655 0 01-.078-2.486 21.05 21.05 0 011.009-6.019c.583-1.01-.038-1.359-1.863-1.01-.155.272.466 1.748.544 2.02.349 1.63.427 3.3.271 4.97-.077.777-.155 3.301-1.048 3.495-2.91.699-1.668 5.204 1.242 4.505 3.067-.738 3.921-3.844 4.309-6.602.427-3.262.271-6.95-.971-10.019-1.203-2.95-4.735-2.99-6.287-.271-1.553 2.718-1.902 6.563-1.863 9.63.039 2.486.077 6.757 3.066 7.65 3.299.971 4.463-2.601 4.813-5.087.465-3.262.582-6.601.038-9.863-.388-2.408-1.94-7.03-5.239-6.136-3.183.816-3.804 6.369-3.959 9.01-.194 3.96.66 7.882.272 11.843h4.657c-.155-3.922-.31-7.844-.504-11.766-.117-2.99-.583-5.63-3.105-7.495-.738-.582-2.213-.35-2.834.35-2.561 3.029-2.755 6.757-1.863 10.485.466 2.019 1.126 4.038 1.708 6.019.543 1.864.854 4.116 1.863 5.747 1.591 2.641 6.016 2.019 8.306.66 1.203-.699 2.018-1.864 2.329-3.223.194-.854.116-1.204.659-1.903.621-.776 1.242-1.398 1.631-2.33.659-1.475.698-3.106.776-4.66.077-1.941.271-3.922.233-5.902-.078-3.456-1.204-6.718-4.192-8.699-5.744-3.806-12.963-.272-15.68 5.475-3.183 6.796-.621 14.835 5.317 19.184 2.368 1.825 4.696-2.213 2.29-3.961z" fill="#FFD600"/><path d="M176.131 113.334c.776 1.243 2.174 1.709 3.571 1.282.621-.195 1.164-.544 1.63-.971.116-.117.272-.233.388-.389.117-.116.078-.116-.077.039.737-.388.155-.505-1.708-.427.931.777 2.406.971 3.299 0 .815-.854.97-2.446 0-3.301-1.126-.971-2.562-1.126-3.881-.349a3.986 3.986 0 00-1.165.971c-.271.349.35-.233-.077.077a.544.544 0 01.232-.077c-.815.194-.232.466 1.747.815-.66-1.048-2.096-1.553-3.183-.854-.97.66-1.474 2.097-.776 3.184z" fill="#FFD600"/><path d="M177.218 116.402v.349c0 .583.272 1.243.699 1.631.388.389 1.048.699 1.63.699.621-.039 1.242-.233 1.63-.699.427-.466.699-1.009.699-1.631v-.349c0-.583-.272-1.243-.699-1.631-.388-.389-1.048-.699-1.63-.699-.621.039-1.242.233-1.63.699-.427.427-.699.971-.699 1.631zm-23.055-42.95a705.298 705.298 0 0029.381-37.513c-.892.35-1.746.699-2.639 1.087.893.272 1.553.738 2.212 1.398-.116-.932-.232-1.864-.349-2.834-8.966 12.814-17.892 25.59-26.858 38.406 1.048-.272 2.135-.544 3.183-.855a74.414 74.414 0 01-2.329-1.437c.271 1.049.543 2.136.854 3.185a159.503 159.503 0 0011.178-16.62c1.513-2.603-2.523-4.933-4.037-2.37a163.73 163.73 0 01-11.178 16.621c-.776 1.01-.116 2.602.854 3.184.776.466 1.553.932 2.329 1.437 1.125.7 2.484.194 3.182-.854 8.966-12.815 17.893-25.591 26.859-38.406.582-.855.31-2.136-.35-2.835-1.203-1.243-2.639-2.097-4.269-2.602-1.048-.35-2.018.233-2.639 1.087a665.977 665.977 0 01-28.644 36.542c-1.941 2.37 1.359 5.709 3.26 3.379zm-26.12 132.033v-.349c0-2.99-4.658-2.99-4.658 0v.349c0 3.029 4.658 3.029 4.658 0v-.349c0-2.99-4.658-2.99-4.658 0v.349c0 3.029 4.658 3.029 4.658 0zM90.86 172.982c2.989 0 2.989-4.66 0-4.66s-2.989 4.66 0 4.66z" fill="#FFD600"/><path d="M101.378 175.04c2.251 0 2.251-3.495 0-3.495-2.25 0-2.25 3.495 0 3.495zm142.636-88.773c2.251 0 2.251-3.495 0-3.495s-2.251 3.495 0 3.495zm21.89 52.813v.661c0 .466.195.932.505 1.242.311.311.815.544 1.242.505.466-.039.931-.155 1.242-.505.31-.349.505-.776.505-1.242v-.661c0-.466-.195-.932-.505-1.242-.311-.311-.815-.544-1.242-.505-.466.039-.931.155-1.242.505-.31.349-.505.776-.505 1.242z" fill="#5222D0"/><path d="M251.816 111.354c6.598 1.048 15.835 4.116 13.39 12.737-1.126 3.961-4.231 6.796-7.297 9.32-3.027 2.447-6.016 4.854-8.771 7.611-2.64 2.641-5.046 5.515-7.258 8.544-1.747 2.407-4.153 5.398-3.882 8.621.233 2.873 2.756 3.572 5.046 4.466 3.299 1.281 6.792 3.533 8.073 6.99 1.708 4.66-1.863 8.776-5.24 11.533-3.027 2.485-6.326 4.621-8.383 8.039-.388.66.621 1.242 1.009.582 3.687-6.213 13.08-8.699 14.128-16.543.427-3.068-.971-5.941-3.183-8-1.087-1.048-2.368-1.902-3.687-2.64-1.591-.855-3.454-1.204-5.007-2.097-4.347-2.524 1.087-8.971 2.95-11.417a68.794 68.794 0 018.965-9.747c5.279-4.816 13.546-9.087 14.128-17.126.582-8.155-8.15-10.912-14.593-11.922-.815-.194-1.126.932-.388 1.049zm-114.653-1.243c-6.908 8.504-14.71 16.232-23.326 22.989-8.461 6.64-17.66 11.922-27.013 17.164-8.617 4.854-17.31 9.825-24.685 16.543-3.3 2.99-6.948 6.485-8.81 10.641-1.437 3.223-1.553 7.417 2.134 9.087 2.018.893 4.386.582 6.482.233 3.415-.583 6.792-1.321 10.169-1.981 3.454-.66 6.908-1.359 10.363-2.019 3.299-.622 9.47-1.204 9.625 3.728.039.738 1.203.738 1.164 0-.155-4.583-5.045-5.748-8.81-5.282-5.744.738-11.41 2.175-17.116 3.262-3.998.777-14.671 4-13.895-3.65.504-4.932 5.162-9.203 8.539-12.427 7.141-6.757 15.719-11.766 24.257-16.581 8.966-5.049 17.893-10.019 26.121-16.233a149.318 149.318 0 0025.539-24.698c.543-.543-.272-1.359-.738-.776zm-61.75 79.764c-3.416 4.116-7.413 8.97-6.792 14.679.465 4.388 3.609 8.504 8.344 8.194 3.028-.195 5.706-1.864 8.345-3.146 3.299-1.592 6.676-3.029 10.169-4.077 3.454-1.01 7.064-1.67 10.673-1.748 2.872-.039 6.133.155 8.539 1.942 3.648 2.64 1.397 6.601-.543 9.553a70.802 70.802 0 00-5.046 8.815 69.16 69.16 0 00-3.416 8.66c-.698 2.213-1.513 4.815.194 6.757 3.649 4.233 9.199.621 12.265-2.252 4.697-4.389 9.781-8.039 15.642-10.757 6.559-3.029 13.7-4.816 20.881-5.204 3.648-.194 7.335-.078 10.945.505 3.221.505 6.831 1.514 8.345 4.737.31.661 1.319.078 1.009-.582-2.096-4.544-7.84-5.243-12.265-5.67-5.783-.543-11.683-.116-17.349 1.126-5.667 1.243-11.217 3.34-16.263 6.214-2.484 1.398-4.812 2.99-7.064 4.737-2.522 1.981-4.657 4.428-7.219 6.253-2.29 1.631-7.18 2.835-8.538-.738-.66-1.748.194-3.767.737-5.476a60.678 60.678 0 011.979-5.242 66.326 66.326 0 014.503-8.738c1.513-2.446 3.765-4.932 4.308-7.844.893-4.738-3.765-7.184-7.763-7.767-5.938-.815-12.226.544-17.814 2.563-3.416 1.243-6.637 2.835-9.898 4.427-3.376 1.67-7.568 2.952-10.44-.349-5.356-6.136.271-13.864 4.347-18.796.504-.543-.31-1.359-.815-.776z" fill="#161616"/><path d="M97.73 209.524c3.648-1.165 6.87 2.408 6.947 5.864.078 3.65-2.328 6.796-4.735 9.281-.543.544.311 1.359.815.816 2.95-3.029 6.016-7.34 4.852-11.845-.932-3.533-4.502-6.407-8.19-5.242-.698.233-.426 1.359.311 1.126zm135.572-100.19c1.785 1.476 3.881 1.786 6.094 2.252 2.406.505 4.502 1.437 6.171 3.301 3.144 3.534 4.114 8.854 1.785 13.048-.349.66.621 1.243 1.009.583 2.251-4.039 1.786-9.01-.698-12.815-1.165-1.787-2.795-3.34-4.774-4.272-2.795-1.32-6.288-.893-8.772-2.912-.582-.466-1.397.349-.815.815zM90.977 192.049c2.212 5.942 9.237 4.427 13.545 2.097 2.756-1.475 5.317-3.378 7.569-5.553 2.406-2.369 4.347-5.165 6.714-7.572 2.601-2.641 6.249-5.049 10.169-4.388 3.532.582 5.667 3.728 7.918 6.135 2.949 3.107 8.888 6.291 11.876 1.359.388-.66-.621-1.242-1.009-.582-1.902 3.107-5.938 2.019-8.267.155-2.096-1.708-3.609-4.038-5.666-5.786-3.882-3.34-8.733-3.029-12.847-.233-4.541 3.068-7.297 8.155-11.45 11.689-2.445 2.058-5.279 3.961-8.306 5.087-3.221 1.204-7.724 1.126-9.12-2.679-.273-.738-1.398-.428-1.126.271zm9.703-36.192a56.83 56.83 0 0112.342 15.184c.349.66 1.358.077 1.009-.583a56.531 56.531 0 00-12.536-15.417c-.544-.505-1.397.35-.815.816z" fill="#161616"/><path d="M101.689 154.614c4.192-5.553 10.13-11.223 16.728-13.747 1.048-.388 2.251-.738 3.377-.466 1.397.311 2.212 1.514 3.027 2.602 1.164 1.514 2.29 3.068 3.416 4.621a156.729 156.729 0 016.287 9.592c.388.621 1.397.039 1.009-.583a163.975 163.975 0 00-7.995-11.922c-2.135-2.912-4.075-6.329-8.228-5.359-3.61.855-7.064 3.495-9.898 5.709-3.299 2.602-6.21 5.631-8.771 8.971-.388.582.621 1.165 1.048.582z" fill="#161616"/><path d="M113.721 171.545c7.917-3.339 14.981-8.232 20.842-14.523.505-.544-.311-1.36-.815-.816-5.706 6.136-12.614 10.99-20.338 14.213-.698.311-.388 1.437.311 1.126zm-7.53-16.154c4.425-4 9.354-7.301 14.788-9.825.659-.311.077-1.32-.583-1.01-5.511 2.563-10.518 5.942-15.02 10.019-.582.466.272 1.321.815.816zm3.221 1.941c2.407-1.747 4.813-3.456 7.22-5.203.621-.428.038-1.437-.583-1.01-2.406 1.747-4.812 3.456-7.219 5.203-.621.466-.039 1.476.582 1.01zm1.631 2.68c4.036-2.835 8.073-5.709 12.109-8.544.621-.427.039-1.436-.582-1.009-4.037 2.835-8.073 5.708-12.11 8.543-.621.427-.038 1.437.583 1.01zm3.415 3.184c2.484-2.019 5.085-3.806 7.801-5.475.66-.389.039-1.398-.582-1.01-2.833 1.67-5.511 3.573-8.034 5.631-.582.505.233 1.32.815.854zm1.786 3.184c3.648-2.99 7.607-5.475 11.837-7.533.66-.311.078-1.321-.582-1.01-4.347 2.097-8.345 4.699-12.071 7.728-.582.466.233 1.281.816.815zm79.798 24.388c1.902-2.408-.349-5.359-2.872-6.058-3.028-.855-6.482.582-7.996 3.301-1.707 3.029-1.009 6.99 1.204 9.553 2.833 3.339 10.207 5.359 8.888 10.873-.194.738.931 1.048 1.125.311 1.514-6.291-6.054-8.233-9.198-12-2.213-2.679-2.601-7.184.194-9.631 1.125-.97 2.717-1.553 4.192-1.475 1.746.077 5.511 1.98 3.687 4.349-.505.544.31 1.359.776.777z" fill="#161616"/><path d="M196.663 190.534c.311-2.097 1.281-3.961 2.833-5.397.738-.699 1.592-1.243 2.523-1.67.466-.194.97-.389 1.475-.505 1.087-.233 1.32-.233 2.212.544.893.815.932 1.048.893 2.174 0 .427-.078.855-.116 1.243-.117.777-.35 1.514-.621 2.252-.583 1.592-1.475 3.068-2.407 4.466-3.338 4.971-8.112 9.514-8.383 15.844-.039.738 1.125.738 1.164 0 .349-8.504 9.16-13.397 11.178-21.319.388-1.515.699-3.457.039-4.932-.815-1.709-2.601-1.787-4.231-1.398-3.959.932-6.986 4.388-7.607 8.388-.194.738.932 1.087 1.048.31zm6.598-58.637c-.698 3.766-.854 7.727 0 11.494.815 3.612 3.416 2.835 6.404 3.029 6.792.466 15.797 4.777 20.26-2.912.388-.66-.621-1.243-1.009-.583-3.803 6.563-11.799 3.34-17.621 2.524-1.358-.194-2.639-.194-3.997-.155-2.096 0-2.717-1.01-3.028-2.874-.582-3.378-.504-6.795.156-10.174.077-.777-1.048-1.087-1.165-.349z" fill="#161616"/><path d="M203.416 133.76c2.096-1.281 3.92-1.514 6.288-1.903 1.009-.155 1.669-.543 1.824-1.592.427-2.641-.698-5.359 1.397-7.611 2.329-2.524 5.473-.272 6.443 2.291.466 1.204.738 2.602 1.669 3.573 1.203 1.281 2.795.932 4.308 1.359 5.861 1.592 4.115 9.164 2.873 13.242-.233.699.892 1.01 1.125.311 1.32-4.233 2.639-9.515-.893-13.048a6.22 6.22 0 00-1.979-1.36c-1.126-.466-2.368-.233-3.532-.66-2.251-.815-2.212-4.155-3.571-5.864-2.445-3.029-6.637-2.601-8.306.932-.465.971-.621 1.981-.698 3.029-.078 1.243.504 3.728-.815 4.233-.932.389-2.368.233-3.377.544-1.203.349-2.29.893-3.338 1.514-.621.428-.039 1.437.582 1.01z" fill="#161616"/><path d="M208.035 132.557c-.582 4.582.194 9.126 2.212 13.281.311.66 1.32.077 1.009-.583-1.94-3.961-2.639-8.31-2.057-12.698.117-.738-1.047-.738-1.164 0zm-37.124-25.825c-5.007-2.33-7.996-7.728-7.724-13.242.31-5.63 4.114-10.757 8.966-13.436 3.027-1.67 6.248-2.175 9.315-.389 2.794 1.593 4.774 4.35 5.899 7.301 2.018 5.36 1.281 11.456-1.902 16.232-.427.622.582 1.204 1.009.583 5.279-7.883 4.076-21.591-5.589-25.669-4.851-2.058-10.013.7-13.506 4.116-3.416 3.34-5.628 8.117-5.356 12.932.31 5.32 3.415 10.33 8.267 12.621.698.272 1.28-.738.621-1.049z" fill="#161616"/><path d="M170.367 108.13c-1.009 1.088-.737 2.758.505 3.573 2.018 1.32 5.511.117 7.646-.388 2.29-.544 5.744-1.049 7.297-3.068.931-1.243.931-2.951-.272-4-.582-.466-1.397.35-.815.816 1.785 1.514-.543 3.262-1.941 3.805a37.976 37.976 0 01-3.57 1.088c-1.126.271-2.252.543-3.377.737-.699.117-1.475.311-2.174.35-1.009.039-3.92-.505-2.445-2.058.505-.583-.31-1.398-.854-.855z" fill="#161616"/><path d="M172.618 112.285c.156 2.291 2.096 3.767 4.347 3.922 3.105.195 5.434-2.407 7.258-4.543.466-.583-.349-1.398-.815-.816-1.281 1.515-2.717 3.262-4.618 3.923-1.941.699-4.813-.078-4.968-2.486-.078-.738-1.242-.738-1.204 0z" fill="#161616"/><path d="M175.762 116.635c-.31 1.592.66 3.262 2.329 3.534 1.708.271 3.183-1.243 3.221-2.874 0-.738-1.164-.738-1.164 0 0 .971-.932 1.942-1.979 1.709-.893-.195-1.475-1.204-1.281-2.059.155-.737-.971-1.048-1.126-.31zm-7.956-24.582c3.338 2.136 5.899 5.126 7.529 8.738.311.699 1.32.077 1.009-.583-1.707-3.806-4.424-6.912-7.956-9.165-.66-.388-1.242.622-.582 1.01z" fill="#161616"/><path d="M173.783 89.218c.737 5.592 1.513 11.184 2.251 16.738.116.737 1.203.427 1.125-.311-.737-5.592-1.513-11.184-2.251-16.737-.116-.738-1.203-.427-1.125.31z" fill="#161616"/><path d="M175.801 98.732c1.009-3.65 3.338-6.601 6.637-8.465.66-.35.078-1.36-.582-1.01a15.058 15.058 0 00-7.181 9.165c-.194.737.932 1.048 1.126.31zm-42.519 99.841c1.553 3.379 3.222 6.719 5.085 9.942.931 1.592 2.173 4.621 4.463 3.65.699-.311.078-1.282-.582-1.01-1.475.622-4.114-5.398-4.619-6.368-1.203-2.214-2.29-4.505-3.338-6.796-.31-.699-1.319-.117-1.009.582z" fill="#161616"/><path d="M134.33 199.272c3.299-2.563 6.521-5.203 9.858-7.689 2.911-2.213 6.055-4.349 9.626-5.359 3.842-1.126 7.18-.233 9.742 2.874 2.173 2.641 3.493 5.903 4.968 8.932.31.66 1.319.077 1.009-.583-2.833-5.825-6.171-14.058-14.128-12.776-3.959.621-7.529 2.796-10.751 5.126-3.803 2.796-7.452 5.786-11.178 8.699-.543.427.272 1.242.854.776z" fill="#161616"/><path d="M141.239 212.281c10.13-2.213 19.522-6.951 27.401-13.708.583-.505-.271-1.32-.815-.816-7.723 6.641-16.961 11.223-26.897 13.437-.737.155-.427 1.281.311 1.087zm9.431-10.951c-2.057-.505-3.765-2.524-3.26-4.737.466-2.136 3.066-3.69 5.123-2.68 4.153 2.097 1.32 8.077-2.95 6.563-.698-.233-1.009.893-.31 1.126 2.406.854 5.317-.311 6.249-2.757.931-2.408-.582-5.32-2.95-6.175-2.562-.932-5.473.816-6.21 3.379-.854 2.874 1.242 5.708 3.998 6.407.737.195 1.048-.932.31-1.126zm20.687-29.474c-.466-4.155-.504-8.893 4.425-10.019 2.484-.583 4.541-1.32 5.977-3.612 1.475-2.33 1.281-4.504.699-7.067-.427-2.02-.389-3.767 1.242-5.282 1.319-1.203 3.066-1.669 4.774-1.126.698.233 1.009-.893.31-1.126-2.484-.777-5.084.194-6.676 2.252-2.445 3.224.427 6.486-.543 9.942-.582 2.058-2.174 3.805-4.231 4.504-1.669.544-3.454.505-4.851 1.67-2.95 2.408-2.678 6.485-2.29 9.864.077.738 1.242.738 1.164 0zm-9.47-21.747c-1.203-.97-.233-3.145 1.32-2.33.621.311 1.009 1.049.659 1.709-.349.66-1.242 1.01-1.901.66-.66-.349-1.242.66-.583 1.01 1.204.582 2.679.155 3.416-.932.776-1.165.272-2.641-.854-3.34-1.126-.699-2.639-.505-3.377.66-.659 1.088-.504 2.602.505 3.418.582.427 1.397-.389.815-.855zm53.096-60.191c-.699-1.127-1.126-2.563-.699-3.845.349-1.087 1.436-1.747 2.562-1.63 1.242.116 1.901 1.28 1.242 2.368-.583 1.01-1.786 1.514-2.911 1.36-.738-.079-.738 1.086 0 1.164 1.669.194 3.493-.815 4.114-2.407.582-1.437-.156-3.03-1.63-3.495-1.398-.467-3.105.077-3.959 1.281-1.281 1.748-.777 4.116.271 5.864.389.543 1.398-.039 1.01-.66zm-62.605 47.609a10.505 10.505 0 0010.673 5.32c5.279-.776 8.112-4.815 10.208-9.32 2.445-5.203 5.822-9.475 11.217-11.766 4.89-2.058 11.217-1.01 15.253-4.854 1.553-1.476 2.601-3.534 2.251-5.709-.271-1.67-1.28-3.068-.892-4.815a4.927 4.927 0 013.803-3.689c.738-.156.427-1.282-.31-1.127-2.251.505-4.076 2.214-4.619 4.505-.31 1.243-.078 2.369.311 3.573.621 1.941.853 3.534-.427 5.32-2.251 3.145-6.21 3.573-9.742 4.077-3.144.466-6.094 1.321-8.811 2.952a21.51 21.51 0 00-6.21 5.631c-1.824 2.485-2.833 5.397-4.308 8.077-1.863 3.301-4.929 5.825-8.849 6.058-3.571.194-6.909-1.709-8.655-4.854-.233-.622-1.242-.039-.893.621zm-8.112-63.687c-.66 4.855-1.32 9.71-1.941 14.563-.116.738 1.009 1.049 1.126.311.66-4.854 1.32-9.708 1.941-14.563.116-.737-1.01-1.048-1.126-.31z" fill="#161616"/><path d="M144.072 89.063l13.74-9.902c.621-.427.039-1.437-.582-1.01l-13.74 9.903c-.621.427-.039 1.436.582 1.01zm.931-14.563a2338.545 2338.545 0 0033.884-46.638c.427-.621-.583-1.204-1.009-.583a2231.142 2231.142 0 01-33.884 46.64c-.427.582.582 1.164 1.009.582zm14.245 2.913a1186.594 1186.594 0 0030.739-42.64c.427-.62-.582-1.203-1.009-.582-9.936 14.408-20.182 28.66-30.739 42.64-.466.582.543 1.164 1.009.582z" fill="#161616"/><path d="M178.538 27.862c1.824-3.417 3.958-7.573 7.995-8.699 3.998-1.126 7.918 1.903 7.995 6.058 0 .738 1.165.738 1.165 0-.039-4-3.416-7.611-7.53-7.495-5.395.156-8.422 5.32-10.635 9.553-.349.66.66 1.243 1.01.583z" fill="#161616"/><path d="M190.22 34.658a83.078 83.078 0 005.357-9.165c.349-.66-.66-1.243-1.01-.582a82.912 82.912 0 01-5.356 9.164c-.388.583.621 1.204 1.009.583z" fill="#161616"/><path d="M177.684 29.765c4.463-3.029 10.246-1.398 12.458 3.495.311.699 1.32.078 1.01-.583-2.484-5.475-9.121-7.3-14.051-3.922-.621.428-.038 1.437.583 1.01z" fill="#161616"/><path d="M175.626 33.26c3.882-2.486 9.587-.855 11.373 3.495.271.698 1.397.388 1.125-.311-2.096-4.97-8.5-7.107-13.08-4.194-.621.427-.039 1.437.582 1.01zm-31.321 41.784c2.135 1.282 4.269-1.514 6.482-1.476 1.669.04 3.221.816 4.191 2.214.699 1.01 1.048 1.98 2.174 2.563.66.35 1.242-.66.582-1.01-1.32-.699-1.708-2.407-2.833-3.378a6.417 6.417 0 00-2.717-1.36 6.64 6.64 0 00-3.027 0c-1.242.311-3.067 2.136-4.231 1.437-.66-.388-1.242.622-.621 1.01z" fill="#161616"/><path d="M150.67 72.947c7.841-10.33 15.719-20.698 23.56-31.028.465-.582-.544-1.164-1.01-.582-7.84 10.33-15.719 20.698-23.559 31.028-.427.582.582 1.165 1.009.582zm12.304-7.767a453.043 453.043 0 0123.21-31.144c.465-.582-.35-1.398-.815-.815-8.229 10.135-16.069 20.582-23.404 31.377-.388.622.621 1.204 1.009.583zm-19.135 20.194a.996.996 0 011.63.97c-.155.739.971 1.05 1.126.312.194-.933-.155-1.903-1.009-2.408-.854-.505-1.863-.31-2.601.31-.543.466.272 1.282.854.816z" fill="#161616"/><path d="M144.188 85.219a5.83 5.83 0 01-1.047 2.213c.31.194.659.389.97.583.233-.855.698-1.592 1.358-2.214l-.931-.116a.87.87 0 01-.35 1.126c.272.116.583.233.854.35a1.563 1.563 0 01.311-1.476 4.272 4.272 0 01-.699.077c.311.156.272.583-.039.738.233.04.466.078.699.078a1.89 1.89 0 01-.543-.7 4.807 4.807 0 01-.117-.387c0-.078-.077-.894-.194-.66-.349.66.66 1.242 1.009.582.544-1.01-.854-1.903-1.63-1.087-.815.893-.077 2.368.699 3.029a.533.533 0 00.698.077c1.087-.543 1.087-2.174.039-2.757-.194-.116-.543-.116-.698.078-.621.738-.854 1.67-.621 2.602.077.35.543.543.853.35.971-.583 1.242-1.748.777-2.72-.156-.349-.66-.349-.932-.116a5.472 5.472 0 00-1.63 2.719c-.155.504.582 1.048.97.582a7.791 7.791 0 001.359-2.718c.155-.66-.97-.971-1.165-.233zm-2.173 6.097c-.776 4.194-2.523 8.038-5.279 11.3-.465.583.35 1.398.816.816 2.872-3.457 4.773-7.418 5.589-11.845.116-.699-1.01-1.01-1.126-.272zm-8.112 4.854a103.31 103.31 0 01-12.73 8.038c-.66.35-.078 1.359.582 1.01a103.189 103.189 0 0012.73-8.038c.621-.467.039-1.476-.582-1.01zm94.742 88.773c-1.048-1.631-2.795-.777-3.726.466-1.01 1.281-1.825 2.796-2.679 4.194-.659 1.087-1.436 2.291-1.552 3.65-.233 2.718 1.824 3.029 3.881 3.689 2.445.816 2.29 3.689.738 5.281-1.242 1.282-3.067 1.826-4.697 2.369-.698.233-.388 1.359.311 1.126 3.26-1.048 8.112-3.417 6.443-7.766a3.396 3.396 0 00-1.359-1.67 5.698 5.698 0 00-1.125-.466c-1.126-.35-1.436-.233-2.329-1.204-.737-.427-.97-1.01-.621-1.786a6.508 6.508 0 01.621-1.515c.31-.621.699-1.204 1.087-1.786.388-.583 3.105-5.476 3.997-4.039.389.66 1.398.078 1.01-.543zm-66.642 45.707c3.183-.816 5.9 2.33 4.503 5.359-.311.66.698 1.281 1.009.582 1.824-3.922-1.553-8.155-5.783-7.068-.776.194-.466 1.321.271 1.127zm59.461-63.959c-1.475-1.087-1.475-3.922.776-4 .815-.039 1.669.427 1.631 1.32 0 .738-.66 1.631-1.475 1.515-.738-.117-1.048 1.01-.311 1.126 1.436.233 2.678-.815 2.911-2.213.272-1.437-.776-2.68-2.173-2.874-1.436-.233-2.911.582-3.416 1.98-.504 1.554.194 3.224 1.475 4.156.582.427 1.164-.583.582-1.01zm-162.236-4.815c.543-2.175 2.406-3.418 4.153-4.621 1.824-1.282 3.687-2.602 5.55-3.884 3.687-2.602 7.374-5.165 11.062-7.766.62-.428.038-1.437-.582-1.01-4.309 3.029-8.617 6.019-12.925 9.048-2.911 2.019-7.452 4.155-8.384 7.922-.194.738.932 1.049 1.126.311z" fill="#161616"/><path d="M319.621 366.022L178.149 341.79c28.644-11.572 57.288-23.105 85.931-34.678 44.79 9.98 89.58 19.961 134.33 29.941-26.237 9.669-52.513 19.3-78.789 28.969z" fill="#fff" stroke="#161616" stroke-width="2" stroke-miterlimit="10"/><path d="M317.68 366.605c.156.466.272.971.427 1.437.194.621 1.126.505 1.126-.156v-1.126c0-.738-1.164-.738-1.164 0 0 .466-.078.893-.272 1.321h1.125a2.854 2.854 0 01-.077-1.515 9.92 9.92 0 00-1.048.155c.116.117.116.195.039.311.349.039.698.078 1.048.155a.83.83 0 01.116-.737c-.349-.117-.737-.195-1.087-.311-.077.621-.155 1.204-.233 1.825-.038.311.311.583.583.583.349 0 .543-.272.582-.583.077-.621.155-1.204.233-1.825.077-.583-.815-.738-1.087-.311a2.096 2.096 0 00-.233 1.67c.116.505.815.544 1.048.155.31-.466.31-1.048-.039-1.475-.272-.35-.97-.389-1.048.155a4.432 4.432 0 00.078 2.136c.194.582.931.505 1.125 0 .194-.544.311-1.087.311-1.631h-1.164v1.126c.388-.039.776-.116 1.125-.155-.155-.466-.272-.971-.427-1.437-.155-.816-1.281-.505-1.087.233z" fill="#161616"/><path d="M318.573 369.401c6.249-3.223 13.08-4.932 19.795-6.835 3.299-.932 6.559-1.941 9.703-3.262 3.027-1.242 5.938-2.796 8.927-4.194 6.636-3.107 13.817-5.126 20.764-7.417 7.219-2.408 14.4-4.815 21.619-7.184.698-.233.388-1.359-.311-1.126-7.219 2.407-14.399 4.815-21.618 7.184-6.831 2.252-13.856 4.271-20.416 7.262-3.415 1.553-6.753 3.378-10.246 4.737-3.183 1.243-6.443 2.214-9.742 3.146-6.482 1.864-13.041 3.573-19.096 6.679-.621.35-.039 1.359.621 1.01z" fill="#161616"/><path d="M319.116 369.168a8550.433 8550.433 0 0080.304-28.232c2.095-.738 1.203-4.116-.932-3.378a8211.302 8211.302 0 01-80.303 28.232c-2.096.737-1.203 4.116.931 3.378zm-3.027-37.513c5.046.505 9.354 3.573 14.322 4.544.737.155 1.048-.971.31-1.126-5.045-1.01-9.431-4.078-14.632-4.583-.737-.039-.737 1.126 0 1.165z" fill="#161616"/><path d="M330.76 335.655c3.066-1.67 5.938-3.65 8.539-5.98.543-.505-.272-1.321-.815-.816-2.562 2.252-5.317 4.194-8.306 5.786-.66.389-.078 1.398.582 1.01zm-13.468-6.213a109.984 109.984 0 017.569-4.971c.659-.388.038-1.398-.583-1.01-2.6 1.554-5.123 3.185-7.568 4.971-.621.466-.039 1.476.582 1.01z" fill="#161616"/><path d="M325.055 324.665c4.424 1.67 8.849 3.301 13.312 4.971.699.272 1.01-.855.311-1.126-4.425-1.67-8.849-3.301-13.313-4.971-.698-.233-1.009.893-.31 1.126zm-12.459 11.417a388.933 388.933 0 0134.504 12.466c.699.271 1.009-.855.311-1.127a388.946 388.946 0 00-34.505-12.465c-.737-.233-1.048.893-.31 1.126zm1.126 9.048c7.257 3.495 14.593 6.796 22.006 10.019.699.311 1.281-.699.582-1.009a562.72 562.72 0 01-22.006-10.019c-.66-.311-1.242.699-.582 1.009zm1.047 9.98c3.959 2.02 7.918 4.078 11.877 6.097.66.35 1.242-.66.582-1.009-3.959-2.02-7.918-4.078-11.876-6.097-.66-.35-1.242.66-.583 1.009z" fill="#161616"/><path d="M317.021 355.46c5.472-4.66 11.216-8.932 17.194-12.893.621-.427.038-1.437-.583-1.01-6.054 4-11.876 8.388-17.426 13.087-.583.505.232 1.32.815.816zm-1.437-7.961c3.105-2.175 6.21-4.349 9.315-6.563.621-.427.039-1.437-.582-1.01-3.105 2.175-6.21 4.35-9.315 6.563-.582.427 0 1.437.582 1.01z" fill="#161616"/><path d="M317.525 368.702l-146.362-24.931c-4.58-34.678-9.198-69.317-13.778-103.996a223565.51 223565.51 0 01157.501 21.242c.893 35.882 1.785 71.764 2.639 107.685z" fill="#fff" stroke="#161616" stroke-width="2" stroke-miterlimit="10"/><path d="M230.585 308.705c-4.23-1.321-6.52-4.893-6.87-9.204-.349-4.388.505-8.621 4.58-10.912 3.61-2.019 7.918-1.437 11.139 1.01 3.222 2.446 6.094 7.456 3.494 11.3-.427.621.582 1.204 1.009.583 2.794-4.117.155-9.553-3.261-12.388-3.532-2.913-8.305-3.806-12.458-1.748-4.813 2.369-6.055 7.184-5.667 12.194.388 4.854 2.95 8.854 7.724 10.33.698.194 1.009-.932.31-1.165z" fill="#161616"/><path d="M231.672 309.132c-1.786-2.951-1.203-7.068 1.669-9.126s6.986-1.204 9.16 1.437c.465.582 1.28-.233.815-.816-2.562-3.067-7.375-3.922-10.713-1.553-3.338 2.408-4.036 7.223-1.94 10.64.388.622 1.397.039 1.009-.582z" fill="#161616"/><path d="M235.67 310.763c-1.825-1.942-1.553-5.553.892-6.951 2.407-1.398 5.667.194 6.443 2.757.233.699 1.359.427 1.126-.311-1.009-3.262-5.085-5.204-8.151-3.417-3.066 1.786-3.454 6.291-1.126 8.776.505.505 1.32-.311.816-.854z" fill="#161616"/><path d="M238.658 313.481c1.514.543 3.26-.35 3.843-1.787.621-1.436-.194-2.99-1.553-3.611-1.358-.621-2.988-.272-3.726 1.048-.699 1.282-.466 3.029.699 3.961.582.466 1.397-.349.815-.815-1.553-1.204-.466-4.039 1.591-3.184.893.349 1.514 1.281 1.087 2.252-.427.932-1.514 1.398-2.445 1.048-.699-.271-1.009.855-.311 1.088z" fill="#161616"/><path d="M314.886 260.979l3.415 106.985m-3.182-107.063l3.144 105.549" stroke="#161616" stroke-width="3" stroke-miterlimit="10"/><path opacity=".37" d="M247.934 253.755c2.523 1.321 24.18 13.126 25.694 34.096.854 11.572-4.813 20.349-8.383 25.708-19.251 28.969-57.326 34.095-67.651 35.183 15.021 9.98 67.495 42.872 124.86 40.93 12.77-.427 32.564-1.32 54.027-13.126 16.108-8.854 26.548-20.232 32.525-27.804-3.687-2.291-7.335-4.544-11.023-6.835a68461.288 68461.288 0 01-81.312 27.805l-4.192-107.607c-21.54-2.719-43.043-5.515-64.545-8.35z" fill="#3D3D3D"/><path opacity=".5" d="M217.078 351.266a165.629 165.629 0 0022.939 12.698c12.575 5.748 49.796 22.757 90.122 13.32 29.304-6.873 51.97-25.707 50.495-28.814-.931-1.942-12.303.078-62.954 20.232-.815-16.426-1.63-32.892-2.406-49.318-1.397 13.824-2.833 27.649-4.231 41.435-31.321-3.146-62.643-6.369-93.965-9.553z" fill="#3D3D3D"/><path d="M227.519 306.996c-2.833-3.107-3.765-7.456-2.368-11.262 1.436-3.844 5.24-7.145 9.781-6.99 3.998.155 7.219 2.951 8.384 5.592.853 2.019.659 3.883.659 3.883a6.532 6.532 0 01-.737 2.369c-1.979-2.291-5.007-3.339-7.84-2.679-3.493.815-5.007 3.805-5.162 4.077-1.592 3.262-.194 6.291 0 6.641a71.508 71.508 0 00-2.717-1.631z" fill="#5222D0"/><path d="M423.91 257.832a31.182 31.182 0 00-6.404 6.408c-7.646 10.291-6.598 22.368-6.055 26.29-6.792-1.398-18.203-2.757-31.671.349a73.497 73.497 0 00-19.212 7.418 11.143 11.143 0 003.027 1.359c7.258 1.98 14.904-4.117 15.137-3.689.233.388-8.538 4.504-8.073 8.077.311 2.408 4.619 3.689 9.082 5.048 3.765 1.126 7.336 2.214 12.11 1.67 6.559-.738 11.1-4.039 13.119-5.747a56.52 56.52 0 008.422 3.378c6.637 2.02 15.797 4.816 21.89 1.01 3.959-2.485 5.162-8.31 7.413-19.883 2.872-14.834 4.309-22.251.35-26.95-5.24-6.252-15.758-5.204-19.135-4.738z" fill="#fff" stroke="#161616" stroke-width="3" stroke-miterlimit="10"/><path d="M410.132 290.918c4.696 1.748 8.577 4.932 11.255 9.165.388.621 1.398.039 1.009-.582-2.833-4.505-6.986-7.845-11.954-9.709-.698-.233-1.009.893-.31 1.126zm-24.957 7.69c-4.618.776-8.344 3.883-10.013 8.232-.272.699.853 1.01 1.125.311 1.514-3.961 5.007-6.718 9.199-7.417.737-.117.427-1.243-.311-1.126z" fill="#161616"/><path d="M375.705 307.578c2.406 2.291 5.744 3.068 8.888 2.058.699-.233.388-1.359-.31-1.126-2.756.893-5.667.272-7.763-1.747-.543-.544-1.358.272-.815.815z" fill="#161616"/><path d="M390.57 302.452c-1.669 1.009-3.221 2.174-4.696 3.417-.97.854-2.057 1.864-1.824 3.262.582 3.689 5.007 2.874 7.413 1.942.699-.272.388-1.398-.311-1.126-1.048.388-2.212.893-3.337.854-1.825-.078-3.455-1.825-1.902-3.417 1.475-1.554 3.415-2.796 5.239-3.961.66-.35.078-1.36-.582-.971z" fill="#161616"/><path d="M421.97 202.417a58.92 58.92 0 015.821 5.165 50.738 50.738 0 013.804 4.272c2.484 3.107 4.075 6.058 5.822 9.669 2.251 4.622 4.502 9.243 6.753 16.155 1.902 5.825 4.813 14.99 5.162 27.183a82.577 82.577 0 01-.465 11.689c-1.592-1.825-3.183-3.029-4.503-3.805-7.413-4.544-16.417-2.913-24.917-1.36-3.183.583-5.822 1.282-7.646 1.787.465-4.272.892-8.544 1.358-12.815.388-3.573.738-7.184 1.126-10.796-.738-1.281-1.747-3.107-2.678-5.398-1.825-4.388-5.473-13.009-3.377-22.678 2.484-11.107 11.217-17.398 13.74-19.068z" fill="#EC615B"/><path d="M423.328 204.553c3.881 2.02 6.482 5.515 8.733 9.126a110.755 110.755 0 016.287 11.534c3.804 8.077 6.598 16.62 8.423 25.358.155.738 1.28.427 1.125-.311a112.802 112.802 0 00-8.849-26.29c-1.979-4.116-4.153-8.116-6.637-11.961-2.212-3.417-4.813-6.601-8.461-8.504-.699-.311-1.281.699-.621 1.048zm-12.11 39.493a285.42 285.42 0 005.589 10.796c.35.66 1.359.078 1.009-.582a286.181 286.181 0 01-5.589-10.796c-.349-.699-1.358-.117-1.009.582z" fill="#161616"/><path d="M413.974 250.726c-.97 7.533-1.941 15.067-2.872 22.601-.039.388.427.66.737.543 6.598-2.097 13.468-3.106 20.377-2.873 5.472.194 12.73.699 15.797 6.058.388.66 1.358.077 1.009-.583-2.911-5.126-9.276-6.174-14.633-6.524-7.723-.543-15.486.466-22.821 2.796.233.194.504.389.737.544.97-7.534 1.941-15.067 2.872-22.601.078-.699-1.087-.699-1.203.039z" fill="#161616"/><path d="M446.693 249.988c1.358 8.543 3.571 17.591 1.281 26.174-.194.737.931 1.048 1.125.31 2.329-8.776.117-18.018-1.28-26.795-.117-.738-1.242-.427-1.126.311z" fill="#161616"/><path opacity=".32" d="M419.02 200.98c3.532 6.602 7.064 14.485 10.052 23.533 5.861 17.864 7.413 33.902 7.53 45.901l-11.877.7c1.281 9.203 2.601 18.445 3.882 27.649a39.542 39.542 0 00-11.178-4.349c-1.592-.35-7.452-1.515-13.701-.466-13.119 2.213-21.037 12.97-22.822 15.533 1.785.738 4.075 1.437 6.831 1.592 8.461.505 14.632-4.388 16.457-5.941 5.783 2.912 10.828 4.31 14.399 5.009 6.249 1.282 13.546 2.757 17.582-1.126.311-.311 1.009-1.049 2.523-4.816 2.367-5.98 3.609-11.572 5.24-21.707.349-2.253.853-5.282 1.358-8.893l2.95 2.951a47.117 47.117 0 001.358-7.534c.815-8.271-.776-14.795-2.29-20.115-6.093-21.514-9.742-34.484-21.929-43.882a54.002 54.002 0 00-6.365-4.039z" fill="#3D3D3D"/><path opacity=".29" d="M439.552 227.581a137.222 137.222 0 012.755 31.183c-.194 7.223-.931 12.505-1.707 17.825-2.29 16.038-3.455 24.038-7.879 27.766-8.384 7.067-23.327 1.708-26.898.349 3.377 2.252 15.525 9.903 27.402 5.67 1.242-.466 2.601-1.049 3.92-1.903a40.84 40.84 0 004.464-10.796c.698-2.835.892-4.893 1.164-7.3.427-3.884 1.164-9.553 2.406-16.66 1.126.971 2.29 1.942 3.416 2.913.388-1.981.893-5.01 1.009-8.738.349-9.009-1.63-15.844-3.92-23.649-1.242-4.272-3.183-10.019-6.132-16.66z" fill="#3D3D3D"/><path d="M332.856 125.644c.388 4.155 1.087 9.98 2.639 16.854 1.009 4.465 1.63 7.3 2.95 10.834 1.979 5.32 5.744 15.494 15.564 22.135 2.367 1.631 6.287 3.806 11.799 5.087.892.078 1.785.194 2.678.272.31 1.631.698 4.039 1.087 6.951.931 7.495.465 9.786 2.406 11.806 2.368 2.446 6.132 2.213 6.947 2.135 6.482-.427 9.742-6.873 9.898-7.223a38.136 38.136 0 01-2.95-6.951c-1.863-6.019-1.902-11.378-1.591-15.028 2.988-4.311 6.287-7.612 9.625-10.175 1.281-.971 2.368-2.291 4.269-2.951 2.717-.932 4.114 0 6.133-.621 3.338-1.049 4.774-5.359 5.395-7.146 2.367-7.067-.544-14.057-2.407-18.213-1.669-3.805-6.016-13.242-16.611-20.62-10.907-7.611-32.719-16.077-47.158-5.087-2.484 1.903-8.15 6.99-10.673 17.941z" fill="#fff"/><path d="M334.486 141.643c-2.484-.427-8.771-1.903-12.847-7.301-6.21-8.193-2.872-19.649.582-25.707 5.434-9.514 15.331-12.815 27.751-16.97 7.375-2.447 14.4-4.777 23.948-4.389 5.278.234 23.171 1.01 33.883 14.33 6.365 7.883 7.064 16.349 8.461 33.047.66 7.65.155 11.805-1.164 15.766-.971 2.874-4.114 12.078-13.158 15.767-4.735 1.942-9.121 1.553-11.527 1.165 2.174-3.223 4.347-6.408 6.559-9.631 1.242.078 5.667.155 9.044-2.912 4.618-4.233 5.433-12.66 2.057-14.912-2.484-1.67-7.413-.039-11.683 3.805-.388-2.446-1.009-5.126-2.057-7.883-4.89-13.164-15.525-20.387-20.726-23.378-2.057 2.641-8.577 10.369-20.143 13.437-9.16 2.407-16.768.699-20.144-.311l1.164 16.077z" fill="#5222D0"/><path d="M332.546 126.653c1.591 12 3.26 24.465 9.12 35.261 4.813 8.854 12.576 16.427 22.551 18.951.737.194 1.047-.932.31-1.126-9.858-2.525-17.466-10.136-22.123-18.951-5.55-10.485-7.142-22.523-8.694-34.135-.117-.737-1.281-.737-1.164 0z" fill="#161616"/><path d="M364.216 181.02c7.026 0 14.4-3.767 19.911-7.805a46.248 46.248 0 0013.352-15.378c.349-.66-.66-1.243-1.009-.583-3.144 5.903-7.53 11.029-12.925 14.951-5.395 3.961-12.536 7.65-19.329 7.65-.776 0-.776 1.165 0 1.165z" fill="#161616"/><path d="M384.089 172.283c-.777 7.844.737 15.689 4.308 22.717.349.661 1.358.078 1.009-.582-3.493-6.874-4.89-14.485-4.153-22.135.078-.738-1.087-.738-1.164 0z" fill="#161616"/><path d="M367.205 180.826a123.056 123.056 0 013.105 13.475c.505 3.029.699 6.446 4.075 7.572 5.046 1.709 12.498-1.32 14.439-6.329.271-.699-.854-1.01-1.126-.311-1.087 2.835-3.804 4.388-6.598 5.204-2.329.66-5.861 1.359-7.84-.544-1.165-1.126-1.32-2.913-1.553-4.427a200.255 200.255 0 00-.854-4.777c-.698-3.417-1.513-6.834-2.484-10.174-.232-.699-1.358-.388-1.164.311z" fill="#161616"/><path d="M368.874 185.641c6.909-.893 11.45-6.174 14.788-11.844.388-.66-.621-1.242-1.009-.582-3.067 5.281-7.336 10.446-13.779 11.261-.737.117-.737 1.282 0 1.165z" fill="#161616"/><path d="M368.602 181.68c5.395-.621 10.247-3.145 13.856-7.223.505-.544-.31-1.398-.815-.815-3.376 3.844-7.956 6.291-13.041 6.873-.698.078-.737 1.243 0 1.165z" fill="#161616"/><path d="M368.796 180.826c4.347-.622 8.267-2.408 11.605-5.243.583-.505-.271-1.32-.815-.815-3.182 2.718-6.947 4.388-11.1 4.97-.738.078-.427 1.204.31 1.088z" fill="#161616"/><path d="M368.564 181.797c.194.932.155 2.796 1.319 3.107 1.126.31 2.834-1.01 3.726-1.554 3.067-1.864 5.628-4.388 7.646-7.339.427-.622-.582-1.204-1.009-.583-1.436 2.136-3.182 4.039-5.239 5.592-.971.738-1.98 1.359-3.028 1.942-.427.233-1.397.893-1.824.621-.272-.155-.388-1.825-.427-2.097-.194-.738-1.32-.427-1.164.311z" fill="#161616"/><path d="M369.107 182.884a48.11 48.11 0 009.431-5.126c.621-.427.039-1.436-.582-1.009a45.569 45.569 0 01-9.16 5.009c-.698.272-.388 1.398.311 1.126z" fill="#161616"/><path d="M369.689 184.049c3.726-1.32 6.986-3.378 9.703-6.252.505-.544-.31-1.359-.815-.815-2.6 2.679-5.667 4.698-9.198 5.941-.699.272-.389 1.398.31 1.126z" fill="#161616"/><path d="M370.31 183.428c2.756-1.204 5.279-2.835 7.452-4.932.543-.505-.272-1.32-.815-.816-2.135 2.02-4.541 3.573-7.219 4.738-.699.311-.116 1.32.582 1.01zm-31.71-27.261c-6.326-2.253-8.422-10.524-7.801-16.505.66-6.562 6.559-13.708 13.778-10.64 3.455 1.476 4.735 5.281 5.667 8.66.97 3.573 1.397 7.534.466 11.184-.815 3.223-2.795 6.291-5.9 7.689-3.105 1.398-6.792.621-8.888-2.058-.466-.583-1.281.233-.815.815 3.532 4.544 10.169 3.651 13.74-.349 4.541-5.087 4.075-12.815 2.134-18.912-.892-2.835-2.057-5.786-4.657-7.417-2.251-1.437-5.123-1.787-7.646-1.126-5.9 1.592-8.966 7.844-9.082 13.552-.117 6.253 2.328 13.98 8.771 16.233.621.233.932-.893.233-1.126z" fill="#161616"/><path d="M352.029 144.556c3.804-2.291 8.423-2.524 12.382-.544.659.35 1.242-.66.582-1.009-4.347-2.175-9.393-1.981-13.585.543-.582.389 0 1.398.621 1.01z" fill="#161616"/><path d="M370.582 152.827c-4.386-4.233-6.21-10.796-4.502-16.698 1.785-6.136 7.917-11.417 14.515-9.243 7.297 2.408 7.685 12.854 5.783 18.99-1.125 3.611-3.376 7.223-7.102 8.543-3.726 1.32-6.948-.66-9.936-2.757-.621-.427-1.203.582-.582 1.01 2.445 1.747 5.084 3.495 8.189 3.378 2.95-.116 5.628-1.747 7.452-3.961 4.114-4.971 4.929-12.543 3.221-18.601-1.552-5.514-6.132-9.087-11.993-8.116-5.589.893-9.703 5.941-10.945 11.223-1.436 6.096.505 12.698 5.007 17.047.621.544 1.436-.31.893-.815zm-28.45-12.776c-.388 2.446.039 4.815 1.359 6.912.271.427.892.35 1.048-.155.931-2.68-.389-5.32-1.708-7.611-.272-.505-1.087-.272-1.087.31a16.657 16.657 0 001.242 5.981c.272.699 1.397.388 1.126-.311-.738-1.825-1.165-3.689-1.204-5.67-.349.117-.737.194-1.086.311 1.203 2.058 2.445 4.31 1.591 6.718.349-.039.699-.078 1.048-.155-1.164-1.825-1.591-3.884-1.242-6.019.155-.738-.97-1.049-1.087-.311z" fill="#161616"/><path d="M376.481 138.964c0-.505-.038-.622-.271-1.049-.272-.505-1.087-.272-1.087.311.039 2.408.233 5.009 2.096 6.718.388.35.931.078 1.009-.427.31-2.874-.543-5.553-2.329-7.806-.388-.466-1.087.039-.97.583a44.096 44.096 0 001.746 5.553c.272.699 1.398.388 1.126-.311a35.457 35.457 0 01-1.747-5.553c-.31.194-.659.389-.97.583 1.591 2.019 2.251 4.427 1.98 6.99.349-.156.659-.272 1.009-.427-1.669-1.515-1.747-3.806-1.786-5.903-.349.116-.737.194-1.086.311l.116.466c0 .699 1.164.699 1.164-.039zm-20.57 7.65c-.777 2.33-1.436 4.699-1.863 7.106-.233 1.282-1.048 3.689-.466 4.971 1.164 2.602 6.326 1.01 8.112.155.66-.31.077-1.32-.582-1.009-1.437.699-2.989 1.048-4.58.932-.932-.078-1.669-.233-1.863-1.282-.117-.582.271-2.097.388-2.757.465-2.68 1.164-5.281 2.018-7.844.194-.661-.932-.971-1.164-.272zm5.86 22.407c2.911-.389 5.434-2.253 6.715-4.932.31-.66-.699-1.282-1.009-.583-1.165 2.447-3.338 4.039-6.016 4.389-.737.116-.388 1.242.31 1.126zm-22.084-32.31a2.148 2.148 0 013.027-.272c.583.505 1.398-.349.815-.815-1.358-1.165-3.454-1.088-4.657.272-.505.543.31 1.359.815.815zm33.301-2.174c1.203-1.049 3.027-1.049 4.231-.039.582.466 1.397-.35.815-.816-1.708-1.475-4.192-1.437-5.9.039-.543.505.311 1.32.854.816zm15.292 5.359c4.192-1.476 8.5-2.369 12.964-2.602.737-.039.737-1.204 0-1.165-4.541.233-8.966 1.126-13.274 2.641-.699.271-.427 1.398.31 1.126z" fill="#161616"/><path opacity=".4" d="M394.063 91.51c2.329 2.99 11.295 15.261 9.626 32.114-.932 9.398-4.813 16.31-7.258 19.961a28.158 28.158 0 013.493-2.33c2.368-1.321 3.881-2.136 5.822-2.02.582.039 1.979.156 2.988.971 2.95 2.486 1.941 11.301-3.299 15.417-2.872 2.252-6.248 2.485-7.956 2.447-2.212 3.145-4.464 6.291-6.676 9.475 1.475.233 3.726.427 6.327.039 1.125-.156 5.627-.971 9.897-4.388 4.191-3.379 5.899-7.495 7.025-10.291 3.105-7.767 2.484-14.602 1.397-26.912-.466-5.475-.737-8.271-1.824-11.96-1.165-4-2.989-9.903-8.19-15.184-3.726-3.884-7.917-6.058-11.372-7.34z" fill="#3D3D3D"/><path opacity=".48" d="M356.571 124.712a94.699 94.699 0 0012.42-13.398 95.718 95.718 0 006.559-9.786c-.66 3.495-1.32 6.99-1.941 10.485a33.79 33.79 0 01-7.956 8.116 34.106 34.106 0 01-9.082 4.583z" fill="#3D3D3D"/><path opacity=".27" d="M384.166 120.285c2.95 9.825 3.183 18.057 2.911 23.494-.194 4.039-1.281 25.203-12.42 32.503-1.087.699-3.842 2.33-3.726 2.563.155.272 5.317-2.019 8.151-3.572 4.463-2.408 11.333-7.262 17.698-17.514 1.048.116 6.171.466 9.859-3.068 4.463-4.233 5.239-12.543 1.707-14.99-2.523-1.747-7.335-.272-11.566 3.223a47.805 47.805 0 00-1.708-5.63c-2.91-7.689-7.296-13.281-10.906-17.009z" fill="#3D3D3D"/><path opacity=".36" d="M374.812 178.535c1.01 3.107 2.019 6.213 3.028 9.359 1.397 4.271 2.755 8.582 4.114 12.854.776-.156 2.678-.699 4.347-2.408a9.466 9.466 0 002.406-4.349 38.738 38.738 0 01-3.92-13.281 37.675 37.675 0 010-7.845 825.225 825.225 0 01-9.975 5.67z" fill="#3D3D3D"/><path opacity=".43" d="M355.445 147.973c-1.941 4.155-3.881 8.272-5.822 12.427 3.183-.078 6.327-.117 9.509-.194-1.863-.583-3.765-1.165-5.628-1.748.621-3.495 1.281-6.99 1.941-10.485z" fill="#3D3D3D"/></svg>