<svg width="36" height="36" fill="none" xmlns="http://www.w3.org/2000/svg"><path d="M4.896 34.6h20.541a3.936 3.936 0 002.755-1.128 3.81 3.81 0 001.141-2.722v-11.9c0-.279-.112-.546-.31-.742a1.069 1.069 0 00-1.503 0c-.2.196-.312.463-.312.742v11.9c0 .464-.186.91-.518 1.237a1.782 1.782 0 01-1.253.513H4.896c-.47 0-.92-.184-1.252-.513a1.74 1.74 0 01-.519-1.237v-20.3c0-.464.187-.91.519-1.237A1.782 1.782 0 014.896 8.7h12.041c.282 0 .552-.11.752-.308a1.044 1.044 0 000-1.484c-.2-.197-.47-.308-.752-.308H4.896A3.92 3.92 0 002.14 7.728 3.827 3.827 0 001 10.45v20.3c0 1.021.41 2 1.141 2.722A3.92 3.92 0 004.896 34.6z" fill="#009051" stroke="#009051" stroke-width=".8"/><path d="M28.356 2.134l-14.677 14.49a1.05 1.05 0 00-.297.532l-1.049 4.956a1.037 1.037 0 00.22.877 1.06 1.06 0 00.829.383h.212l5.015-.994c.205-.043.392-.146.538-.294L31.814 9.568l1.997-1.974a3.822 3.822 0 00.931-2.64 3.829 3.829 0 00-1.12-2.565 3.926 3.926 0 00-5.264-.255zm-10.441 18.2l-3.13.616.623-3.094 11.687-11.55 2.508 2.478-11.688 11.55zm14.45-14.28l-1.247 1.232-2.521-2.436 1.246-1.232a1.774 1.774 0 011.254-.513 1.791 1.791 0 011.254.513 1.751 1.751 0 01.52 1.24 1.734 1.734 0 01-.52 1.238l.014-.042z" fill="#009051" stroke="#009051" stroke-width=".8"/></svg>