<svg version="1.1" id="Слой_1" xmlns="http://www.w3.org/2000/svg" x="0" y="0" viewBox="0 0 717 621" xml:space="preserve"><style>.st0{fill:#c7c7c7}.st1{fill:#ffd600}.st2{fill:#161616}.st4{fill:#fff}.st5,.st6{opacity:.13;fill:#666;enable-background:new}.st6{opacity:.11}.st12,.st13{opacity:.3}.st13{fill:#ffd600;enable-background:new}</style><path class="st0" d="M550.2 570H44.6c-1 0-1-1.6 0-1.6h505.6c1.1 0 1.1 1.6 0 1.6zm-113 11.3H249.8c-1 0-1-1.6 0-1.6h187.4c1 0 1 1.6 0 1.6zm-163.4 11.1H93.4c-1 0-1-1.6 0-1.6h180.4c1 .1 1 1.6 0 1.6zm268.2-8.8h-59.1c-1 0-1-1.6 0-1.6H542c1.1 0 1.1 1.6 0 1.6zm-40.8-62c-2.1 15.6-5.7 31.1-10.6 46-.3.9-1.8.5-1.5-.4 4.9-15 8.5-30.4 10.6-46 .1-1 1.6-.6 1.5.4z"/><path class="st0" d="M500.5 522.2c-18.5 6.8-38.8 7.6-57.7 2.1-1-.3-.6-1.8.4-1.5 18.7 5.4 38.6 4.7 56.9-2.1 1-.3 1.4 1.2.4 1.5z"/><path class="st0" d="M443.8 523.9c1.2 15.2 3.3 30.3 6.3 45.2.2 1-1.3 1.4-1.5.4-3.1-15.1-5.2-30.3-6.4-45.6 0-1 1.5-1 1.6 0zM500 522c-1.8-.6-3.8.2-5.6.5-2 .3-3.9.4-5.9.5-1 0-1-1.6 0-1.6 2.5-.1 4.9-.3 7.4-.7 1.6-.3 3-.7 4.5-.2 1 .3.6 1.8-.4 1.5z"/><path class="st0" d="M458.4 524.1c-5.1.1-10.2.3-15.2.6-1 .1-1-1.5 0-1.6 5.1-.3 10.1-.5 15.2-.6.9 0 .9 1.6 0 1.6zm35.4-.8c-2.1.5-4.3 1-6.3 1.5-1 .3-1.4-1.3-.4-1.5 2.1-.5 4.3-1 6.3-1.5 1-.2 1.4 1.3.4 1.5z"/><path class="st0" d="M458.4 523.1c1.2.3 1.6 1.9.4 2.5-1.1.5-3.5-.1-4.7-.2-1.8-.1-3.6-.3-5.4-.4-1-.1-1-1.6 0-1.6 1.7.1 3.4.2 5 .4.8.1 1.6.1 2.3.2.4.1.8.1 1.1.1.7-.2.9 0 .8.6-.9-.3-.5-1.8.5-1.6zm34.4 35.9c-2.2 3.9-5.1 7.4-8.6 10.1-.8.6-1.9-.5-1.1-1.1 3.4-2.7 6.2-6 8.4-9.8.4-.9 1.7-.1 1.3.8zm5.6-22c-7.5 12.1-16.9 22.9-27.8 32.1-.8.6-1.9-.5-1.1-1.1 10.8-9 20.1-19.7 27.6-31.8.5-.8 1.8-.1 1.3.8zm-2.9-13.6c-5 8.9-10.2 17.8-17.1 25.3-7.3 7.9-16 14.6-24.5 21-.8.6-1.6-.8-.8-1.4 8.5-6.3 17.1-12.9 24.2-20.7 6.8-7.4 11.9-16.3 16.8-25 .6-.8 1.9 0 1.4.8zm-15.2 3.6c-8.1 12.9-19.1 23.7-32.2 31.5-.9.5-1.7-.8-.8-1.4 12.8-7.7 23.7-18.3 31.6-31 .6-.7 1.9.1 1.4.9zm-17.7.9c-4.4 6.4-9.6 12.2-15.7 17-.8.6-1.9-.5-1.1-1.1 6-4.8 11.2-10.4 15.4-16.7.6-.8 2 0 1.4.8zm-11.3-1.3c-2 2.8-4.2 5.3-6.7 7.6-.7.7-1.9-.4-1.1-1.1 2.4-2.2 4.6-4.7 6.5-7.3.5-.7 1.9 0 1.3.8zM155 528.3c-1.7 13.8-4.3 27.5-7.9 40.9-.3 1-1.8.6-1.5-.4 3.6-13.3 6.2-26.8 7.9-40.5.1-1 1.7-1 1.5 0z"/><path class="st0" d="M154.1 528.7c-14 3.9-28.7 3.9-42.7.2-1-.3-.6-1.8.4-1.5 13.7 3.7 28.2 3.7 41.9-.2 1-.3 1.4 1.2.4 1.5z"/><path class="st0" d="M112.2 528.3c.9 13.9 3.5 27.5 7.9 40.7.3.9-1.2 1.4-1.5.4-4.4-13.3-7.1-27.1-8-41.1-.1-1 1.5-1 1.6 0zm29 1.4c2.7-3.6 4.8-7.6 6.1-11.9.6-2.1 1.1-4.2 1.4-6.4.3-2 1.4-6.1-1.6-6-.5 0-.9-.5-.7-1 .7-2.1 1.1-4.1 1.2-6.3.2.3.4.5.6.7-1.5-.5-2.1-1.7-2.4-3.2-.5-3-.3-6.4-.3-9.5-.2-7.1-.4-14.2-.6-21.4.4.2.8.5 1.2.7-4.6 3.1-6.7 9.5-8.5 14.6a84.8 84.8 0 00-3.8 16.4c-1.6 11.4-1.5 22.9-.9 34.4.1 1-1.5 1-1.6 0-.6-12.2-.7-24.6 1.2-36.6 1-6 2.4-12 4.7-17.6 1.8-4.6 3.8-9.6 8-12.5.5-.4 1.1.1 1.2.7.2 5.4.3 10.9.4 16.3.1 2.7.2 5.4.2 8.2.1 1.7-.7 7.4 1.5 8.2.3.1.6.4.6.7-.1 2.3-.5 4.5-1.2 6.7-.3-.3-.5-.7-.7-1 1.6-.1 3.2.3 3.4 2 .4 2.7-.3 5.9-.8 8.6-1.2 5.9-3.7 11.3-7.3 16.2-.5.6-1.9-.2-1.3-1z"/><path class="st0" d="M132.2 494.1c-1.3-4.7-2.9-9.4-4.5-14 .4.2.8.3 1.1.5-.5.3-1 .7-1.6 1-.4.2-.8.1-1.1-.3-3.7-6.3-7.5-12.5-11.2-18.8.5-.2 1-.3 1.5-.4-2.2 23.1 1.4 46.5 10.5 67.9.4.9-.9 1.7-1.3.8-9.2-21.6-13-45.3-10.7-68.7.1-.7 1-1.1 1.5-.4 3.7 6.3 7.5 12.5 11.2 18.8-.4-.1-.7-.2-1.1-.3.5-.3 1-.7 1.6-1 .5-.3 1 0 1.1.5 1.7 4.6 3.2 9.3 4.5 14 .2.9-1.3 1.4-1.5.4zm21.2 34.6c-3 .1-5.9.3-8.8.4-1 .1-1-1.5 0-1.6 3-.1 5.9-.3 8.8-.4 1 0 1 1.6 0 1.6z"/><path class="st0" d="M146.2 529c-1 .4-2 .8-3.1.9-1 .2-1.4-1.4-.4-1.5.9-.2 1.9-.4 2.7-.8.9-.3 1.7 1 .8 1.4zm-21.4.6c-4.3-.6-8.6-1-12.9-1.3-1-.1-1-1.6 0-1.6 4.5.3 8.9.7 13.3 1.4 1 .1.5 1.7-.4 1.5z"/><path class="st0" d="M125.3 530.3c-2.3-.4-4.6-.6-7-.8-1-.1-1-1.6 0-1.6 2.5.2 4.9.5 7.4.8 1 .3.6 1.7-.4 1.6zm27.5 6c-3.4-.1-6.2 1.9-9.5 2.4-3.7.5-6-2.6-9.4-2.5-3.5.1-6.5 2.4-10 2.4-1.6 0-3.1-.3-4.5-.9-2.1-.8-4-2.5-6.3-1.6-.9.4-1.3-1.2-.4-1.5 3.2-1.3 5.8 1.4 8.8 2.1 4.3 1 7.6-1.5 11.7-2 3.8-.4 6.4 3 10.1 2.5 3.3-.5 6.2-2.5 9.6-2.4 1 0 1 1.6-.1 1.5zm-.7 8.3c-12.6 5-26.6 5.2-39.3.4-.9-.4-.5-1.9.4-1.5 12.4 4.7 26.1 4.5 38.4-.4 1.1-.4 1.5 1.1.5 1.5z"/><path d="M167.7 298.8c-6.9 2-14.4 2.2-21.4 3-8 .9-16 1.7-24 2.6l-47.4 5.1c-1 .1-1-1.5 0-1.6 15.5-1.7 30.9-3.3 46.4-5 7.6-.8 15.3-1.7 22.9-2.5 7.6-.8 15.7-1 23.1-3.1.9-.3 1.3 1.2.4 1.5zm-111-26.3c5.1 11.5 11 22.7 17.8 33.3.5.8-.8 1.6-1.3.8-6.8-10.7-12.8-21.8-17.8-33.3-.5-.9.9-1.7 1.3-.8z"/><path d="M166.7 298.2c-10.6-7.7-20.9-15.8-30.7-24.5-.8-.7.4-1.8 1.1-1.1 9.8 8.5 19.9 16.6 30.3 24.2.9.7.1 2.1-.7 1.4z"/><path d="M136.3 273.6c-13.2-1.6-26.5-.5-39.7.2-13.4.7-26.9 1.4-40.4 2-1 .1-1-1.5 0-1.6 13.4-.7 26.9-1.4 40.4-2 13.2-.7 26.6-1.7 39.7-.2 1 .1 1 1.7 0 1.6zm-16.9 9.9c.8 1.4 1.7 2.8 2.5 4.2.3.5-.1 1.2-.7 1.2-1.9-.1-3.7-.1-5.6.2-1 .1-2.8.8-3.9.5-1.7-.6-2.8-3.7-3.5-5-.5-.9.9-1.7 1.3-.8.5.9.9 2 1.6 2.8 1.1 1.3 2.1 1.3 3.7 1 2.1-.3 4.3-.4 6.4-.3-.2.4-.5.8-.7 1.2-.8-1.4-1.7-2.8-2.5-4.2-.5-.8.8-1.6 1.4-.8z"/><path d="M118.3 284.3c-3-.8-5.9-.8-8.8.5-.9.4-1.7-.9-.8-1.4 3.3-1.5 6.6-1.6 10.1-.6.9.2.5 1.8-.5 1.5zm24 1.2c-2.7-.1-5.4.2-8 .8-1 .3-1.4-1.3-.4-1.5 2.8-.7 5.6-1 8.5-.9.9.1.9 1.6-.1 1.6z"/><path d="M142 284.8c-1.7-1.8-3.4-3.6-5.2-5.2-.7-.7.4-1.8 1.1-1.1 1.8 1.7 3.5 3.4 5.2 5.2.6.7-.4 1.9-1.1 1.1z"/><path d="M137.8 279.6c-2.3 1.2-5.2.8-7.8.9-1 .1-1-1.5 0-1.6 2.1-.1 5 .3 7-.7.9-.3 1.7 1 .8 1.4z"/><path d="M131.1 279.5c1.2 1.7 2.5 3.5 3.6 5.3.5.8-.8 1.6-1.3.8-1.1-1.8-2.3-3.6-3.6-5.3-.6-.8.8-1.6 1.3-.8z"/><path class="st1" d="M160.4 346.1c-3.9 0-7-3.2-7-7.1s3.1-7.1 7-7.1 7 3.2 7 7.1-3.1 7.1-7 7.1zm-13.8-15.5c-2 0-3.7-1.7-3.7-3.7s1.6-3.7 3.7-3.7 3.7 1.7 3.7 3.7-1.7 3.7-3.7 3.7z"/><path class="st2" d="M221.8 84.1c-5 0-9-4.1-9-9.1s4-9.1 9-9.1 9 4.1 9 9.1c0 5.1-4.1 9.1-9 9.1zm273.6 226.8c-2.7 0-4.9-2.2-4.9-5s2.2-5 4.9-5 4.9 2.2 4.9 5-2.2 5-4.9 5z"/><path class="st1" d="M488.9 300.9c-2.9 0-5.3-2.4-5.3-5.3s2.4-5.3 5.3-5.3 5.3 2.4 5.3 5.3-2.4 5.3-5.3 5.3z"/><path d="M230.4 81.8c-4.4 0-7.9-3.6-7.9-7.9 0-4.4 3.5-7.9 7.9-7.9s7.9 3.6 7.9 7.9c0 4.4-3.5 7.9-7.9 7.9z" fill="#ec615b"/><path class="st1" d="M202.9 194.3c-.1-1.1-.6-1.6-1.5-1.5-.5-.1-1-.2-1.5-.1-.6 0-1.1.1-1.7 0-.8-.2-1.6-.4-2.1-1-.6-.7-.7-1.5-.8-2.4-.5-2.8-2.4-1.8-4.3-1.4-2 .5-3.7.1-5-1.6-.7-.9-1.2-2-1.7-3-.6-1.3-3.6-5.1-4.7-2-.3.9-1.8.5-1.5-.4.8-2.5 3.8-2.7 5.6-1.2 1.6 1.4 2 3.6 3.3 5.2 2.1 2.9 4.4.5 7.1.6 1.1.1 1.9.6 2.4 1.6.7 1.5-.1 2.2 1.6 3.2 1.5 1 1.9.4 3.5.6 2.1.3 4.3 2.9 2 4.5-.7.9-1.4-.5-.7-1.1zm-6.9 4.4c.8-1.1.5-1.7-.9-1.8-.8-.7-1.8-.8-2.7-.4-.5.1-1 .2-1.5.2-1.2.1-2.1-.1-3.2-.6-.4-.2-.5-.7-.3-1.1 1.8-3.7-3.8-4.3-5.8-4.4-1.6-.1-3.2 0-4.8-.6-2-.8-3.3-2.2-3.5-4.3-.1-1 1.5-1 1.6 0 .5 5.1 8.8 2.5 11.8 4.4 2.1 1.3 3.1 3.6 2 5.8-.1-.4-.2-.7-.3-1.1 2.6 1.3 6.6-1.5 8.8 1.2 1.1 1.3.9 3.2-.5 4.1-.8.5-1.5-.9-.7-1.4z"/><path class="st2" d="M385.4 98.6c1.2-4.6-4.4-8.4-7.8-4.7-3.5 3.8.7 9 5.2 7.5.9-.3 1.3 1.2.4 1.5-6 2-11.2-5.3-6.7-10.1 4.5-4.9 12 .1 10.4 6.2-.2 1-1.7.6-1.5-.4zm-1.1 379.1c-4.1 7.1-12 11.2-20.1 10.7-1-.1-1-1.6 0-1.6 7.6.5 14.9-3.3 18.8-9.9.5-.9 1.8-.1 1.3.8zm3.2 9c-5.4 5.6-12.7 8.9-20.5 9.3-1 .1-1-1.5 0-1.6 7.4-.4 14.2-3.5 19.4-8.9.6-.6 1.8.5 1.1 1.2zm83.2-411.8c-4.3.4-7.9 3-9.8 6.8-.5.9-1.8.1-1.3-.8 2.2-4.3 6.3-7.2 11.2-7.6.9-.1.9 1.5-.1 1.6zm-.4-15.2c-7.1 3.4-12.6 9.2-15.6 16.5-.4.9-1.9.5-1.5-.4 3.2-7.7 8.9-13.9 16.3-17.4.9-.4 1.7.9.8 1.3zm-16.8-1.9c-3.2 3.7-4.8 8.2-4.8 13.1 0 1-1.6 1-1.6 0-.1-5.3 1.8-10.2 5.2-14.2.8-.7 1.9.4 1.2 1.1z"/><path class="st1" d="M216.7 498c.7-4.7-4.5-9-8.4-5.2-3.6 3.4.8 9 4.8 6.4.8-.6 1.6.8.8 1.4-5.2 3.4-11.3-3.6-7.2-8.4 4.8-5.6 12.3-.1 11.5 6.3-.1.9-1.6.5-1.5-.5zm-6.4-24.6c.8-2.7-2.6-4.8-4.3-2.4-1.6 2.2 1 4.8 3.3 3.6.9-.5 1.7.9.8 1.4-3.8 2-7.9-2.5-5.2-6 2.8-3.6 8.2-.4 7 3.9-.4.8-1.9.5-1.6-.5z"/><path class="st2" d="M293.6 494c1.7.1 2.9.9 5.2 2.6 2.7 1.9 6 4.8 9.1 8.8-1.2 5.3-3 11.3-5.9 17.7-7.8 17.5-19.5 28.7-27.3 35-1.1-1.3-2.6-3.4-3.3-6.2-.9-3.9.1-7.2.7-8.8 1.9-6.2 3.2-12.6 4.9-19 3.5-13.1 1.7-14.6 5.2-20.6 1-1.9 5.7-10 11.4-9.5z"/><path class="st4" d="M256.2 346c-1.9 3.8-4.1 8.8-6.2 15.1-5.1 15.3-5.7 27.9-5.9 32.1-.2 5.2-.3 20.5 5.9 38.9 7 20.9 18.1 34.3 25.4 42.9 7.2 8.5 14.2 14.8 19.2 19 0 1.3-.2 3.6-1.6 5.9-3.4 5.3-10.3 5.2-10.7 5.2-4.2-3-9.4-7-14.9-12.1-9.5-8.8-15.7-16.7-18.2-20-4.2-5.5-11.8-15.8-17.8-31.1-6.6-16.6-8.4-31.6-8.8-41.9-.4-11.2.8-19.2 2.6-30.4 2.9-18.5 6.5-25.9 9.1-30.4 2.4-4.1 4.8-7.2 6.5-9.1 5 5.2 10.2 10.5 15.4 15.9z"/><path class="st2" d="M256.7 348.1c-10.4 20-14.2 43.4-10.5 65.8 3.4 20.4 12.9 39.3 25.5 55.4 7 8.9 14.9 16.9 23.6 24.2.8.6-.4 1.8-1.1 1.1-15.9-13.5-29.7-29.7-39.1-48.4-9.8-19.6-13.8-41.5-10.9-63.3 1.6-12.4 5.4-24.5 11.2-35.5.4-1 1.7-.2 1.3.7z"/><path class="st2" d="M237.9 333.7c-11.7 22.1-16.4 47.6-14.1 72.5 2.4 25.6 12.6 49.4 28.6 69.3 8.9 11 19.2 20.8 30.3 29.5.8.6-.3 1.7-1.1 1.1-20.1-15.9-38.1-35.5-48.8-59.2-10.3-22.8-13.4-48.8-9.6-73.5 2.2-14.2 6.6-27.9 13.3-40.5.6-.9 1.9-.1 1.4.8z"/><path class="st2" d="M295.6 493.9c-.9 7.1-6.6 14.7-14.5 11.7-.9-.4-.5-1.9.4-1.5 6.8 2.7 11.7-4 12.5-10.1.2-1.1 1.7-1.1 1.6-.1z"/><path class="st2" d="M296.1 493.7c5 2.6 9.1 6.3 12.3 10.9.6.8-.8 1.6-1.3.8-3.1-4.4-7.1-7.9-11.7-10.4-1-.4-.2-1.7.7-1.3z"/><path class="st2" d="M308.2 506.1c-4.8 20.5-16.2 39.2-32.7 52.2-.8.6-1.9-.5-1.1-1.1 16.3-12.9 27.6-31.2 32.3-51.5.3-1 1.8-.6 1.5.4z"/><path class="st2" d="M282.5 505.8c-2.3 8.7-4.6 17.3-6.9 26-2.1 7.9-6.5 18.6-.4 25.8.7.8-.5 1.9-1.1 1.1-5.7-6.7-3.1-15.7-1.1-23.3 2.6-10 5.3-20 8-30 .3-1 1.8-.6 1.5.4zM250.2 359c-4-6.8-11.5-10.9-19.4-10.6-1 .1-1-1.5 0-1.6 8.5-.3 16.4 4.1 20.8 11.4.5.9-.8 1.7-1.4.8zm-5.8 22.6c-3.3-4.1-7.8-6.6-12.9-7.4-1-.2-.6-1.7.4-1.5 5.4.8 10.2 3.6 13.6 7.8.6.8-.4 1.9-1.1 1.1zm-2.5-15.8c-4.1-3.5-9.3-5.2-14.6-5-1 .1-1-1.5 0-1.6 5.8-.2 11.3 1.7 15.8 5.5.7.7-.4 1.8-1.2 1.1zm2 45.5c-2.2-2.8-6.1-2.7-9.3-2.6-3.9.2-8.7 1.5-9.3 6.1-.1 1-1.7 1-1.6 0 .6-4.5 4.4-6.9 8.6-7.5 4-.6 9.9-.7 12.7 2.9.6.8-.5 2-1.1 1.1zm41.6 74.3c-.4 6.1-3.3 14-10.2 14.7-1 .1-1-1.5 0-1.6 5.9-.7 8.4-8.1 8.7-13.2 0-.9 1.6-.9 1.5.1zm-10.4-10.7c-.9 4.6-3.5 8.5-7.3 11.2-.8.6-1.6-.8-.8-1.4 3.4-2.5 5.7-6.1 6.5-10.3.3-.9 1.8-.5 1.6.5zm-8.8-.5c-2.4 3.1-5.2 6.3-9.2 7.1-1 .2-1.4-1.3-.4-1.5 3.8-.7 6.3-3.8 8.6-6.7.6-.9 1.6.3 1 1.1zm-11.8-30.1c-6.7-.3-13 2.1-18 6.6-.7.7-1.9-.4-1.1-1.1 5.2-4.8 12-7.4 19.1-7.1 1 .1 1 1.7 0 1.6zm-9.9-14.4c-3.9-.4-7.6.7-10.7 3.1-.8.6-1.9-.5-1.1-1.1 3.4-2.7 7.5-4 11.8-3.6 1 .1 1 1.7 0 1.6z"/><path class="st5" d="M241.5 337.8c-2.2 6.7-4.8 16.3-6.7 27.9-1.9 11.8-4.5 27-1.9 45.3 2.5 18.1 8.9 30.8 13.5 40 12.1 24 28.6 41.2 42.7 52.8 2.1-3.4 4.3-6.8 6.4-10.2-4.1-2.6-9.9-6.7-15.7-12.8-5.6-5.8-8.9-10.9-13.9-18.5-6.2-9.6-9.5-14.7-12.7-21.9-8-18-8.9-34-9-38.1-.5-13.2 1.9-23.3 4.5-34.3 1.9-7.9 3.9-14.5 5.6-19.2-4.3-3.7-8.6-7.3-12.8-11z"/><path class="st5" d="M245.6 348.4c-1.1 2.9-2.5 7-3.7 12.1-2 8.3-2.8 16.5-2.6 26.4.3 18.7.6 35.9 7.5 53.9 11.7 30.7 36.2 47.9 47.9 55.1-5.5-5.9-13.1-14.4-21.3-25.3-10.1-13.1-15-19.7-19.1-27.9-13.9-28.2-10.2-56.1-9-63.8 1.8-11.3 5.1-20.3 7.9-26.4-2.6-1.3-5.1-2.7-7.6-4.1z"/><path class="st4" d="M327 358.7c2.2 2.5 2.1 5.4 2.9 16.4 1.2 15.9 1.7 12.6 2.3 23.3 2 34.3-1 64.5-1 64.5-.9 9.3-4 37.9-12.7 67.8-4.5 15.4-12 36.7-12.3 37.6-2.2 6.3-4.2 11.5-5.5 15.1-.3.2-8.2 4.7-14 1-.9-.6-3.3-2.2-3.9-5.2-.5-2.5.6-4.5 1-5.2 1.7-5.2 4.2-13 6.8-22.6 4.4-16 10.8-40 13.3-71 .9-11.9.9-20.3 1-34.7 0-13.7 0-29.1-2-48.8-.9-9.4-2.5-22.2-5.5-37.3 7.5-2.9 23.5-7.8 29.6-.9z"/><path class="st2" d="M300.9 584.4c-.8 2-1.7 4.9-1.9 8.3-.3 2.7-.1 5 .2 6.8-4.4 2.5-8 3.8-10.7 4.5-1.7.5-3.4.9-6.5 1.6-3.5.8-6.2 1.4-7.3 1.6-10.9 2.3-16.4 3.4-22.8 3.9-2.6.2-6.5.4-11.3.2-.9-1.5-2.8-5-1.6-8.3.9-2.6 3.3-3.9 7.5-6 8.8-4.5 13.2-6.8 13.3-6.8 5.4-2.1 13-6.1 22.5-13.9.8 1.4 2.9 4.6 7 6.7 5.1 2.8 10.2 1.7 11.6 1.4z"/><path class="st2" d="M330.4 371.3c7.3 56.2 2.7 113.9-13.3 168.2-4.5 15.2-9.9 30.2-16.1 44.7-.4.9-1.7.1-1.3-.8 22.2-51.9 33.3-108.4 32.6-164.9-.2-15.8-1.3-31.6-3.4-47.3-.1-.9 1.4-.9 1.5.1zm-28.3 5.4c5.5 51.9 5.4 105-5.8 156.2-3.2 14.4-7.2 28.5-12.1 42.3-.4.9-1.9.5-1.5-.4 17.7-49.1 23-101.9 21.1-153.9-.5-14.7-1.7-29.5-3.2-44.2-.1-1 1.4-1 1.5 0z"/><path class="st2" d="M300.2 584.5c-7 2.1-14.8-1.4-17.8-8.2-.4-.9.9-1.7 1.3-.8 2.7 6.1 9.7 9.4 16.1 7.5 1-.3 1.4 1.2.4 1.5z"/><path class="st2" d="M301.3 584.4c-1.2 4.3-1.8 8.7-1.7 13.1 0 1-1.6 1-1.6 0-.1-4.6.5-9.1 1.7-13.5.3-1 1.8-.6 1.6.4z"/><path class="st2" d="M299.6 599.1c-7.3 5.8-17.3 6.7-26 8.6-10.5 2.2-21.3 5.3-32.2 4.7-1-.1-1-1.6 0-1.6 10.4.6 20.6-2.2 30.8-4.4 8.7-1.8 19.1-2.7 26.4-8.4.7-.6 1.8.5 1 1.1z"/><path class="st2" d="M282.5 576.7c-6.8 6.3-14.9 10.7-23.2 14.8-4.2 2.1-8.4 4.1-12.6 6.2-2.1 1-4.3 2.1-5.8 4-2.3 2.9-1 6.5.3 9.6.4.9-.9 1.7-1.3.8-1.6-3.9-3-8.2.2-11.7 3.2-3.6 8.8-5.4 13-7.5 10-4.9 20.1-9.8 28.4-17.3.6-.7 1.7.4 1 1.1zm49.8-177.4c-8.7 4.5-18.8 5.5-28.2 2.8-.9-.3-.6-1.8.4-1.5 9 2.7 18.7 1.8 27-2.6.9-.5 1.7.9.8 1.3zm.6 16.1c-5.4 2.5-11.2 3.4-17.2 2.7-1-.1-1-1.7 0-1.6 5.6.7 11.2-.1 16.4-2.5.9-.4 1.7 1 .8 1.4zm-.3 35.9c-3.9 2.7-8.7 3.4-13.4 2.9-4.8-.5-10.6-1.6-14.7-4.2-.8-.5-.1-1.9.8-1.4 3.8 2.4 9.5 3.4 14 4 4.4.5 8.9-.1 12.6-2.7.8-.5 1.5.8.7 1.4zm-2.8 22.8c-8.5 3.5-18.2 2.7-26-2.1-.9-.5-.1-1.9.8-1.4 7.6 4.5 16.7 5.2 24.8 1.9.9-.3 1.2 1.2.4 1.6zm-8 43.1c-8 2.9-15.9-.8-22.7-5-.8-.5-.1-1.9.8-1.4 6.5 4 13.8 7.5 21.5 4.8.9-.2 1.4 1.3.4 1.6zm-26.5 21.1c2.6 2.9 5.8 4.8 9.5 5.8 1 .3.6 1.8-.4 1.5-4-1-7.5-3.1-10.2-6.1-.6-.8.4-1.9 1.1-1.2zm12.9 25.8c-3.4-.5-6.5-1.6-9.5-3.3-.9-.5-.1-1.8.8-1.4 2.9 1.6 5.9 2.7 9.1 3.1 1 .2.6 1.8-.4 1.6z"/><path class="st6" d="M310.4 366.2c2 7.1 4.5 17.5 6 30.2 2.1 18.1 1 31.6-.4 47.1-4.8 53.5-7.3 80.6-13.1 98.1-5.6 16.7-12.1 29.7-16.9 38.1.2.3 4.7 5.6 10.5 4.5 2.1-.4 3.6-1.5 4.5-2.2 4.1-9.4 9.5-22.7 14.6-39.3 4.3-13.7 17.1-57.7 17.6-117.7.1-14.8-.5-34.5-3.4-57.7-6.4-.4-12.9-.8-19.4-1.1z"/><path class="st6" d="M329.9 379.7c-.7 28.3-2.8 52.2-4.9 70.2-3.5 31.3-6.1 52.8-14.6 80-6.8 22-15 39.4-21.3 51.3 3.7.6 7.5 1.3 11.3 1.9 3.6-7.7 7-15.7 10.1-24.1 24.7-66 25.4-129.5 19.4-179.3z"/><path class="st4" d="M225.6 213.5c1 .7 2.3 2.5 1.7 8.7-1 8.8-4.7 15.3-4.9 15.7-13.7 24.3-10.5 21.5-14.8 26.9-5.1 6.4-12.2 15.5-24.9 21.1-5.4 2.4-12.8 5.7-21 3.5-7-1.8-12.3-5.8-12.3-5.8-2-1.5-4.1-3.4-8-5.4-2.2-1.2-4.2-1.8-5.6-2.3-.9.5-2.3 1.1-4.1 1.3-2.7.2-3.5-1-6.4-1.3-.4-.1-3.8-.3-7 1.5-3.3 1.8-3.9 4.3-5.3 3.9-1.5-.4-2-3.6-2.1-5.2-.1-2.4.9-4.2 1.5-5.2 1.3-2.5 3.3-4 4.5-4.8.2-.8.8-2.6 2.3-4.1 1.8-1.9 3.9-2.5 4.7-2.7.2-.8.5-2 1.5-3.1 2.5-2.8 6.8-2 8-1.9 4.1.7 6.6 3.6 7.4 4.5.5-.3 1.9-1 3.7-.8 2.3.3 3.6 2 4.1 2.7 2.1 2.7 1.6 6 1.5 6.6 3.4.4 6 1.3 7.6 2.1 3.2 1.5 4.2 3 7.2 4.1 1.5.6 4.1 1.5 7.2 1 2.7-.4 4.6-1.7 5.8-2.5 9.1-6.5 14.6-14.9 14.6-14.9 15.6-23.7 14.1-20.4 15.6-23.4 5.1-9.8 8.6-19.8 14.4-20.9.3.1 1.9-.2 3.1.7z"/><path class="st2" d="M219.5 213.1c-6.8 15.1-15.4 29.4-25.5 42.5-8.6 11.2-20.1 25.4-35.9 22.3-1-.2-.6-1.7.4-1.5 16.2 3.1 28.1-13.3 36.5-24.7 9.1-12.2 16.8-25.5 23.1-39.4.5-.9 1.8-.1 1.4.8z"/><path class="st2" d="M174.7 274.7c-2.2.5-4.5 1-6.8.7-2.2-.4-4.1-1.6-6.1-2.7-5.2-2.9-10.8-4.5-16.8-4.6-1 0-1-1.6 0-1.6 4.7.1 9.3 1 13.6 2.8 2.1.9 4 2.1 6.1 3.2 3.2 1.7 6.1 1.5 9.5.6 1-.2 1.4 1.3.5 1.6z"/><path class="st2" d="M225.4 232.8c-7 14.9-14.1 30.2-25.8 41.9-10.3 10.2-25.5 18.9-40.3 14.5-4-1.2-7.7-3.1-11.2-5.4-3.9-2.6-7.7-6.5-12.6-6.5-1 0-1-1.6 0-1.6 6.7.1 11.9 6.3 17.6 9.3 7.9 4.1 16.2 4.9 24.6 2 14.7-4.9 25.7-17 33.6-30 4.9-8 8.9-16.5 12.8-25 .4-.9 1.8-.1 1.3.8z"/><path class="st2" d="M145.2 267.6c-4.7.2-11.5 2.6-10.1 8.7.2 1-1.3 1.4-1.5.4-1.6-7.2 5.9-10.4 11.6-10.7 1 0 1 1.6 0 1.6zm3.7-.8c-.4-1.9-.5-3.9-1.1-5.6-.9-2.6-4.5-1.9-6.6-1.6-1 .2-1.4-1.4-.4-1.5 2.2-.4 5.6-1 7.4.7 1.8 1.7 1.8 5.3 2.3 7.6.1 1-1.4 1.4-1.6.4z"/><path class="st2" d="M143.8 262.5c-2.8-1.7-5.4-3.7-8-5.6-1.9-1.5-3.9-2.5-6.4-1.9-2.3.6-4 2.2-5.3 4.1-.6.8-1.9.1-1.3-.8 2.1-3.2 5.5-5.7 9.5-5 2.1.4 3.6 1.7 5.2 2.9 2.3 1.8 4.6 3.4 7.1 4.9.8.6 0 2-.8 1.4z"/><path class="st2" d="M132.6 263.5c-2.3-.5-4.2-1.4-6.2-2.2-1.1-.5-2.4-.9-3.6-.5-.7.3-1.3.8-1.9 1.3-1.1.9-2.2 1.9-3.2 2.9-.7.7-1.8-.4-1.1-1.1 1.8-1.8 4.6-4.9 7.4-5 1.2-.1 2.2.5 3.3 1 1.9 1 3.7 1.7 5.9 2.1.8.2.4 1.7-.6 1.5z"/><path class="st2" d="M129 268.3c-2.5-.2-4.9-.6-7.4-1.2-1.9-.4-3.7-.9-5.4.3-1.5.9-2.3 2.5-3.2 4-.5.8-1.9.1-1.3-.8 1.5-2.4 3.2-5 6.2-5.5 1.5-.3 2.9.2 4.3.5 2.3.5 4.6.9 7 1.2.7 0 .7 1.5-.2 1.5zm4.8 9.5c-3.2 1.2-5.9-.2-9-.9-4.7-1.1-8 1.9-11.2 5-.7.7-1.8-.4-1.1-1.1 2.5-2.5 5.2-5 8.8-5.6 4.2-.7 8 2.7 12.1 1.2 1-.5 1.4 1 .4 1.4z"/><path class="st2" d="M122.2 271.7c-2.6-.1-5.4.3-7.8 1.5-3.1 1.7-3.6 5.4-.9 7.7.8.6-.3 1.7-1.1 1.1-2.4-2-3.1-5.6-1.1-8.3 2.3-3.1 7.3-3.8 10.9-3.7.9.1.9 1.7 0 1.7z"/><path class="st2" d="M113.1 271.1c-.5 1-.7 2-.8 3.1-.1 1-1.6 1-1.6 0 .1-1.4.4-2.7 1-3.9.5-.9 1.9-.1 1.4.8zm105.3-26.3c-1.2-5-5.5-8.7-10.6-9.1-1-.1-1-1.7 0-1.6 5.8.5 10.7 4.5 12.1 10.2.2 1.1-1.3 1.5-1.5.5zm-6 10.1c0-2.9-1.1-5.5-3.1-7.5-.7-.7.4-1.8 1.1-1.1 2.3 2.3 3.6 5.4 3.6 8.7-.1.9-1.6.9-1.6-.1zm-4.4 6.7c-.5-5.6-4.3-10.4-9.5-12.2-.9-.3-.5-1.8.4-1.5 6 2.1 10.1 7.4 10.7 13.7 0 1-1.5 1-1.6 0zm-7.8 10.6c-.4-5.6-4.6-10.3-10.1-11.4-1-.2-.6-1.7.4-1.5 6.2 1.2 10.8 6.6 11.2 12.9.1 1-1.5 1-1.5 0zm-11.4 10.2c-.5-4.8-3.3-8.8-7.4-11.1-.9-.5-.1-1.8.8-1.4 4.7 2.6 7.6 7.2 8.2 12.5.1 1-1.5 1-1.6 0zm-12.9-8.1c-2.9 4.1-3.3 9.4-.8 13.8.5.9-.8 1.7-1.3.8-2.7-4.9-2.4-10.8.8-15.4.5-.8 1.8 0 1.3.8zm-18-4.6c-.2.8-.5 1-1.2 1.3-1.5.6-2.8.7-4.1 1.6-2.9 1.9-4.5 5.2-4.5 8.6 0 1-1.6 1-1.6 0-.1-2.8.9-5.5 2.7-7.7.9-1 1.9-1.9 3.1-2.6.5-.3 4.1-1.3 4.1-1.6.2-1.1 1.7-.6 1.5.4z"/><path class="st6" d="M222 220.9c-2.7-.2-4.4 10.8-9.3 22.6-4.2 9.9-13.3 31.4-31.9 37.4-9.4 3-23 2.6-33.7-3-4.8-2.5-7.3-5.1-13.5-6.4-7-1.5-17.6-1-20.6 4.9-.9 1.7-.9 3.5-.7 4.9 2.9-3.6 5.5-4.7 7.5-4.9 2.7-.4 4.3.8 8.2 1.1 3.1.2 5.8-.3 7.5-.7 2.8 1 7 2.8 11.6 5.6 4.4 2.8 5.4 4.2 8.6 5.6 5.4 2.4 10.6 1.7 15 1.1 10.7-1.5 18.2-6.5 21.7-9 3.1-2.2 7.9-6 14.2-14 5.5-7 13.2-18.3 19.1-34.7-.6-4.9-1.8-10.4-3.7-10.5z"/><path class="st2" d="M343.6 233.7c-.6 3.2-1.4 7.6-2.2 12.8-.5 3.3-2.3 16.5-2.4 35.1-.2 19.9 1.6 36.9 3.5 49.9 1.6 10.8 3.6 19.8 5.1 26.4-4.1 3.9-10.7 9.4-20 13.6-8.9 4.1-16.9 5.6-22.5 6.3-19.9-31.4-34.9-54.6-44.1-68.6-20.8-31.8-35.2-53.3-41.1-86.4-1.1-6-1.6-11-1.9-14.4 7-1.8 17.1-3.7 29.5-3.3 2.1.1 7.4.3 17.8 2.2 11 1.9 25.3 5.2 41.7 10.9 10.1 3.5 22.6 8.4 36.6 15.5z"/><path class="st4" d="M302.5 238.5c-.5 4.5-1.1 10.5-1.5 17.7-.5 8.8-.5 15.7-.5 20.8.1 21 1.3 41.7 1.5 45.6.9 14.9 2.1 33.8 3.8 55.8-9.9-4-17.8-7.9-23.3-10.8-19.9-10.3-34.2-20.8-44.2-28.2-7.8-5.8-14.1-10.9-18.3-14.3-1.1-11.1-1.9-20.6-2.5-28.2-.8-9.6-1.5-18.8-2-30.9-.3-7.2-.5-10.9-.5-15.9-.1-16.9 1.3-28.2 1.8-31.7.5-4.1 1.1-7.4 1.5-9.7 13.9 2.7 30 6.8 47.5 13.3 13.8 5.1 26.1 10.8 36.7 16.5z"/><path class="st2" d="M343.2 234c-29.9-15.2-61.8-24.1-94.9-28.3-1-.1-1-1.7 0-1.6 16.8 2.1 33.5 5.2 49.7 10 15.8 4.8 31.2 10.9 46 18.5.9.5.1 1.9-.8 1.4z"/><path class="st2" d="M343.5 234.7c-7-.4-14 .7-20.9 1.7-6.6.9-13.3 1.8-20 2.8-1 .2-1.4-1.4-.4-1.5 7-1 14-1.9 21-2.9 6.7-.9 13.5-1.9 20.3-1.6 1 0 1 1.5 0 1.5zM249.1 206c-10.5-.7-21 .4-31.2 3.1-1 .3-1.4-1.3-.4-1.5 10.3-2.8 21-3.9 31.6-3.2 1 .2 1 1.7 0 1.6z"/><path class="st2" d="M301.2 238.6c-26.4-13.2-54.4-22.9-83.3-29-1-.2-.6-1.7.4-1.5 29 6.1 57.1 15.9 83.7 29.1.9.5.1 1.8-.8 1.4z"/><path class="st2" d="M303.9 238.4c-4.5 35.8-2.3 71.9 0 107.7.7 10.6 1.3 21.1 2.9 31.6.2 1-1.3 1.4-1.5.4-2.6-17.9-3.3-36.1-4.3-54.1-1-18.1-1.7-36.3-1.1-54.4.4-10.4 1.1-20.9 2.4-31.2.2-1 1.7-1 1.6 0zm39.8-4.9c-6.4 40.8-5.1 82.7 3.9 123 .2 1-1.3 1.4-1.5.4-9.1-40.6-10.4-82.7-3.9-123.9.2-.9 1.7-.5 1.5.5z"/><path class="st2" d="M347.8 357.7c-11.2 11.3-25.8 18.7-41.4 21-1 .2-1.4-1.4-.4-1.5 15.4-2.3 29.7-9.5 40.8-20.6.7-.6 1.7.5 1 1.1zM219.1 209.5c-6.7 38.2-2.3 77.1 2 115.4.1 1-1.5 1-1.6 0-4.4-38.4-8.7-77.4-2-115.8.2-1 1.7-.6 1.6.4z"/><path class="st2" d="M221 324.8c25.8 21.8 54.7 39.8 85.6 53.4.9.4.1 1.8-.8 1.4-31-13.6-60-31.7-86-53.6-.6-.8.5-1.9 1.2-1.2zm76-80.8c.9-.7 1.3-2.1.6-3.1-.6-1-2.2-1.4-3.2-.7-.9.6-1.2 2.1-.7 3.1.8 1.3 2.5 1.4 3.6.4.6-.5 1.4.3.8.8-1.5 1.3-3.7 1.4-5-.2-1.2-1.4-1-3.8.4-5 1.4-1.1 3.6-.9 4.8.4 1.2 1.5.9 3.8-.5 5-.6.6-1.4-.2-.8-.7zm-1.3 8.5c-.3 6-.5 11.9-.8 17.9-.1.7-1.2.8-1.2 0 .3-6 .5-11.9.8-17.9.1-.8 1.3-.8 1.2 0z"/><path class="st2" d="M295.1 252.7c-16.7-7.3-33.9-13.2-51.4-17.9-.7-.2-.4-1.3.3-1.1 17.6 4.7 34.9 10.7 51.7 18 .7.3.1 1.3-.6 1zm-1.1 17.8c-13.5-7.3-27.8-13.1-42.4-17.5-.7-.2-.4-1.4.3-1.1 14.8 4.4 29.1 10.3 42.7 17.6.6.3 0 1.3-.6 1z"/><path class="st2" d="M244.4 234.4c2.4 6 4.9 11.9 7.4 17.9.3.7-.8 1-1.1.3-2.4-6-4.9-11.9-7.4-17.9-.3-.6.9-1 1.1-.3zm-2.7-.2c2.3 5.7 4.6 11.5 7.1 17.2.3.7-.7 1.3-1 .6-2.4-5.8-4.9-11.6-7.2-17.5-.4-.7.8-1 1.1-.3z"/><path class="st2" d="M247.8 252.4l-14.4-6.3c-.7-.3-.1-1.3.6-1l14.4 6.3c.6.3.1 1.3-.6 1zm-7.4-17.8c-2.9-1.2-5.9-2.1-9-2.8-.7-.2-.4-1.3.3-1.2 3.1.6 6.1 1.5 9 2.8.7.3.4 1.4-.3 1.2z"/><path class="st2" d="M231.8 231.7c1 4.3 1.9 8.7 2.5 13.2.1.7-1 1-1.1.3-.7-4.4-1.5-8.8-2.5-13.2-.2-.7 1-1 1.1-.3zm-4.2 91.1c12.6 7.2 25.2 14.4 37.9 21.6.7.4.1 1.4-.6 1-12.6-7.2-25.2-14.4-37.9-21.6-.6-.4 0-1.3.6-1z"/><path class="st2" d="M264.2 318.8c-.4 4.2.3 8.5.6 12.8.3 4.5.6 9 1 13.5.1.7-1.1.7-1.2 0-.3-4.5-.6-9-1-13.5-.3-4.2-.9-8.5-.6-12.8.1-.7 1.3-.7 1.2 0z"/><path class="st2" d="M263.5 318.8c-12.3-7-25.2-12.8-38.6-17.3-.7-.3-.4-1.4.3-1.1 13.5 4.5 26.5 10.3 38.9 17.4.6.3 0 1.4-.6 1z"/><path class="st2" d="M225.1 301.4c.6 7.3 1.7 14.5 3.2 21.6.2.7-1 1-1.1.3-1.6-7.2-2.6-14.5-3.3-21.9 0-.7 1.1-.7 1.2 0z"/><path class="st4" d="M342 234.2c-9 .6-17.8 2.1-26.5 4.2-1 .3-1.4-1.3-.4-1.5 8.9-2.2 17.8-3.7 26.9-4.3.9-.1.9 1.5 0 1.6z"/><path d="M253.8 218.4c2.5 4.7 6.5 12.1 10.8 21.4 11.6 25.1 40.5 87.7 21.3 106.6-3.5 3.4-11.4 8.1-30.8 4 16.8 9.3 33.5 18.7 50.3 28-2.5-23.4-3.7-43.4-4.3-59.1-.4-10.5-.9-24.1-.6-42.3.3-15.1 1-28.1 1.9-38.2-5.8-3.1-12-6.3-18.8-9.3-10.7-4.6-20.6-8.2-29.8-11.1z" opacity=".1" fill="#666"/><path class="st4" d="M457.9 108.8c.9 1.3-.3 3.6-.8 4.8-1 2-3.7 6.1-10.7 9.1 2.6.6 3.6 1.6 4.1 2.5.9 1.7-.2 2.9-.2 7.1 0 3 .7 3.5.4 6-.2 2.1-.9 3.9-1.5 5-.1 1-.3 2.4-.6 4.1-.3 1.3-.4 1.9-.6 2.3-1.1 2-4.2 3-6.8 2.5-3.3-.7-4.8-3.8-4.9-4.1-1.4 2.1-2.7 2.7-3.7 2.9-1.7.3-2.9-.7-6.2-1.5-1.7-.4-3-.6-3.9-.6.1 1.9.3 4.8.4 8.3.5 11.6.7 17.6.2 24.9-.2 2.3-.7 9.1-2.7 17.8-1.2 5.3-3.1 13.4-7.4 22.6-2.7 5.7-6.9 14.6-15.8 23.2-4 3.9-13.7 13-29.4 16.4-11.7 2.5-21.4.8-26.9-.6-4.3-2.3-8.5-4.5-12.8-6.8-.6-.9-1.7-2.8-1.7-5.2 0-3.6 2.2-7 5.8-8.9 2.7.7 6.4 1.5 10.9 1.9 4.4.4 13 1 23-2.1 4.3-1.3 15.7-5 24.5-15.7 4.2-5.1 6-9.6 9-17.4 3.6-9.1 5.1-16.4 6.6-23.8 3.2-16.1 4.8-24.2 3.3-32.1-.8-4.1-2.2-8.9-1.2-15.7 1-6.6 3.5-10 4.3-11 2.1-2.7 4.7-4.2 6.2-5.2 2.6-1.7 2.1-.7 6.6-3.1.8-.4 1.7-.9 2.9-.8 1.4.1 2.5.9 3.1 1.5 3.3-.9 6-1.8 8-2.5 4.6-1.5 7-2.2 8-2.9 2.8-1.6 3.7-2.9 6.4-3.3.8-.5 3.2-.9 4.1.4z"/><path class="st2" d="M409.1 138.1c1.7 11.4 1.5 23-.1 34.4-1.6 11.6-4.2 23.3-8.1 34.2-3.4 9.3-8.2 17.9-15.9 24.3-6.6 5.5-14.6 9.2-23 11-9.6 2-19.7 1.6-29-1.3-.9-.3-.6-1.8.4-1.5 16.3 4.9 35 2.5 48.8-7.8 7.9-5.9 13.2-14.2 16.7-23.4 3.8-9.8 6.2-20.2 7.9-30.5 2.2-12.9 2.8-26.1.9-39-.3-.9 1.2-1.4 1.4-.4z"/><path class="st2" d="M423.5 148.9c1.9 25.8 1.1 52.8-10.8 76.3-10 19.7-27.6 35.5-50 38.3-12.1 1.5-24.7-1.1-34.8-8.3-.8-.6-.1-1.9.8-1.4 18.1 12.9 43.3 10.1 60.6-2.7 18.4-13.6 28.3-35.8 31.7-57.9 2.3-14.6 2-29.6.9-44.3-.1-1 1.5-1 1.6 0z"/><path class="st2" d="M333.4 240.7c-5.4 2.2-7.2 8.5-4 13.4.6.8-.8 1.6-1.3.8-3.8-5.8-1.4-13.1 4.9-15.7.9-.3 1.3 1.2.4 1.5zM418.9 131c-1.8-3.4 3.3-3 4.9-3.6 2.2-.7 4.6-2.7 6.2-4.3 2.3-2.5 2.5-7.7-2.3-6.7-9.7 1.9-20 10.9-18.5 21.6.2 1-1.3 1.4-1.5.4-1.7-12 9.3-21.2 20.1-23.6 3.9-.9 6.5 2.9 5.3 6.5-.7 2.2-2.6 3.8-4.4 5.1-1.1.8-2.3 1.7-3.5 2.2-.6.2-5 1.1-4.7 1.6.3.9-1.1 1.7-1.6.8z"/><path class="st2" d="M432.7 115.4c6.2-1.5 12.2-3.6 17.8-6.5 2.6-1.4 7.9-3.8 8 1.4.1 4.1-3.6 8.3-6.7 10.6-4.6 3.5-10.4 4.8-15.9 5.6-1 .2-1.4-1.4-.4-1.5 8-1.3 18.6-4.1 21.2-13.1.2-.5.3-1 .3-1.6-1-1.7-2.1-2-3.4-1.2-.9.4-1.8.9-2.7 1.4-1.7.8-3.4 1.7-5.2 2.4-4.1 1.7-8.3 3.1-12.6 4.1-.9.2-1.3-1.3-.4-1.6z"/><path class="st2" d="M447.8 122c2.9.8 4.1 4.4 4 7.2-.2 3.6-2.4 6.5-5.4 8.3-2.7 1.7-6.8 3-9.6.8-2.1-1.6-2.5-4.5-.7-6.5.7-.7 1.8.4 1.1 1.1-1.2 1.3-.6 3.3.7 4.2 1.1.8 2.7.7 4 .5 2-.4 4-1.5 5.5-2.8 1.5-1.4 2.5-3.1 2.8-5.1.3-2.1-.3-5.6-2.8-6.3-1-.1-.6-1.6.4-1.4z"/><path class="st2" d="M450.8 132.5c1.7 4.3.6 9.7-3.1 12.7-1.7 1.4-3.9 2.2-6.1 1.8-2.1-.4-3.4-1.9-4.6-3.6-.6-.8.8-1.6 1.3-.8 1.3 1.8 2.9 3.2 5.3 2.8 2-.4 3.6-1.7 4.7-3.3 1.8-2.7 2.1-6.1.9-9.1-.2-1 1.3-1.4 1.6-.5z"/><path class="st2" d="M450.3 143.1c-.2 4.3-1.8 9.3-6.6 10.2-5.1 1-7.8-4.2-9.1-8.3-.3-.9 1.2-1.4 1.5-.4 1 3.2 3.2 8 7.4 7.1 3.9-.8 5.1-5.1 5.2-8.6.1-1 1.6-1 1.6 0z"/><path class="st2" d="M436.8 147.9c-.5 2.3-2.9 3.1-5 3.5-3.4.5-5.9-1.2-9.1-1.6-1-.1-1-1.7 0-1.6 1.6.2 3 .8 4.6 1.3 2 .6 7.3 1 8-2 .2-1 1.7-.6 1.5.4z"/><path class="st2" d="M422.6 149.5c-5.2 2-11 .1-14.2-4.5-.6-.8.8-1.6 1.3-.8 2.7 4.1 7.9 5.5 12.4 3.8 1-.4 1.4 1.1.5 1.5zm-58.7 92.8c-2 2-1.6 7.2-1.4 9.8.2 3.4 1.2 6.6 3.6 9.1.7.7-.4 1.8-1.1 1.1-2.6-2.8-3.8-6.4-4-10.2-.2-3.1-.6-8.5 1.8-10.9.7-.7 1.8.4 1.1 1.1zm-15.4 1c-3.2 5.9-3.2 12.9-.2 18.9.5.9-.9 1.7-1.3.8-3.3-6.5-3.3-14 .2-20.4.4-1 1.8-.2 1.3.7zm74.1-62.1c-5.2 1.8-10.7 1.2-15.5-1.6-.9-.5-.1-1.9.8-1.4 4.4 2.6 9.4 3 14.3 1.4.9-.2 1.4 1.3.4 1.6zm-4.8 30.6c-6.6 1.4-13.3-1-17.4-6.4-.6-.8.7-1.6 1.3-.8 3.7 4.8 9.8 7 15.6 5.7 1.1-.2 1.5 1.3.5 1.5zm-28.3 15c-.2 2.9.8 5.6 2.8 7.7.7.7-.4 1.8-1.1 1.1-2.3-2.4-3.5-5.5-3.3-8.8.1-.9 1.6-.9 1.6 0zm32.2-30.5c-2.3 1-4.7 1.3-7.1.5-1-.3-.6-1.8.4-1.5 2 .6 4 .5 5.9-.4.9-.4 1.8.9.8 1.4zm1.2-36.8c-4.5 1.1-8.8.6-13-1.3-.9-.4-.1-1.8.8-1.4 3.8 1.7 7.8 2 11.8 1.1 1-.2 1.4 1.4.4 1.6zm-14.1 72.2c-7.4 1.7-14.5-2.2-17.1-9.4-.3-.9 1.1-1.4 1.5-.4 2.2 6.4 8.6 9.8 15.1 8.3 1.1-.3 1.5 1.2.5 1.5zm-31.7 5.3c-2.2 6.6 4.6 13.3 9.7 16.2.9.5.1 1.8-.8 1.4-5.8-3.1-12.9-10.6-10.4-17.9.3-1.1 1.8-.7 1.5.3z"/><path class="st5" d="M445 125c-1.9 1.9.4 5.2-1.2 7.3-.9 1.1-2.9 1.9-7.7 1 0 .8-.1 2.1-.5 3.5 0 0-1 3.3-3.9 5.5-3.4 2.5-8.4 2.6-12.9.3-.2 3.1-.6 7.6-1 13-2.4 31-3.4 36.6-4.7 42-1.6 6.3-3.5 14.1-8.7 22.7-3.2 5.4-14 22.9-36.2 30-18.8 6-35 .8-40.7-1.3.3 2.1.7 4.3 1 6.5 2.5 1.5 6.1 3.5 10.6 5 .6.2 10.8 3.6 22.3 2.5 21.6-2 36.7-18.6 40.4-22.7 13.5-15 17.3-31.3 19.1-38.7 2.6-11.1 2.8-21.4 3-28.7.2-9.4-.4-17.3-1-23 .9.5 3.3 1.5 6.4 1 3.5-.5 5.8-2.6 6.4-3.2.2.4 1 3 3.7 4.2.2.1 3.1 1.4 5.7 0 2.3-1.2 3-3.8 4.2-9 .8-3.1.9-5.4 1.2-9 .6-7.9-.2-8.8-.7-9.3-1.2-1.2-3.6-.9-4.8.4z"/><path d="M412.8 221.9c-1.6 1.8-3.9 4.5-7 7.5-5.3 5.3-17.3 17.4-30.8 23-18.7 7.8-38.1 2.4-46.8-.7.3 1.1.7 2.1 1 3.2 2.6 1.4 27.2 14.3 53.3 1.7 21.8-10.4 29-31 30.3-34.7z" opacity=".15" fill="#666"/><path class="st4" d="M295.4 191.1c.5 2.9.7 5.5.8 7.4.1 1.1.2 5.4-.6 11.1-.4 2.6-.9 4.8-1.3 6.4-2.1.6-5.2 1.1-8.9.9-4.9-.3-8.7-1.8-11-2.9.1-1.4.2-3.7.5-6.4.6-6.2 1-8.4 1.1-12.5.1-1.7 0-4.3-.3-7.5 2.2-.6 6.5-1.4 11.6-.2 3.7.9 6.4 2.5 8.1 3.7z"/><path class="st2" d="M296 190.5c1.8 8.3.6 16.6-.7 24.8-.2 1-1.7.6-1.5-.4 1.2-7.9 2.4-16 .7-24-.2-1 1.3-1.4 1.5-.4z"/><path class="st2" d="M295 191.6c-2.3-2.1-5.8-2.8-8.7-3.4-3.4-.7-6.7-.8-10.1-.2-1 .2-1.4-1.3-.4-1.5 3.6-.7 7.3-.6 10.9.2 3.3.7 6.8 1.5 9.4 3.9.7.6-.4 1.7-1.1 1z"/><path class="st2" d="M276.4 187.5c.6 8.8.2 17.6-1.3 26.2-.2 1-1.7.6-1.5-.4 1.5-8.6 1.9-17.2 1.2-25.8 0-1 1.5-1 1.6 0z"/><path class="st2" d="M295.1 215.9c-2.5 2-6.8 1.8-10 1.7-3.9-.1-7.7-.9-11-2.9-.9-.5-.1-1.9.8-1.4 2.9 1.7 6.1 2.5 9.4 2.7 2.6.2 7.5.5 9.7-1.2.8-.7 1.8.4 1.1 1.1zm.2-15.7c-1.9-2.7-5.1-3.6-8.2-4.3-3.5-.8-7.1-1.5-10.3.5-.9.5-1.7-.8-.8-1.4 3.6-2.2 7.6-1.5 11.5-.6 3.5.8 7 1.9 9.2 5 .5.8-.8 1.6-1.4.8zm-.3 9c-5.3-4.3-12.2-6.1-18.9-4.7-1 .2-1.4-1.3-.4-1.5 7.3-1.5 14.6.4 20.4 5.1.8.6-.3 1.7-1.1 1.1zm-8.7 2.1c-1.8-.8-3.6-1-5.6-1-1.3 0-4.4-.2-5.3.9-.7.8-1.8-.4-1.1-1.1 1.2-1.4 3.9-1.3 5.5-1.4 2.5-.1 4.8.3 7.2 1.3 1.1.4.3 1.7-.7 1.3zm57.9-26c-4.4 2.5-11.3 5.9-20.2 7.7-9.5 2-17 1.4-25.3.6-3.3-.3-14.4-1.4-29.1-5.8-9.1-2.7-21.4-7.2-35-14.7-1-5.2-2-11.1-2.4-17.8-.5-7.2-.3-13.6.2-19.2 2.9-3.2 6.4-6.7 10.6-10.2 3.8-3.2 7.6-5.9 11-8 30.1 22.4 60.2 44.9 90.2 67.4z"/><path class="st4" d="M254.2 117.8c-.7 2.6-1.7 6.3-2.4 10.9-.5 2.9-1.9 13.3-.2 27.1.5 3.9 1.3 9 3 14.9 1.9 1.1 4.5 2.7 7.6 4.3 10.5 5.5 19.3 8.1 22.4 9 2.2.6 12.9 3.6 27.5 4.2 8.1.3 19.3.1 32.5-2.7-.9-15.9-1.9-31.8-2.9-47.8-3-1.5-7.1-3.4-12.1-5.4-3.2-1.3-18.1-7.3-39.5-11.1-9.4-1.7-21.5-3.2-35.9-3.4z"/><path class="st2" d="M342.3 137.7c1.1 15.9 2.2 31.8 3.2 47.7.1 1-1.5 1-1.6 0-1.1-15.9-2.2-31.8-3.2-47.7 0-1.1 1.6-1.1 1.6 0z"/><path class="st2" d="M340.7 137.9c-26.8-12.4-56.1-19-85.6-19.1-1 0-1-1.6 0-1.6 29.8.2 59.3 6.7 86.4 19.3.9.4.1 1.8-.8 1.4zm4.3 48c-30.8 7.6-63.7 2.5-90.7-14.4-.8-.5-.1-1.9.8-1.4 26.7 16.6 59.1 21.7 89.5 14.2.9-.2 1.4 1.3.4 1.6z"/><path class="st2" d="M255.3 118.1c-4.9 17.4-4.7 35.8.4 53.2.3 1-1.2 1.4-1.5.4-5.2-17.6-5.4-36.3-.4-54 .3-1 1.8-.6 1.5.4z"/><path class="st2" d="M254.4 118.3c-8.1 5.3-15.3 11.8-21.3 19.4-.6.8-1.7-.3-1.1-1.1 6.1-7.7 13.4-14.3 21.6-19.7.9-.6 1.7.8.8 1.4z"/><path class="st2" d="M233.4 137.2c-1.1 12.2-.4 24.4 2 36.4.2 1-1.3 1.4-1.5.4a125.8 125.8 0 01-2.1-36.7c.2-1 1.7-1 1.6-.1z"/><path class="st2" d="M344.9 186.3c-4.3 1.8-8.6 3.5-12.9 5.3-3.2 1.3-6.5 1.8-9.9 2.2-7.9 1.1-16 1.4-24 .6-13.4-1.1-26.7-5-39.3-9.7-8.5-3.1-16.8-6.9-24.7-11.2-.9-.5-.1-1.8.8-1.4 12.7 6.9 26 12.1 39.8 16 14.5 4.2 29.4 6 44.5 4.3 3.6-.4 7.7-.7 11.1-2 4.8-1.8 9.6-3.9 14.4-5.9.7 0 1.1 1.5.2 1.8z"/><path class="st2" d="M255.4 172.7c-7 1.4-14 1.6-21 .8-1-.1-1-1.7 0-1.6 6.9.8 13.7.6 20.6-.7.9-.1 1.4 1.3.4 1.5zm71-23.6c1.3-.6 1.1-2.6 1.2-3.8.1-.6.1-1.3.1-1.9 0-.7-.1-1.4-.4-2-.4-.8-.9-.9-1.6-.4-1.2.4-1 .7-1 1.9 0 .7.1 1.3.1 2 .1.7.1 1.4.1 2.1 0 .2.6 3.8 1.6 2.4.6-.8 1.9-.1 1.3.8-1.5 2.2-3.9.5-4.3-1.6-.4-1.8-.4-4-.4-5.9 0-1.2.2-2.6 1.2-3.3 2.3-1.7 4.6 1.1 4.9 3.3s.5 6.7-2 7.9c-.9.2-1.6-1.1-.8-1.5z"/><path class="st2" d="M327.2 140.3c.9 3.2.7 6.5-.6 9.7-.3.8-1.6.7-1.5-.2.1-3-.1-6-.5-9h1.6c-.2 1.3-.3 2.5-.3 3.7 0 .5-.1 1.2.1 1.7.1.4.5 1.7.3.4-.2-1 1.4-1 1.6 0 .2 1.5-1.2 3.8-2.9 2.2-.6-.6-.6-1.8-.6-2.7-.1-1.8 0-3.6.2-5.4.1-1 1.4-1 1.6 0 .4 3 .6 6 .5 9-.5-.1-1-.2-1.5-.2 1.1-2.9 1.3-5.8.6-8.8-.4-.9 1.1-1.4 1.4-.4z"/><path class="st2" d="M327.7 141.6c.4 1 .5 2.1.3 3.2-.1.4-.6.6-.9.5-.5-.1-.6-.5-.5-.9.1-.8-.1-1.6-.3-2.4-.4-.9 1.1-1.4 1.4-.4zm-44.3-.5c1.3-.6 1.1-2.6 1.2-3.8.1-.6.1-1.2.1-1.8 0-.4 0-.7-.1-1-.1-1.2-1-1.6-2.9-1-.5.8-.1 3 0 3.8.1.6.1 1.2.1 1.7 0 .2.6 3.8 1.6 2.4.6-.8 1.9-.1 1.3.8-1.5 2.2-3.9.5-4.3-1.6-.4-1.8-.3-3.8-.4-5.6 0-1.2.1-2.6 1.1-3.4 2.2-1.9 4.7.7 5 2.9.4 2.2.6 7-1.9 8.2-1 .2-1.7-1.1-.8-1.6z"/><path class="st2" d="M284.1 132.4c.9 3.2.7 6.5-.6 9.7-.3.8-1.6.7-1.5-.2.1-3-.1-6-.5-9h1.6c-.2 1.3-.3 2.5-.3 3.7 0 .5-.1 1.2.1 1.7.1.4.5 1.7.3.4-.2-1 1.4-1 1.6 0 .2 1.5-1.2 3.8-2.9 2.2-.6-.6-.6-1.8-.6-2.7-.1-1.8 0-3.6.2-5.4.1-1 1.4-1 1.6 0 .4 3 .6 6 .5 9-.5-.1-1-.2-1.5-.2 1.1-2.9 1.3-5.8.6-8.8-.4-1 1.1-1.4 1.4-.4z"/><path class="st2" d="M284.6 133.6c.4 1 .5 2.1.3 3.2-.1.4-.6.6-.9.5-.5-.1-.6-.5-.5-.9.1-.8-.1-1.6-.3-2.4-.4-.9 1.1-1.2 1.4-.4zm29.3 23.7c-4.6.6-10.6.1-14.7-2.4-.9-.5-.1-1.9.8-1.4 3.7 2.1 9.3 2.8 13.5 2.2.9 0 1.4 1.5.4 1.6z"/><path class="st2" d="M314.6 157.4c-1.4 3.1-4.8 7.5-8.8 7-3.9-.5-6.2-6-7.1-9.3-.3-1 1.2-1.4 1.5-.4.6 2.4 2.2 6.7 4.7 7.8 3.6 1.5 7-3.1 8.2-5.9.6-.8 1.9-.1 1.5.8z"/><path class="st2" d="M313.3 158.1c-4 1.9-10 .9-13.3-1.8l1.1-1.1c2 1.6 4.4 2.6 7 2.5 1.4 0 2.5-.7 3.7.2.2.2.3.5.2.8-.3 1.4-2.2 2.1-3.4 2.3-2.5.4-4.8-.8-6.7-2.2.3-.4.6-.8.9-1.3 1.8 2 6.3 3.1 8.2.7.6-.7 1.6.2 1.2.9-1.1 2-2.7 4-5.2 3.8-2.6-.1-4.2-2.4-5.5-4.3-.5-.8.6-1.5 1.2-.9 1.2.9 2 1.1 3.3 1.6.8.3 1.5.2 1.1 1.2-.3.8-1.1 1.1-1.9 1.1-2.2-.1-4.5-3.3-5.5-5.1-.4-.7.6-1.6 1.2-.9 2 2.1 3.1 5.6 6.3 6.1 1 .2.6 1.7-.4 1.5-3.6-.6-4.8-4.1-7-6.5l1.2-.9c.7 1.2 2 3.2 3.4 3.8 1.1.4.9.2 1.8-.7.2-.3.4-.6.6-.7.9-.6 1.9-.1 2.2.9.1.3 0 .6-.2.8-2.2 2.5-5.1.8-7.3-.8l1.2-.9c1 1.6 2 3.1 3.9 3.3 2 .3 3.2-1.2 4-2.9l1.2.9c-2.4 3.1-8 2-10.4-.7-.6-.6.2-1.8.9-1.3 1.7 1.3 3.7 2.5 5.8 2 .7-.1 1.4-.4 2-.9-.2.5-.5.7-.8.7-.6.3-1.6.2-2.2.1-2.8-.2-5.2-1.3-7.4-3-.8-.6.3-1.7 1.1-1.1 2.7 2.1 8.2 3.1 11.5 1.6 1.2-.6 2 .7 1 1.2z"/><path class="st2" d="M307.8 161.8c-1.2-.9-2.3-1.8-3.3-2.9l1.2-.9c.5.9 1.1 1.8 1.5 2.7.2.5.2 1-.2 1.4-.4.4-.9.4-1.4.2-.9-.4-1.7-1.1-2.4-1.7l1.1-1.1c.3.8 1.3 2.3.5 3-1 .8-1.9-.6-2.4-1.3-.6-.8.5-1.9 1.1-1.1.2.2.6 1 .9 1-.3.1-.5.2-.8.2.1-.1.1-.1.1-.2-.1.2-.2.4-.2.6 0-.5-.4-1.1-.6-1.5-.3-.6.4-1.6 1.1-1.1.3.2 2 1.7 2.3 1.6-.2.1-.3.3-.5.4.1-.1.1-.2.1-.2-.1.2-.1.4-.1.6-.2-.9-1-2-1.5-2.8-.4-.8.6-1.6 1.2-.9.9 1 1.9 1.9 3 2.7.9.5.1 1.9-.7 1.3zm30.3-21.5c1.2 14.1 2 28.2 2.5 42.3.1 1-1.5 1-1.6 0-.5-14.1-1.3-28.2-2.5-42.3-.1-1 1.5-1 1.6 0zm-79.8-16.5c-3.9 14.8-1.5 30.2 2 44.8.3 1-1.2 1.4-1.5.4-3.6-14.9-6.1-30.5-2-45.6.2-1 1.7-.6 1.5.4z"/><path class="st4" d="M253.1 171.4c-4.6.8-9.2 1.7-13.7 2.5-1 .2-1.4-1.3-.4-1.5 4.6-.8 9.2-1.7 13.7-2.5 1-.2 1.4 1.3.4 1.5z"/><path d="M247.2 139.1c.4.7.9 1.7 1.2 2.8.5 1.9.4 3.5.3 4.5 3.1 3.2 11.2 10.6 23.6 12.3 4.9.7 9.2.4 12.4-.3.4 1.4.6 3.1-.3 3.8-.6.5-1.4.3-2.8.3-2.3-.1-3.6.4-4.7.5-3.2.4-11.7-1.1-21-6.4-2.5-1.4-5.9-3.6-9.6-6.9-.3.4-2.1 2.6-4.9 2.6-3.9-.1-5.7-4.3-5.9-4.8-.9-2.3-1-5.5.9-7.8 1.8-2.2 4.3-2.6 4.9-2.6 3.3-.3 5.6 1.6 5.9 2z" fill="#fff" stroke="#000" stroke-width="2" stroke-miterlimit="10"/><path d="M244.4 140.1c2.4 3.8.9 9.3-4.1 9.1-.5 0-.5-.8 0-.8 4.5.1 5.4-4.8 3.4-8-.3-.3.4-.7.7-.3z"/><path d="M240.9 145.2c.7-.5 1-1.4.8-2.2s-1.2-1.6-2-1.2c-.9.4-1.2 1.8-.8 2.7.4.8 1.6 1.2 2.2.4.3-.4 1 0 .7.4-.7 1-2.2 1.1-3.2.2-1-1-.9-3 .1-4s2.6-.6 3.3.5c.8 1.2.5 2.9-.7 3.8-.2.2-.8-.3-.4-.6zm32.8 13.8c-.8 1-1 2.5-.5 3.7.2.5-.5.8-.7.4-.7-1.5-.5-3.1.5-4.4.4-.5 1.1-.1.7.3zm8.9.1c-.5.9-.5 1.9-.1 2.9.2.5-.5.8-.7.4-.6-1.2-.5-2.5.1-3.7.2-.4.9-.1.7.4zm-2.3.6c-.6.6-.6 1.6-.1 2.2.3.4-.3.9-.6.6-.8-1-.8-2.4.1-3.3.4-.5.9.1.6.5zm-2.6 0c-.9.6-.8 2-.1 2.6.4.3-.2.9-.6.6-1.2-1-1-3 .2-3.9.5-.2.9.5.5.7zm-12.4-35.2c1.1-.4.7-1.8 0-2.3s-1.7-.4-2.1.4c-1 1.7 1.3 3.1 2.5 1.7.5-.6 1.3.3.8.8-1 1.2-2.9 1.3-4 .3s-1-2.9 0-4c1.1-1.1 2.9-.9 3.9.3 1.1 1.3.7 3.3-.9 3.9-.6.3-.9-.8-.2-1.1z"/><path d="M263.2 118c-.4 6.5-1 13.5-2.2 21-.8 5-1.7 9.8-2.7 14.3 1.1.7 2.3 1.5 3.6 2.2 6.1 3.5 12 5.8 17.4 7.2-2.7.1-6.2-.1-10.1-.8-4.7-.9-8.6-2.4-11.4-3.8 4.2 4.6 9.6 9.9 16.7 15 10.1 7.3 19.9 11.6 27.2 14.1-5.7 2-11.3 4-16.9 6-.4 7.7-.8 15.5-1.2 23.3-2.9-.7-5.7-1.5-8.6-2.2.4-4.9.8-9.9 1-15.1l.3-8.7c-4.9-1.4-9-2.7-12-3.7-11.3-3.9-19.4-7.8-21.6-8.9-3.7-1.8-6.7-3.5-8.8-4.7-.6-3.6-1.1-7.4-1.5-11.4-.9-9.3-.9-17.8-.5-25.5 2.4-3 5.6-6.4 9.5-9.9 4.2-3.7 8.3-6.4 11.8-8.4h10z" opacity=".16" fill="#666"/><path d="M455 316l-1.2 57.9c-20.8 5.9-45 11.2-72.4 14.5-38.9 4.7-73.2 3.9-101.1 1.2l-2.4-59.1c23.9-.9 48.4-2.4 73.6-4.2 36-2.8 70.4-6.3 103.5-10.3z" opacity=".6" fill="#5222d0"/><g class="st12"><g class="st12"><path class="st13" d="M448.6 325.2c-29.1 6.4-58.7 10-88.5 10.9-1 .1-1-1.5 0-1.6 29.6-.9 59.1-4.5 88.1-10.9.9-.2 1.3 1.4.4 1.6z"/></g></g><g class="st12"><g class="st12"><path class="st13" d="M447.3 335.9c-13.3 4-27 6.7-40.8 8.1-1 .1-1-1.5 0-1.6 13.7-1.4 27.2-4 40.4-8 .9-.3 1.3 1.2.4 1.5z"/></g></g><g class="st12"><g class="st12"><path class="st13" d="M407.1 377.3c-36.4 5.6-73.4 11.1-110.3 6.9-1-.1-1-1.7 0-1.6 36.8 4.2 73.6-1.3 109.9-6.8.9-.1 1.3 1.4.4 1.5z"/></g></g><g class="st12"><g class="st12"><path class="st13" d="M350.4 374.7c-18.7 3.4-37.7 4.2-56.5 2.4-1-.1-1-1.7 0-1.6 18.7 1.8 37.6 1 56.1-2.4.9 0 1.3 1.4.4 1.6z"/></g></g><g class="st12"><g class="st12"><path class="st13" d="M313 337.6c-.9 7.1-.4 14.2 1.3 21.2.2.5-.3.9-.7 1-4.5.4-8.9.7-13.3 1.1-1.9.2-6.2 1.5-7.4-.6-.6-1.1-.5-3-.6-4.2-.1-1.9-.2-3.8-.3-5.6-.2-4.3-.6-8.5-1.9-12.7-.2-.5.3-1 .7-1 6.7.5 13.4.2 20.1-.9.6-.1 1 .4.9.9-.1.6-.1.6-.5 1.2-.6.8-1.9.1-1.3-.8.1-.3.2-.5.3-.8l.9.9c-6.8 1.2-13.6 1.5-20.5 1 .3-.3.5-.7.7-1 2.1 6.2 1.9 12.7 2.3 19.1.1.6 0 2.3.3 2.7.6.8 1.9.5 2.6.4 1.9-.2 3.7-.3 5.7-.5 3.7-.3 7.5-.6 11.3-.9-.3.3-.5.7-.7 1-1.8-7.1-2.3-14.3-1.4-21.6 0-.9 1.6-.9 1.5.1z"/></g></g><path d="M535 98.1c-.5 25.9-.9 51.9-1.4 77.8-35.7 4.5-71.3 9-107 13.6-.9-31.2-1.9-62.4-2.9-93.6 37.2.8 74.2 1.5 111.3 2.2z" opacity=".38" fill="#161616"/><path class="st2" d="M441.9 181.1c-.5-1-1.7-2.6-1.9-3.7-.1-.8.7-1.7 1.1-2.4l5.1-8.7c.8-1.4 1.9-2.9 2.5-4.3.8-1.8.1-2.4-.8-3.9-1.4-2.4-2.6-4.9-3.6-7.5-3.5-9.4-4.1-20.2.1-29.5 6.8-15.2 23.4-18.7 38.4-19 15.5-.4 31.2 5.5 40.4 18.6 10.7 15.1 4.3 36.3-10.2 46.3-15.1 10.5-36.2 10-52 1.5-.9-.5-.1-1.8.8-1.4 12.8 6.9 27.7 8 41.3 3.1 14.1-5 25-19.1 23.9-34.6-1.2-17.5-18.2-28.7-33.9-31.3-4.8-.8-9.5-.8-14.4-.5-6.6.4-13.2 1.3-19.2 4.1-8.5 4-14.3 11.7-16 21-2 11 1.4 22.3 7.5 31.3.2.2.2.6 0 .8-1.9 3.2-3.7 6.4-5.6 9.6-.8 1.5-1.7 2.9-2.5 4.3-.5.9-1.2 1.6-1.1 2.7.1.8 1 1.9 1.3 2.7.6.9-.8 1.7-1.2.8z"/><path class="st2" d="M461.6 169.3c-5.7 4.8-12 8.5-18.9 11.3-.9.4-1.3-1.1-.4-1.5 6.6-2.7 12.7-6.3 18.2-10.9.8-.7 1.9.4 1.1 1.1z"/><path d="M507.9 142.8c-2.1 0-3.7-2.5-3.7-5.5s1.7-5.5 3.7-5.5c2.1 0 3.7 2.5 3.7 5.5 0 3.1-1.6 5.5-3.7 5.5zm-21.4-.6c-2.1 0-3.7-2.5-3.7-5.5s1.7-5.5 3.7-5.5c2.1 0 3.7 2.5 3.7 5.5.1 3-1.6 5.5-3.7 5.5zm-20.8-.7c-2.1 0-3.7-2.5-3.7-5.5s1.7-5.5 3.7-5.5c2.1 0 3.7 2.5 3.7 5.5s-1.6 5.5-3.7 5.5z" fill="#161616" stroke="#161616" stroke-miterlimit="10"/></svg>