<svg width="91" height="58" fill="none" xmlns="http://www.w3.org/2000/svg"><path d="M89.364 49.053L79.13 56.68 5.582 54.07C4.044 40.792 2.54 27.514 1 14.236c2.743-2.174 5.519-4.348 8.261-6.522 8.83-.401 33.446-.401 56.59 16.088 11.874 8.461 19.232 18.328 23.513 25.251z" fill="#009051" stroke="#161616" stroke-width="1.5" stroke-miterlimit="10"/><path d="M13.408 46.21L90 48.82a14410.67 14410.67 0 00-4.147-37.427A56372.742 56372.742 0 018.826 7.246c1.539 13.01 3.044 25.987 4.582 38.965z" fill="#fff" stroke="#161616" stroke-width="1.5" stroke-miterlimit="10"/><path d="M55.182 9.487c0-.368-.133-2.943-2.274-4.549-1.806-1.338-4.515-1.605-6.489-.167-1.973 1.471-2.107 3.88-2.107 4.214 3.646.167 7.258.335 10.87.502z" fill="#009051" stroke="#161616" stroke-width="1.5" stroke-miterlimit="10"/><path d="M50.467 3.567c.3-.936.635-2.943-1.037-2.442-.2.067-1.104.201-1.17.368-.235.368.1 1.372.166 1.74l-.334-.335c.502.167 1.137.301 1.639.034.368-.201.635-.67.435-1.07h.87c-.168.2-.202.367-.135.635h-.97c.067-.2.1-.402.1-.636-.066-.267-.033-.334.168-.2-.1.167-.167.334-.2.501 0 .167 0 .335.066.469h-.97c.134-.301.234-1.037.435-.402.1.268 0 .67-.067.937-.334-.1-.635-.168-.97-.268.167-.435.569-1.338.1-1.706.201-.033.402-.067.603-.067a1.452 1.452 0 00-.301 1.271c-.268-.067-.569-.133-.837-.234.235-.267.134-.568-.066-.769h.702c-.167.2-.2.435-.067.669.301.569-.569 1.07-.87.502-.334-.67-.267-1.305.201-1.873.167-.201.535-.168.703 0 .635.602.635 1.538.066 2.207-.234.268-.769.134-.836-.234-.167-.836.034-1.572.569-2.24a.46.46 0 01.602-.068c.936.703.77 1.873.368 2.843-.234.569-1.137.368-.97-.267.167-.536-.134-1.07.234-1.572.2-.268.535-.502.87-.469 1.103 0 .702 1.405.468 2.04-.167.435-.836.536-.97 0-.2-.802 0-2.14.97-2.34 1.204-.235.97 1.504.836 2.173-.134.502-.836.469-.97 0-.134-.501-.067-.97.234-1.404.2-.268.67-.368.87 0 .568 1.17-.2 2.441-1.438 2.675-.536.1-1.539.1-1.974-.3-.434-.436-.434-1.773-.368-2.342.067-.635.469-.87 1.037-1.003.703-.134 1.405-.536 2.14-.335 1.64.502 1.405 2.509 1.004 3.746-.167.636-1.137.368-.936-.234z" fill="#161616"/><path d="M21.837 39.89c20.235.635 40.503 1.27 60.738 1.906-.636-8.295-1.271-16.623-1.907-24.918-20.234-.836-40.503-1.705-60.738-2.542.636 8.496 1.271 17.024 1.907 25.553z" fill="#fff" stroke="#161616" stroke-width="1.5" stroke-miterlimit="10"/><path d="M69.765 22.965c0 .502 0 1.004.267 1.305.435.468 1.171.033 2.776 0 1.74 0 2.542.502 3.01 0 .268-.301.268-.803.268-1.305 0-1.772-1.405-3.21-3.177-3.21-1.706 0-3.144 1.438-3.144 3.21zM30.6 21.996c0 .501 0 1.003.267 1.304.435.468 1.171.034 2.776 0 1.74 0 2.542.502 3.01 0 .268-.3.268-.803.268-1.304 0-1.773-1.405-3.211-3.177-3.211-1.74 0-3.144 1.438-3.144 3.21z" fill="#161616" stroke="#161616" stroke-width="1.5" stroke-miterlimit="10"/><path d="M57.992 27.715c-.435 2.073-1.639 4.482-4.18 4.147-2.208-.3-3.245-2.374-3.446-4.381-.067-.636.937-.636 1.004 0 .134 1.572 1.003 3.378 2.843 3.411 1.84.034 2.508-2.006 2.81-3.445.133-.635 1.103-.368.969.268zm19.031-.101c-2.275-.702-4.55-.836-6.89-.367-.469.1-.67-.636-.201-.736 2.475-.502 4.883-.368 7.291.368.469.133.268.87-.2.735zm-.435 1.639c-1.74-.468-3.512-.568-5.318-.334-.468.067-.468-.702 0-.77 1.873-.233 3.68-.133 5.519.369.468.133.267.87-.201.735zm-39.232-2.976c-2.509-.703-4.984-.368-7.492.167-.469.1-.67-.636-.201-.736 2.642-.535 5.251-.903 7.893-.167.469.134.268.87-.2.736zm-.936 1.605a29.12 29.12 0 00-6.389.1c-.468.067-.468-.702 0-.769a29.152 29.152 0 016.388-.1c.502.067.502.836 0 .77zM25.583 38.116c.301-.3.167-.769-.2-.936-.402-.2-.904-.033-1.138.3-.234.335-.134.703.268.804.368.1.735 0 1.103-.1.469-.134.67.601.201.735-.635.2-1.505.301-2.04-.2-.636-.536-.468-1.439.1-1.94.569-.502 1.505-.603 2.14-.1.603.5.67 1.437.134 1.972-.4.368-.936-.167-.568-.535zm55.085 1.907c0-.368-.033-.77-.434-.903-.301-.1-.602.033-.703.3-.267.67.636 1.138 1.037.57.268-.402.937-.034.636.367-.368.535-1.07.77-1.706.535-.636-.267-.937-1.003-.736-1.672.2-.669.903-1.003 1.572-.87.803.168 1.104.904 1.07 1.64 0 .501-.769.501-.736.033z" fill="#161616"/><path opacity=".31" d="M78.06 11.126c-19.266 1.304-38.53 2.575-57.795 3.88.735 8.093 1.471 16.22 2.207 24.315 19.9.97 39.8 1.94 59.735 2.91.702 2.073 1.371 4.147 2.073 6.22l-70.77-2.207C12.037 33.4 10.565 20.524 9.094 7.68c22.977 1.137 45.955 2.307 68.965 3.445z" fill="#666"/><path opacity=".28" d="M19.863 13.768l1.806 25.987c31.875.87 47.828 1.706 47.828 2.475 0 .837-17.425 1.606-52.242 2.342a4771.66 4771.66 0 012.608-30.804z" fill="#666"/><path opacity=".11" d="M77.09 41.394c-18.998-8.93-37.962-17.893-56.959-26.823.702 8.294 1.371 16.589 2.074 24.883 18.295.67 36.59 1.305 54.885 1.94z" fill="#666"/></svg>