<?xml version="1.0" encoding="utf-8"?>
<!-- Generator: Adobe Illustrator 23.0.3, SVG Export Plug-In . SVG Version: 6.00 Build 0)  -->
<svg version="1.1" id="Слой_1" xmlns="http://www.w3.org/2000/svg" xmlns:xlink="http://www.w3.org/1999/xlink" x="0px" y="0px"
	 viewBox="0 0 1440 1619" style="enable-background:new 0 0 1440 1619;" xml:space="preserve">
<style type="text/css">
	.st0{fill:#57B68C;}
	.st1{fill:#009051;}
</style>
<path class="st0" d="M1177.3,1001.5c457-167.5,84.8-1021,84.8-1021s-421.3-153-602.8-26c-144.5,184.5,127,504-200.5,526
	c-327.5,22-565.4,218.9-688.5,428c-123.1,209.1,23.2,425.7,23.2,425.7s186.3,251.3,710.8,251.3
	C1042.3,1585.5,842.1,1124.3,1177.3,1001.5z"/>
<path class="st1" d="M1138.9,934.6c457-167.5,84.8-1021,84.8-1021s-421.3-153-602.8-26c-144.5,184.5,127,504-200.5,526
	s-565.4,218.9-688.5,428c-123.1,209.1,23.2,425.7,23.2,425.7s186.3,251.3,710.8,251.3C1003.9,1518.6,803.7,1057.5,1138.9,934.6z"/>
</svg>
