<svg width="1426" height="296" fill="none" xmlns="http://www.w3.org/2000/svg"><path d="M-631.533 171.479c-101.639 65.758-198.986 69.656-405.297 80.211 0 0 102.752 16.707 168.821 16.511 56.235-.167 88.312 4.929 143.956-12.752 49.467-15.719 74.049-63.625 124.047-65.488 52.104-1.943 77.535 47.976 129.059 61.289l2.162.558c59.292 15.325 95.158 24.596 154.691 1.327 67.71-26.465 92.61-134.659 161.395-142.88 70.86-8.47 100.601 105.269 171.42 110.674 39.248 2.996 60.92-17.245 100.183-22.329 59.739-7.734 93.372-1.644 153.118 1.84 105.149 6.133 163.617 58.959 268.478 37.622 72.437-14.74 109.414-77.821 182.129-81.083 74.113-3.324 111.927 77.124 185.947 67.404 40.22-5.282 61.124-34.755 101.334-40.418 53.41-7.521 82.56 24.335 136.01 26.978 109.25 5.401 278.18-70.877 278.18-70.877s-227.61-174.708-370.54-91.345c-142.941 83.364-138.297 163.07-188.67 158.844-50.374-4.225-114.359-119.04-161.107-114.17-46.747 4.868-79.662 64.566-133.47 72.615-63.328 9.474-96.579-51.305-160.022-48.989-54.444 1.987-83.467 37.233-137.812 45.41-49.874 7.504-77.986-7.143-127.91-1.537-56.277 6.318-87.505 49.3-143.305 36.293-71.77-16.731-105.455-160.569-166.23-154.058-60.774 6.51-101.936 168.228-225.404 185.556-123.468 17.328-139.524-122.963-241.163-57.206z" fill="#EC615B"/></svg>