<svg width="75" height="78" fill="none" xmlns="http://www.w3.org/2000/svg"><rect x="10" y="5" width="41" height="13" rx="6.5" fill="#EC615B" stroke="#161616" stroke-width="2"/><rect x="11" y="32" width="63" height="13" rx="6.5" fill="#009051" stroke="#161616" stroke-width="2"/><rect x="10" y="61" width="41" height="13" rx="6.5" fill="#EC615B" stroke="#161616" stroke-width="2"/><circle cx="11" cy="11" r="10" fill="#EC615B" stroke="#161616" stroke-width="2"/><path d="M12.194 11.164l3.719-3.785a.818.818 0 000-1.142.783.783 0 00-1.122 0l-3.718 3.785-3.719-3.785a.783.783 0 00-1.122 0 .818.818 0 000 1.142l3.719 3.785-3.719 3.786a.818.818 0 000 1.142c.15.152.353.24.556.24a.745.745 0 00.556-.24l3.729-3.785 3.718 3.785a.79.79 0 00.556.24.745.745 0 00.555-.24.818.818 0 000-1.142l-3.707-3.786z" fill="#161616"/><circle cx="11" cy="39" r="10" fill="#009051" stroke="#161616" stroke-width="2"/><circle cx="11" cy="67" r="10" fill="#EC615B" stroke="#161616" stroke-width="2"/><path d="M12.194 67.164l3.719-3.785a.818.818 0 000-1.142.783.783 0 00-1.122 0l-3.718 3.785-3.719-3.785a.783.783 0 00-1.122 0 .818.818 0 000 1.142l3.719 3.785-3.719 3.786a.818.818 0 000 1.142c.15.153.353.24.556.24a.745.745 0 00.556-.24l3.729-3.785 3.718 3.785c.15.153.352.24.556.24a.745.745 0 00.555-.24.818.818 0 000-1.142l-3.707-3.786z" fill="#161616"/><path d="M6 39.397l2.864 2.864a.2.2 0 00.277.005l6.796-6.306" stroke="#161616" stroke-width="1.5" stroke-linecap="round"/></svg>