<svg width="66" height="73" viewBox="0 0 66 73" fill="none" xmlns="http://www.w3.org/2000/svg">
<path d="M25.7753 40.8198V65.0181C25.7753 66.9057 26.5243 68.7159 27.8576 70.0507C29.1909 71.3854 30.9992 72.1352 32.8847 72.1352C34.7702 72.1352 36.5785 71.3854 37.9118 70.0507C39.245 68.7159 39.9941 66.9057 39.9941 65.0181V9.24215C40.9425 8.90835 41.7422 8.24917 42.2514 7.38146C42.7607 6.51376 42.9466 5.49356 42.7763 4.50172C42.6059 3.50988 42.0903 2.61045 41.3207 1.96287C40.5512 1.31529 39.5775 0.961381 38.5722 0.963881H27.1972C26.1919 0.961359 25.2182 1.31525 24.4486 1.96282C23.6791 2.6104 23.1634 3.50982 22.9931 4.50166C22.8227 5.49351 23.0086 6.5137 23.5179 7.38141C24.0272 8.24911 24.8269 8.90828 25.7753 9.24206V40.8198ZM27.1972 3.81073H38.5722C38.9493 3.81073 39.311 3.9607 39.5776 4.22765C39.8443 4.49459 39.9941 4.85664 39.9941 5.23416C39.9941 5.61168 39.8443 5.97373 39.5776 6.24068C39.311 6.50762 38.9493 6.65759 38.5722 6.65759H27.1972C26.8201 6.65759 26.4584 6.50762 26.1918 6.24068C25.9251 5.97373 25.7753 5.61168 25.7753 5.23416C25.7753 4.85664 25.9251 4.49459 26.1918 4.22765C26.4584 3.9607 26.8201 3.81073 27.1972 3.81073ZM37.1503 9.50444V21.0157C35.7218 21.179 34.378 21.7783 33.3013 22.7323C32.8699 23.137 32.3521 23.4379 31.7872 23.6123C31.2222 23.7867 30.6251 23.8299 30.0409 23.7387C29.5157 23.6557 29.0236 23.4288 28.6191 23.0832V9.50444H37.1503ZM32.8847 69.2884C31.7538 69.2871 30.6695 68.8368 29.8698 68.0363C29.0701 67.2357 28.6203 66.1503 28.6191 65.0181V53.4868C30.2246 53.1587 31.6677 52.2855 32.7041 51.0148C33.7405 49.7441 34.3066 48.154 34.3066 46.5135C34.3066 44.8731 33.7405 43.283 32.7041 42.0123C31.6677 40.7416 30.2246 39.8684 28.6191 39.5403V26.3149C29.0735 26.4878 29.5548 26.5794 30.0409 26.5856C31.0006 26.6843 31.9701 26.5707 32.881 26.2526C33.7919 25.9346 34.6217 25.4199 35.3118 24.7451C35.839 24.3079 36.4741 24.0209 37.1503 23.9144V26.7294C35.5448 27.0575 34.1017 27.9308 33.0653 29.2015C32.0289 30.4721 31.4628 32.0622 31.4628 33.7027C31.4628 35.3432 32.0289 36.9333 33.0653 38.2039C34.1017 39.4746 35.5448 40.3479 37.1503 40.676V50.9277C35.5448 51.2558 34.1017 52.129 33.0653 53.3997C32.0289 54.6704 31.4628 56.2605 31.4628 57.901C31.4628 59.5414 32.0289 61.1315 33.0653 62.4022C34.1017 63.6729 35.5448 64.5461 37.1503 64.8742V65.0181C37.1491 66.1503 36.6993 67.2357 35.8996 68.0363C35.0999 68.8368 34.0156 69.2871 32.8847 69.2884ZM28.6191 50.5399V42.4872C29.4507 42.7816 30.1708 43.3269 30.6801 44.048C31.1893 44.7691 31.4628 45.6304 31.4628 46.5135C31.4628 47.3966 31.1893 48.258 30.6801 48.9791C30.1708 49.7002 29.4507 50.2454 28.6191 50.5399ZM37.1503 29.6764V37.729C36.3186 37.4346 35.5986 36.8893 35.0893 36.1683C34.58 35.4472 34.3066 34.5858 34.3066 33.7027C34.3066 32.8196 34.58 31.9582 35.0893 31.2371C35.5986 30.5161 36.3186 29.9708 37.1503 29.6764ZM34.3066 57.901C34.3076 57.0181 34.5814 56.1572 35.0906 55.4363C35.5997 54.7154 36.3192 54.1699 37.1503 53.8746V61.9273C36.3192 61.632 35.5997 61.0865 35.0906 60.3656C34.5814 59.6447 34.3076 58.7838 34.3066 57.901Z" fill="white"/>
<path d="M3.02532 9.24206V65.0181C3.02532 66.9057 3.77434 68.7159 5.1076 70.0507C6.44087 71.3854 8.24917 72.1352 10.1347 72.1352C12.0202 72.1352 13.8285 71.3854 15.1618 70.0507C16.495 68.7159 17.2441 66.9057 17.2441 65.0181V9.24215C18.1925 8.90835 18.9922 8.24917 19.5014 7.38146C20.0107 6.51376 20.1966 5.49356 20.0263 4.50172C19.8559 3.50988 19.3403 2.61045 18.5707 1.96287C17.8012 1.31529 16.8275 0.961381 15.8222 0.963881H4.44719C3.44189 0.961359 2.46817 1.31525 1.69863 1.96282C0.929084 2.6104 0.41343 3.50982 0.243069 4.50166C0.0727082 5.49351 0.258645 6.5137 0.767921 7.38141C1.2772 8.24911 2.07691 8.90828 3.02532 9.24206ZM4.44719 3.81073H15.8222C16.1993 3.81073 16.561 3.9607 16.8276 4.22765C17.0943 4.49459 17.2441 4.85664 17.2441 5.23416C17.2441 5.61168 17.0943 5.97373 16.8276 6.24068C16.561 6.50762 16.1993 6.65759 15.8222 6.65759H4.44719C4.07009 6.65759 3.70843 6.50762 3.44177 6.24068C3.17512 5.97373 3.02532 5.61168 3.02532 5.23416C3.02532 4.85664 3.17512 4.49459 3.44177 4.22765C3.70843 3.9607 4.07009 3.81073 4.44719 3.81073ZM10.1347 69.2884C9.00376 69.2871 7.91949 68.8368 7.1198 68.0363C6.32011 67.2357 5.8703 66.1503 5.86907 65.0181V36.7252C6.54531 36.8318 7.18039 37.1187 7.70755 37.556C8.39764 38.2308 9.22751 38.7454 10.1384 39.0635C11.0492 39.3815 12.0188 39.4952 12.9784 39.3964C13.4646 39.3902 13.9458 39.2986 14.4003 39.1258V65.0181C14.3991 66.1503 13.9493 67.2357 13.1496 68.0363C12.3499 68.8368 11.2656 69.2871 10.1347 69.2884ZM14.4003 35.8935C13.9959 36.2394 13.5038 36.4664 12.9784 36.5496C12.3943 36.6408 11.7971 36.5975 11.2322 36.4232C10.6673 36.2488 10.1495 35.9478 9.71808 35.5432C8.64141 34.5892 7.29762 33.9898 5.86907 33.8265V9.50444H14.4003V35.8935Z" fill="white"/>
<path d="M45.6815 5.23416C45.6842 6.11438 45.959 6.97217 46.4682 7.68979C46.9774 8.4074 47.6959 8.94964 48.5253 9.24206V65.0181C48.5253 66.9056 49.2743 68.7159 50.6076 70.0506C51.9408 71.3854 53.7491 72.1352 55.6346 72.1352C57.5202 72.1352 59.3285 71.3854 60.6617 70.0506C61.995 68.7159 62.744 66.9056 62.744 65.0181V9.24214C63.6924 8.90834 64.4921 8.24917 65.0014 7.38146C65.5106 6.51375 65.6966 5.49356 65.5262 4.50172C65.3559 3.50988 64.8402 2.61045 64.0707 1.96287C63.3012 1.31529 62.3274 0.961381 61.3221 0.96388H49.9471C48.8162 0.965116 47.7319 1.41542 46.9323 2.21598C46.1326 3.01655 45.6828 4.10199 45.6815 5.23416ZM62.744 5.23416C62.7436 5.61156 62.5937 5.9734 62.3271 6.24026C62.0606 6.50712 61.6991 6.65721 61.3221 6.65759H49.9471C49.57 6.65759 49.2084 6.50762 48.9417 6.24067C48.6751 5.97373 48.5253 5.61168 48.5253 5.23416C48.5253 4.85664 48.6751 4.49459 48.9417 4.22765C49.2084 3.9607 49.57 3.81073 49.9471 3.81073H61.3221C61.6991 3.81111 62.0606 3.9612 62.3271 4.22806C62.5937 4.49492 62.7436 4.85676 62.744 5.23416ZM54.628 53.2109C54.8942 53.4779 55.2554 53.6283 55.6323 53.6293C56.0091 53.6302 56.371 53.4815 56.6386 53.2157C57.5826 52.304 58.6889 51.5775 59.9003 51.0739V65.0181C59.9003 66.1506 59.4508 67.2368 58.6509 68.0376C57.8509 68.8384 56.766 69.2883 55.6346 69.2883C54.5033 69.2883 53.4184 68.8384 52.6184 68.0376C51.8184 67.2368 51.369 66.1506 51.369 65.0181V62.0571C53.0722 61.8449 54.7285 61.3518 56.2706 60.5977C56.607 60.4283 56.8626 60.1322 56.9812 59.7744C57.0999 59.4167 57.0719 59.0264 56.9035 58.6892C56.7351 58.352 56.44 58.0955 56.0829 57.9759C55.7258 57.8562 55.3359 57.8833 54.9987 58.0511C53.8532 58.6101 52.6292 58.9911 51.369 59.1807V41.1337C52.6021 41.5823 53.717 42.3058 54.6294 43.2496C54.8968 43.5125 55.2571 43.6591 55.632 43.6574C56.0068 43.6557 56.3658 43.5059 56.6308 43.2405C56.8959 42.9752 57.0455 42.6158 57.0472 42.2406C57.0489 41.8653 56.9025 41.5046 56.6399 41.2369C55.2018 39.7462 53.3762 38.6876 51.369 38.1805V32.4549C52.0453 32.5615 52.6803 32.8484 53.2075 33.2857C53.8976 33.9605 54.7275 34.4751 55.6383 34.7932C56.5492 35.1112 57.5188 35.2249 58.4784 35.1261C58.9645 35.1199 59.4458 35.0283 59.9003 34.8555V48.1178C57.9139 48.6893 56.1019 49.7491 54.6294 51.2009C54.3634 51.4675 54.2139 51.8288 54.2137 52.2056C54.2134 52.5823 54.3624 52.9439 54.628 53.2109ZM59.9003 31.6232C59.4959 31.9691 59.0037 32.1962 58.4784 32.2793C57.8943 32.3705 57.2971 32.3272 56.7322 32.1529C56.1672 31.9785 55.6494 31.6776 55.218 31.2729C54.1414 30.3189 52.7976 29.7196 51.369 29.5562V9.50444H59.9003V31.6232Z" fill="white"/>
<path d="M8.71277 47.9369C8.89951 47.9369 9.08442 47.9001 9.25695 47.8286C9.42949 47.7571 9.58625 47.6523 9.71829 47.5201C9.85034 47.3879 9.95507 47.231 10.0265 47.0582C10.0979 46.8855 10.1347 46.7004 10.1346 46.5135V43.6666C10.1346 43.2891 9.98484 42.927 9.71819 42.6601C9.45153 42.3931 9.08987 42.2432 8.71277 42.2432C8.33566 42.2432 7.974 42.3931 7.70735 42.6601C7.4407 42.927 7.29089 43.2891 7.29089 43.6666V46.5135C7.29085 46.7004 7.32759 46.8855 7.39903 47.0582C7.47047 47.231 7.5752 47.3879 7.70724 47.5201C7.83929 47.6523 7.99605 47.7571 8.16858 47.8286C8.34111 47.9001 8.52603 47.9369 8.71277 47.9369Z" fill="white"/>
<path d="M11.5565 49.3604C11.3698 49.3603 11.1849 49.3971 11.0123 49.4686C10.8398 49.5401 10.683 49.645 10.551 49.7772C10.4189 49.9093 10.3142 50.0663 10.2428 50.239C10.1713 50.4117 10.1346 50.5968 10.1346 50.7838V53.6306C10.1346 54.0081 10.2844 54.3702 10.5511 54.6371C10.8178 54.9041 11.1794 55.0541 11.5565 55.0541C11.9336 55.0541 12.2953 54.9041 12.5619 54.6371C12.8286 54.3702 12.9784 54.0081 12.9784 53.6306V50.7838C12.9784 50.5968 12.9417 50.4117 12.8703 50.239C12.7988 50.0663 12.6941 49.9093 12.562 49.7772C12.43 49.645 12.2732 49.5401 12.1007 49.4686C11.9282 49.3971 11.7433 49.3603 11.5565 49.3604Z" fill="white"/>
<path d="M8.71277 56.4775C8.52603 56.4775 8.34111 56.5143 8.16858 56.5858C7.99605 56.6573 7.83929 56.7622 7.70724 56.8943C7.5752 57.0265 7.47047 57.1835 7.39903 57.3562C7.32759 57.5289 7.29085 57.714 7.29089 57.901V60.7478C7.29089 61.1253 7.4407 61.4874 7.70735 61.7543C7.974 62.0213 8.33566 62.1712 8.71277 62.1712C9.08987 62.1712 9.45153 62.0213 9.71819 61.7543C9.98484 61.4874 10.1346 61.1253 10.1346 60.7478V57.901C10.1347 57.714 10.0979 57.5289 10.0265 57.3562C9.95507 57.1835 9.85034 57.0265 9.71829 56.8943C9.58625 56.7622 9.42949 56.6573 9.25695 56.5858C9.08442 56.5143 8.89951 56.4775 8.71277 56.4775Z" fill="white"/>
</svg>
